<?xml version="1.0" encoding="UTF-8" standalone="no"?>
<!DOCTYPE svg PUBLIC "-//W3C//DTD SVG 1.1//EN"
 "http://www.w3.org/Graphics/SVG/1.1/DTD/svg11.dtd">
<!-- Generated by graphviz version 2.42.4 (0)
 -->
<!-- Title: img2num_ImageToSvgConfig Pages: 1 -->
<svg width="330pt" height="194pt"
 viewBox="0.00 0.00 330.00 194.00" xmlns="http://www.w3.org/2000/svg" xmlns:xlink="http://www.w3.org/1999/xlink">

<svg id="main" version="1.1" xmlns="http://www.w3.org/2000/svg" xmlns:xlink="http://www.w3.org/1999/xlink" xml:space="preserve" onload="init(evt)">
<style type="text/css"><![CDATA[
.node, .edge {opacity: 0.7;}
.node.selected, .edge.selected {opacity: 1;}
.edge:hover path { stroke: red; }
.edge:hover polygon { stroke: red; fill: red; }
]]></style>
<script type="application/ecmascript" xlink:href="svg.min.js"/>
<svg id="graph" class="graph">
<g id="graph0" class="graph" transform="scale(1 1) rotate(0) translate(4 190)">
<title>img2num_ImageToSvgConfig</title>
<!-- Node1 -->
<g id="Node000001" class="node">
<title>Node1</title>
<g id="a_Node000001"><a xlink:title="Configuration options for image_to_svg.">
<polygon fill="#999999" stroke="transparent" points="237,-64 85,-64 85,0 237,0 237,-64"/>
<text text-anchor="start" x="90" y="-52" font-family="Helvetica,sans-Serif" font-size="10.00">img2num_ImageToSvgConfig</text>
<text text-anchor="start" x="100.5" y="-37" font-family="Helvetica,sans-Serif" font-size="10.00">+</text>
<text text-anchor="start" x="125" y="-37" font-family="Helvetica,sans-Serif" font-size="10.00">min_cluster_area</text>
<text text-anchor="start" x="100.5" y="-22" font-family="Helvetica,sans-Serif" font-size="10.00">+</text>
<text text-anchor="start" x="125" y="-22" font-family="Helvetica,sans-Serif" font-size="10.00">color_space</text>
<text text-anchor="start" x="159" y="-7" font-family="Helvetica,sans-Serif" font-size="10.00"> </text>
<polygon fill="#666666" stroke="#666666" points="85,-47 85,-47 237,-47 237,-47 85,-47"/>
<polygon fill="#666666" stroke="#666666" points="85,-17 85,-17 123,-17 123,-17 85,-17"/>
<polygon fill="#666666" stroke="#666666" points="123,-17 123,-17 237,-17 237,-17 123,-17"/>
<polygon fill="none" stroke="#666666" points="85,0 85,-64 237,-64 237,0 85,0"/>
</a>
</g>
</g>
<!-- Node2 -->
<g id="Node000002" class="node">
<title>Node2</title>
<g id="a_Node000002"><a xlink:href="structimg2num__ImageToSvgConfig_1_1BilateralFilterConfig.html" target="_top" xlink:title="Configuration settings for the bilateral filter in image_to_svg.">
<polygon fill="white" stroke="transparent" points="152,-186 0,-186 0,-111 152,-111 152,-186"/>
<text text-anchor="start" x="5" y="-173.5" font-family="Helvetica,sans-Serif" font-size="10.00">img2num_ImageToSvgConfig</text>
<text text-anchor="start" x="24.5" y="-162.5" font-family="Helvetica,sans-Serif" font-size="10.00">::BilateralFilterConfig</text>
<text text-anchor="start" x="19.5" y="-147.5" font-family="Helvetica,sans-Serif" font-size="10.00">+</text>
<text text-anchor="start" x="48" y="-147.5" font-family="Helvetica,sans-Serif" font-size="10.00">sigma_spatial</text>
<text text-anchor="start" x="19.5" y="-132.5" font-family="Helvetica,sans-Serif" font-size="10.00">+</text>
<text text-anchor="start" x="48" y="-132.5" font-family="Helvetica,sans-Serif" font-size="10.00">sigma_range</text>
<text text-anchor="start" x="74" y="-117.5" font-family="Helvetica,sans-Serif" font-size="10.00"> </text>
<polygon fill="#666666" stroke="#666666" points="0,-157.5 0,-157.5 152,-157.5 152,-157.5 0,-157.5"/>
<polygon fill="#666666" stroke="#666666" points="0,-127.5 0,-127.5 46,-127.5 46,-127.5 0,-127.5"/>
<polygon fill="#666666" stroke="#666666" points="46,-127.5 46,-127.5 152,-127.5 152,-127.5 46,-127.5"/>
<polygon fill="none" stroke="#666666" points="0,-111 0,-186 152,-186 152,-111 0,-111"/>
</a>
</g>
</g>
<!-- Node2&#45;&gt;Node1 -->
<g id="edge1_Node000001_Node000002" class="edge">
<title>Node2&#45;&gt;Node1</title>
<g id="a_edge1_Node000001_Node000002"><a xlink:title=" ">
<path fill="none" stroke="#63b8ff" d="M103.13,-110.96C111.86,-99.2 121.59,-86.09 130.54,-74.03"/>
<polygon fill="none" stroke="#63b8ff" points="130.69,-73.83 131.05,-66.63 137.84,-64.2 137.48,-71.4 130.69,-73.83"/>
</a>
</g>
<text text-anchor="middle" x="164" y="-85" font-family="Helvetica,sans-Serif" font-size="10.00" fill="grey"> +bilateral_filter</text>
</g>
<!-- Node3 -->
<g id="Node000003" class="node">
<title>Node3</title>
<g id="a_Node000003"><a xlink:href="structimg2num__ImageToSvgConfig_1_1KMeansConfig.html" target="_top" xlink:title="Configuration settings for K&#45;Means in image_to_svg.">
<polygon fill="white" stroke="transparent" points="322,-186 170,-186 170,-111 322,-111 322,-186"/>
<text text-anchor="start" x="175" y="-173.5" font-family="Helvetica,sans-Serif" font-size="10.00">img2num_ImageToSvgConfig</text>
<text text-anchor="start" x="208" y="-162.5" font-family="Helvetica,sans-Serif" font-size="10.00">::KMeansConfig</text>
<text text-anchor="start" x="195.5" y="-147.5" font-family="Helvetica,sans-Serif" font-size="10.00">+</text>
<text text-anchor="start" x="230" y="-147.5" font-family="Helvetica,sans-Serif" font-size="10.00">k</text>
<text text-anchor="start" x="195.5" y="-132.5" font-family="Helvetica,sans-Serif" font-size="10.00">+</text>
<text text-anchor="start" x="230" y="-132.5" font-family="Helvetica,sans-Serif" font-size="10.00">max_iter</text>
<text text-anchor="start" x="244" y="-117.5" font-family="Helvetica,sans-Serif" font-size="10.00"> </text>
<polygon fill="#666666" stroke="#666666" points="170,-157.5 170,-157.5 322,-157.5 322,-157.5 170,-157.5"/>
<polygon fill="#666666" stroke="#666666" points="170,-127.5 170,-127.5 228,-127.5 228,-127.5 170,-127.5"/>
<polygon fill="#666666" stroke="#666666" points="228,-127.5 228,-127.5 322,-127.5 322,-127.5 228,-127.5"/>
<polygon fill="none" stroke="#666666" points="170,-111 170,-186 322,-186 322,-111 170,-111"/>
</a>
</g>
</g>
<!-- Node3&#45;&gt;Node1 -->
<g id="edge2_Node000001_Node000003" class="edge">
<title>Node3&#45;&gt;Node1</title>
<g id="a_edge2_Node000001_Node000003"><a xlink:title=" ">
<path fill="none" stroke="#63b8ff" d="M226.78,-110.82C221.17,-101.15 214.72,-90.93 208,-82 205.8,-79.08 203.45,-76.15 201.01,-73.25"/>
<polygon fill="none" stroke="#63b8ff" points="200.94,-73.17 193.97,-71.32 193,-64.17 199.97,-66.03 200.94,-73.17"/>
</a>
</g>
<text text-anchor="middle" x="240.5" y="-85" font-family="Helvetica,sans-Serif" font-size="10.00" fill="grey"> +kmeans</text>
</g>
</g>
</svg>
</svg>

<style type='text/css'>
<![CDATA[
[data-mouse-over-selected='false'] { opacity: 0.7; }
[data-mouse-over-selected='true']  { opacity: 1.0; }
]]>
</style>
<script type="application/ecmascript"><![CDATA[
document.addEventListener('DOMContentLoaded', (event) => {
  highlightEdges();
  highlightAdjacentNodes();
});
]]></script>
</svg>
