<svg width="1280" height="720" xmlns="http://www.w3.org/2000/svg" xmlns:xlink="http://www.w3.org/1999/xlink" overflow="hidden"><g><rect x="0" y="0" width="1280" height="720" fill="#FFFFFF"/><rect x="267" y="8" width="450" height="212" stroke="#042433" stroke-width="2" stroke-miterlimit="8" fill="none"/><path d="M267 101C305.791 86.6742 344.581 72.3485 353.379 56.8485 362.177 41.3485 332.904 15.202 319.787 8" stroke="#042433" stroke-width="2" stroke-miterlimit="8" fill="none" fill-rule="evenodd"/><path d="M356 52.3653C378.724 75.1702 401.448 97.9752 424.615 90.5809 447.781 83.1867 471.391 45.5934 495 8" stroke="#042433" stroke-width="2" stroke-miterlimit="8" fill="none" fill-rule="evenodd"/><path d="M324 78C360.42 92.4357 396.84 106.871 409.439 130.371 422.039 153.871 410.819 186.436 399.598 219" stroke="#042433" stroke-width="2" stroke-miterlimit="8" fill="none" fill-rule="evenodd"/><path d="M415 154C479.463 152.458 543.926 150.916 567.509 126.416 591.092 101.916 573.794 54.4582 556.496 7" stroke="#042433" stroke-width="2" stroke-miterlimit="8" fill="none" fill-rule="evenodd"/><path d="M576 112.799C607.048 129.062 638.095 145.325 661.595 136.525 685.095 127.726 701.048 93.8627 717 60" stroke="#042433" stroke-width="2" stroke-miterlimit="8" fill="none" fill-rule="evenodd"/><path d="M531 145C558.32 153.446 585.64 161.892 616.64 164.257 647.64 166.622 682.32 162.906 717 159.19" stroke="#042433" stroke-width="2" stroke-miterlimit="8" fill="none" fill-rule="evenodd"/><path d="M569 156C532.081 169.318 495.162 182.637 482.054 193.137 468.946 203.637 479.648 211.318 490.35 219" stroke="#042433" stroke-width="2" stroke-miterlimit="8" fill="none" fill-rule="evenodd"/><text font-family="Aptos,Aptos_MSFontService,sans-serif" font-weight="400" font-size="24" transform="translate(295.744 57)">0</text><text font-family="Aptos,Aptos_MSFontService,sans-serif" font-weight="400" font-size="24" transform="translate(399.267 42)">1</text><text font-family="Aptos,Aptos_MSFontService,sans-serif" font-weight="400" font-size="24" transform="translate(311.25 153)">2</text><text font-family="Aptos,Aptos_MSFontService,sans-serif" font-weight="400" font-size="24" transform="translate(468.632 114)">3</text><text font-family="Aptos,Aptos_MSFontService,sans-serif" font-weight="400" font-size="24" transform="translate(623.878 67)">4</text><text font-family="Aptos,Aptos_MSFontService,sans-serif" font-weight="400" font-size="24" transform="translate(438.94 193)">5</text><text font-family="Aptos,Aptos_MSFontService,sans-serif" font-weight="400" font-size="24" transform="translate(582.344 150)">6</text><text font-family="Aptos,Aptos_MSFontService,sans-serif" font-weight="400" font-size="24" transform="translate(582.344 205)">7</text><rect x="208" y="376" width="50" height="50" stroke="#042433" stroke-width="2" stroke-miterlimit="8" fill="#156082"/><text fill="#FFFFFF" font-family="Aptos,Aptos_MSFontService,sans-serif" font-weight="400" font-size="24" transform="translate(226.64 409)">0</text><rect x="284" y="376" width="50" height="50" stroke="#042433" stroke-width="2" stroke-miterlimit="8" fill="#156082"/><text fill="#FFFFFF" font-family="Aptos,Aptos_MSFontService,sans-serif" font-weight="400" font-size="24" transform="translate(302.45 409)">1</text><rect x="360" y="376" width="51" height="50" stroke="#042433" stroke-width="2" stroke-miterlimit="8" fill="#156082"/><text fill="#FFFFFF" font-family="Aptos,Aptos_MSFontService,sans-serif" font-weight="400" font-size="24" transform="translate(379.278 409)">2</text><rect x="438" y="376" width="51" height="50" stroke="#042433" stroke-width="2" stroke-miterlimit="8" fill="#156082"/><text fill="#FFFFFF" font-family="Aptos,Aptos_MSFontService,sans-serif" font-weight="400" font-size="24" transform="translate(457.07 409)">3</text><rect x="515" y="376" width="51" height="50" stroke="#042433" stroke-width="2" stroke-miterlimit="8" fill="#156082"/><text fill="#FFFFFF" font-family="Aptos,Aptos_MSFontService,sans-serif" font-weight="400" font-size="24" transform="translate(534.293 409)">4</text><rect x="591" y="376" width="51" height="50" stroke="#042433" stroke-width="2" stroke-miterlimit="8" fill="#156082"/><text fill="#FFFFFF" font-family="Aptos,Aptos_MSFontService,sans-serif" font-weight="400" font-size="24" transform="translate(610.102 409)">5</text><rect x="668" y="376" width="51" height="50" stroke="#042433" stroke-width="2" stroke-miterlimit="8" fill="#156082"/><text fill="#FFFFFF" font-family="Aptos,Aptos_MSFontService,sans-serif" font-weight="400" font-size="24" transform="translate(686.931 409)">6</text><rect x="746" y="376" width="50" height="50" stroke="#042433" stroke-width="2" stroke-miterlimit="8" fill="#156082"/><text fill="#FFFFFF" font-family="Aptos,Aptos_MSFontService,sans-serif" font-weight="400" font-size="24" transform="translate(764.722 409)">7</text><text font-family="Aptos,Aptos_MSFontService,sans-serif" font-weight="400" font-size="24" transform="translate(838.082 292)">Node</text><text font-family="Aptos,Aptos_MSFontService,sans-serif" font-weight="400" font-size="24" transform="translate(838.082 392)">s</text><text font-family="Aptos,Aptos_MSFontService,sans-serif" font-weight="400" font-size="24" transform="translate(849.609 392)">td::vector&lt;</text><text font-family="Aptos,Aptos_MSFontService,sans-serif" font-weight="400" font-size="24" transform="translate(962.136 392)">Node_ptr</text><text font-family="Aptos,Aptos_MSFontService,sans-serif" font-weight="400" font-size="24" transform="translate(1058.8 392)">&gt;</text><text font-family="Aptos,Aptos_MSFontService,sans-serif" font-weight="400" font-size="24" transform="translate(838.082 421)">Node_ptr</text><text font-family="Aptos,Aptos_MSFontService,sans-serif" font-weight="400" font-size="24" transform="translate(939.582 421)">= std::</text><text font-family="Aptos,Aptos_MSFontService,sans-serif" font-weight="400" font-size="24" transform="translate(1003.66 421)">shared_ptr</text><text font-family="Aptos,Aptos_MSFontService,sans-serif" font-weight="400" font-size="24" transform="translate(1115.5 421)">&lt;Node&gt;</text><rect x="185" y="358" width="632" height="88" stroke="#042433" stroke-width="2" stroke-miterlimit="8" stroke-dasharray="8 6" fill="none"/><path d="M441 583C441 550.415 467.191 524 499.5 524 531.809 524 558 550.415 558 583 558 615.585 531.809 642 499.5 642 467.191 642 441 615.585 441 583Z" stroke="#042433" stroke-width="2" stroke-miterlimit="8" fill="#156082" fill-rule="evenodd"/><text fill="#FFFFFF" font-family="Aptos,Aptos_MSFontService,sans-serif" font-weight="400" font-size="24" transform="translate(467.601 590)">Graph</text><path d="M819 451C819 469.778 816.463 485 813.334 485L505.666 485C502.537 485 500 500.223 500 519.001 500 500.223 497.463 485 494.334 485L186.666 485C183.537 485 181 469.778 181 451" stroke="#156082" stroke-width="2" stroke-miterlimit="8" fill="none" fill-rule="evenodd"/><text font-family="Aptos,Aptos_MSFontService,sans-serif" font-weight="400" font-size="24" transform="translate(595.718 575)">Graph ownership via</text><text font-family="Aptos,Aptos_MSFontService,sans-serif" font-weight="400" font-size="24" transform="translate(595.718 604)">std::</text><text font-family="Aptos,Aptos_MSFontService,sans-serif" font-weight="400" font-size="24" transform="translate(642.125 604)">unique_ptr</text><text font-family="Aptos,Aptos_MSFontService,sans-serif" font-weight="400" font-size="24" transform="translate(754.125 604)">&lt;</text><text font-family="Aptos,Aptos_MSFontService,sans-serif" font-weight="400" font-size="24" transform="translate(766.958 604)">std::vector&lt;</text><text font-family="Aptos,Aptos_MSFontService,sans-serif" font-weight="400" font-size="24" transform="translate(891.011 604)">Node_ptr</text><text font-family="Aptos,Aptos_MSFontService,sans-serif" font-weight="400" font-size="24" transform="translate(987.678 604)">&gt;&gt;</text><path d="M213 285.5C213 274.178 222.178 265 233.5 265 244.822 265 254 274.178 254 285.5 254 296.822 244.822 306 233.5 306 222.178 306 213 296.822 213 285.5Z" stroke="#042433" stroke-width="2" stroke-miterlimit="8" fill="#156082" fill-rule="evenodd"/><text fill="#FFFFFF" font-family="Aptos,Aptos_MSFontService,sans-serif" font-weight="400" font-size="24" transform="translate(226.64 293)">0</text><path d="M288 285.5C288 274.178 297.178 265 308.5 265 319.822 265 329 274.178 329 285.5 329 296.822 319.822 306 308.5 306 297.178 306 288 296.822 288 285.5Z" stroke="#042433" stroke-width="2" stroke-miterlimit="8" fill="#156082" fill-rule="evenodd"/><text fill="#FFFFFF" font-family="Aptos,Aptos_MSFontService,sans-serif" font-weight="400" font-size="24" transform="translate(302.45 293)">1</text><path d="M365 285.5C365 274.178 374.178 265 385.5 265 396.822 265 406 274.178 406 285.5 406 296.822 396.822 306 385.5 306 374.178 306 365 296.822 365 285.5Z" stroke="#042433" stroke-width="2" stroke-miterlimit="8" fill="#156082" fill-rule="evenodd"/><text fill="#FFFFFF" font-family="Aptos,Aptos_MSFontService,sans-serif" font-weight="400" font-size="24" transform="translate(379.278 293)">2</text><path d="M443 285.5C443 274.178 452.178 265 463.5 265 474.822 265 484 274.178 484 285.5 484 296.822 474.822 306 463.5 306 452.178 306 443 296.822 443 285.5Z" stroke="#042433" stroke-width="2" stroke-miterlimit="8" fill="#156082" fill-rule="evenodd"/><text fill="#FFFFFF" font-family="Aptos,Aptos_MSFontService,sans-serif" font-weight="400" font-size="24" transform="translate(457.07 293)">3</text><path d="M520 285.5C520 274.178 529.178 265 540.5 265 551.822 265 561 274.178 561 285.5 561 296.822 551.822 306 540.5 306 529.178 306 520 296.822 520 285.5Z" stroke="#042433" stroke-width="2" stroke-miterlimit="8" fill="#156082" fill-rule="evenodd"/><text fill="#FFFFFF" font-family="Aptos,Aptos_MSFontService,sans-serif" font-weight="400" font-size="24" transform="translate(534.293 293)">4</text><path d="M596 285.5C596 274.178 605.178 265 616.5 265 627.822 265 637 274.178 637 285.5 637 296.822 627.822 306 616.5 306 605.178 306 596 296.822 596 285.5Z" stroke="#042433" stroke-width="2" stroke-miterlimit="8" fill="#156082" fill-rule="evenodd"/><text fill="#FFFFFF" font-family="Aptos,Aptos_MSFontService,sans-serif" font-weight="400" font-size="24" transform="translate(610.102 293)">5</text><path d="M673 285.5C673 274.178 682.178 265 693.5 265 704.822 265 714 274.178 714 285.5 714 296.822 704.822 306 693.5 306 682.178 306 673 296.822 673 285.5Z" stroke="#042433" stroke-width="2" stroke-miterlimit="8" fill="#156082" fill-rule="evenodd"/><text fill="#FFFFFF" font-family="Aptos,Aptos_MSFontService,sans-serif" font-weight="400" font-size="24" transform="translate(686.931 293)">6</text><path d="M751 285.5C751 274.178 760.178 265 771.5 265 782.822 265 792 274.178 792 285.5 792 296.822 782.822 306 771.5 306 760.178 306 751 296.822 751 285.5Z" stroke="#042433" stroke-width="2" stroke-miterlimit="8" fill="#156082" fill-rule="evenodd"/><text fill="#FFFFFF" font-family="Aptos,Aptos_MSFontService,sans-serif" font-weight="400" font-size="24" transform="translate(764.722 293)">7</text><path d="M234 306 234 368.974 232 368.974 232 306ZM237 367.641 233 375.641 229 367.641Z" fill="#156082"/><path d="M310 306 310 368.974 308 368.974 308 306ZM313 367.641 309 375.641 305 367.641Z" fill="#156082"/><path d="M387 306 387 368.974 385 368.974 385 306ZM390 367.641 386 375.641 382 367.641Z" fill="#156082"/><path d="M464 306 464 368.974 462 368.974 462 306ZM467 367.641 463 375.641 459 367.641Z" fill="#156082"/><path d="M542 306 542 368.974 540 368.974 540 306ZM545 367.641 541 375.641 537 367.641Z" fill="#156082"/><path d="M618 306 618 368.974 616 368.974 616 306ZM621 367.641 617 375.641 613 367.641Z" fill="#156082"/><path d="M694 306 694 368.974 692 368.974 692 306ZM697 367.641 693 375.641 689 367.641Z" fill="#156082"/><path d="M772 306 772 368.974 770 368.974 770 306ZM775 367.641 771 375.641 767 367.641Z" fill="#156082"/><text font-family="Aptos,Aptos_MSFontService,sans-serif" font-weight="400" font-size="24" transform="translate(838.526 342)">s</text><text font-family="Aptos,Aptos_MSFontService,sans-serif" font-weight="400" font-size="24" transform="translate(850.053 342)">td::</text><text font-family="Aptos,Aptos_MSFontService,sans-serif" font-weight="400" font-size="24" transform="translate(884.933 342)">make_shared</text><text font-family="Aptos,Aptos_MSFontService,sans-serif" font-weight="400" font-size="24" transform="translate(1024.53 342)">&lt;Node&gt;(id,</text><text font-family="Aptos,Aptos_MSFontService,sans-serif" font-weight="400" font-size="24" transform="translate(1144.37 342)">pixels)</text><path d="M0.124628-0.992203 2.72757-0.665255 5.41028 0.333413 8.032 1.94084 10.5955 4.11863 13.1079 6.83927 15.5746 10.0815 17.9976 13.8265 20.3769 18.0562 22.7105 22.7526 24.9957 27.8971 27.2289 33.4714 29.4061 39.4563 31.5231 45.8331 33.577 52.5874 37.468 67.1208 41.0467 82.9176 44.2736 99.8161 47.1102 117.66 49.518 136.291 51.4585 155.554 52.8926 175.29 53.7817 195.342 53.9859 208.873 51.9861 208.903 51.7822 195.387 51.783 195.416 50.8952 175.392 50.8969 175.421 49.4647 155.712 49.4671 155.74 47.5295 136.505 47.5327 136.533 45.1285 117.93 45.1327 117.959 42.3008 100.145 42.3061 100.176 39.0854 83.3095 39.0924 83.3429 35.5218 67.5816 35.5311 67.6193 31.6494 53.1209 31.6586 53.1532 29.6133 46.427 29.6209 46.4512 27.5124 40.0999 27.5217 40.1267 25.3549 34.1702 25.3664 34.2002 23.146 28.6581 23.1604 28.6921 20.8915 23.5842 20.9099 23.6232 18.5972 18.9692 18.6212 19.0144 16.2696 14.834 16.3016 14.887 13.9161 11.1999 13.9598 11.2621 11.5451 8.08817 11.6063 8.16112 9.16724 5.51998 9.25445 5.60366 6.79599 3.51508 6.92074 3.60549 4.44769 2.08922 4.62152 2.17387 2.13875 1.24963 2.363 1.30467-0.124628 0.992203ZM56.9654 207.495 53.0866 215.554 48.9664 207.615Z" fill="#156082" transform="matrix(-1 1.22465e-16 1.22465e-16 1 286.087 50)"/><path d="M605.025 196 620.596 196.39 636.069 197.527 651.296 199.362 666.158 201.845 680.534 204.925 694.303 208.555 707.344 212.684 719.538 217.264 730.764 222.248 740.902 227.588 749.835 233.239 757.428 239.148 760.707 242.206 763.599 245.308 766.097 248.46 768.185 251.658 769.862 254.93 770.751 257.982 768.83 258.542 767.968 255.581 768.038 255.757 766.429 252.617 766.482 252.708 764.447 249.592 764.501 249.667 762.056 246.582 762.108 246.643 759.268 243.596 759.317 243.645 756.097 240.642 756.165 240.699 748.645 234.847 748.724 234.903 739.867 229.299 739.935 229.339 729.861 224.033 729.921 224.062 718.753 219.104 718.807 219.126 706.665 214.566 706.715 214.583 693.722 210.469 693.769 210.482 680.047 206.865 680.092 206.876 665.762 203.805 665.806 203.814 650.989 201.339 651.034 201.345 635.852 199.516 635.899 199.52 620.474 198.386 620.522 198.389 604.975 198ZM773.467 256.197 771.049 264.809 765.611 257.708Z" fill="#156082"/></g></svg>