<svg width="1280" height="720" xmlns="http://www.w3.org/2000/svg" xmlns:xlink="http://www.w3.org/1999/xlink" overflow="hidden"><g><rect x="0" y="0" width="1280" height="720" fill="#FFFFFF"/><path d="M356 176.5C356 165.178 365.178 156 376.5 156 387.822 156 397 165.178 397 176.5 397 187.822 387.822 197 376.5 197 365.178 197 356 187.822 356 176.5Z" stroke="#042433" stroke-width="2" stroke-miterlimit="8" fill="#156082" fill-rule="evenodd"/><text fill="#FFFFFF" font-family="Aptos,Aptos_MSFontService,sans-serif" font-weight="400" font-size="24" transform="translate(369.817 184)">0</text><path d="M282 230.5C282 219.178 291.178 210 302.5 210 313.822 210 323 219.178 323 230.5 323 241.822 313.822 251 302.5 251 291.178 251 282 241.822 282 230.5Z" stroke="#042433" stroke-width="2" stroke-miterlimit="8" fill="#156082" fill-rule="evenodd"/><text fill="#FFFFFF" font-family="Aptos,Aptos_MSFontService,sans-serif" font-weight="400" font-size="24" transform="translate(295.844 238)">1</text><path d="M356 297.5C356 286.178 365.178 277 376.5 277 387.822 277 397 286.178 397 297.5 397 308.822 387.822 318 376.5 318 365.178 318 356 308.822 356 297.5Z" stroke="#042433" stroke-width="2" stroke-miterlimit="8" fill="#156082" fill-rule="evenodd"/><text fill="#FFFFFF" font-family="Aptos,Aptos_MSFontService,sans-serif" font-weight="400" font-size="24" transform="translate(369.817 305)">3</text><path d="M445 241.5C445 230.178 454.178 221 465.5 221 476.822 221 486 230.178 486 241.5 486 252.822 476.822 262 465.5 262 454.178 262 445 252.822 445 241.5Z" stroke="#042433" stroke-width="2" stroke-miterlimit="8" fill="#156082" fill-rule="evenodd"/><text fill="#FFFFFF" font-family="Aptos,Aptos_MSFontService,sans-serif" font-weight="400" font-size="24" transform="translate(458.812 249)">2</text><path d="M273 367.5C273 356.178 282.178 347 293.5 347 304.822 347 314 356.178 314 367.5 314 378.822 304.822 388 293.5 388 282.178 388 273 378.822 273 367.5Z" stroke="#042433" stroke-width="2" stroke-miterlimit="8" fill="#156082" fill-rule="evenodd"/><text fill="#FFFFFF" font-family="Aptos,Aptos_MSFontService,sans-serif" font-weight="400" font-size="24" transform="translate(287.28 375)">4</text><path d="M445 367.5C445 356.178 454.178 347 465.5 347 476.822 347 486 356.178 486 367.5 486 378.822 476.822 388 465.5 388 454.178 388 445 378.822 445 367.5Z" stroke="#042433" stroke-width="2" stroke-miterlimit="8" fill="#156082" fill-rule="evenodd"/><text fill="#FFFFFF" font-family="Aptos,Aptos_MSFontService,sans-serif" font-weight="400" font-size="24" transform="translate(458.812 375)">5</text><path d="M356 450.5C356 439.178 365.178 430 376.5 430 387.822 430 397 439.178 397 450.5 397 461.822 387.822 471 376.5 471 365.178 471 356 461.822 356 450.5Z" stroke="#042433" stroke-width="2" stroke-miterlimit="8" fill="#156082" fill-rule="evenodd"/><text fill="#FFFFFF" font-family="Aptos,Aptos_MSFontService,sans-serif" font-weight="400" font-size="24" transform="translate(369.817 459)">6</text><path d="M532 450.5C532 439.178 541.178 430 552.5 430 563.822 430 573 439.178 573 450.5 573 461.822 563.822 471 552.5 471 541.178 471 532 461.822 532 450.5Z" stroke="#042433" stroke-width="2" stroke-miterlimit="8" fill="#156082" fill-rule="evenodd"/><text fill="#FFFFFF" font-family="Aptos,Aptos_MSFontService,sans-serif" font-weight="400" font-size="24" transform="translate(545.717 459)">7</text><path d="M0 0 45.0541 24.9627" stroke="#156082" stroke-width="2" stroke-miterlimit="8" fill="none" fill-rule="evenodd" transform="matrix(1 0 0 -1 317 215.963)"/><path d="M376 197 376 277.386" stroke="#156082" stroke-width="2" stroke-miterlimit="8" fill="none" fill-rule="evenodd"/><path d="M391 191 451.078 227.317" stroke="#156082" stroke-width="2" stroke-miterlimit="8" fill="none" fill-rule="evenodd"/><path d="M0 0 53.6187 40.6061" stroke="#156082" stroke-width="2" stroke-miterlimit="8" fill="none" fill-rule="evenodd" transform="matrix(-1 0 0 1 361.619 312)"/><path d="M391 312 451.078 352.606" stroke="#156082" stroke-width="2" stroke-miterlimit="8" fill="none" fill-rule="evenodd"/><path d="M465 262 465 346.676" stroke="#156082" stroke-width="2" stroke-miterlimit="8" fill="none" fill-rule="evenodd"/><path d="M0 0 60.0776 54.7962" stroke="#156082" stroke-width="2" stroke-miterlimit="8" fill="none" fill-rule="evenodd" transform="matrix(-1 0 0 1 451.078 382)"/><path d="M376 318 376 430.342" stroke="#156082" stroke-width="2" stroke-miterlimit="8" fill="none" fill-rule="evenodd"/><path d="M361.619 436.796 308 382" stroke="#156082" stroke-width="2" stroke-miterlimit="8" fill="none" fill-rule="evenodd"/><path d="M0 0 135.004 0.000104987" stroke="#156082" stroke-width="2" stroke-miterlimit="8" fill="none" fill-rule="evenodd" transform="matrix(1 0 0 -1 397 451)"/><path d="M480 382 537.987 436.796" stroke="#156082" stroke-width="2" stroke-miterlimit="8" fill="none" fill-rule="evenodd"/><path d="M317 245 362.054 283.484" stroke="#156082" stroke-width="2" stroke-miterlimit="8" fill="none" fill-rule="evenodd"/><path d="M0 0 60.0776 27.1297" stroke="#156082" stroke-width="2" stroke-miterlimit="8" fill="none" fill-rule="evenodd" transform="matrix(1 0 0 -1 391 283.13)"/><path d="M826 91.5C826 80.1782 835.178 71 846.5 71 857.822 71 867 80.1782 867 91.5 867 102.822 857.822 112 846.5 112 835.178 112 826 102.822 826 91.5Z" stroke="#042433" stroke-width="2" stroke-miterlimit="8" fill="#156082" fill-rule="evenodd"/><text fill="#FFFFFF" font-family="Aptos,Aptos_MSFontService,sans-serif" font-weight="400" font-size="24" transform="translate(840.204 99)">0</text><rect x="734" y="164" width="51" height="50" stroke="#042433" stroke-width="2" stroke-miterlimit="8" fill="#156082"/><text fill="#FFFFFF" font-family="Aptos,Aptos_MSFontService,sans-serif" font-weight="400" font-size="24" transform="translate(753.233 196)">1</text><rect x="821" y="164" width="51" height="50" stroke="#042433" stroke-width="2" stroke-miterlimit="8" fill="#156082"/><text fill="#FFFFFF" font-family="Aptos,Aptos_MSFontService,sans-serif" font-weight="400" font-size="24" transform="translate(840.204 196)">2</text><rect x="915" y="164" width="50" height="50" stroke="#042433" stroke-width="2" stroke-miterlimit="8" fill="#156082"/><text fill="#FFFFFF" font-family="Aptos,Aptos_MSFontService,sans-serif" font-weight="400" font-size="24" transform="translate(933.544 196)">3</text><path d="M765 274.5C765 263.178 773.954 254 785 254 796.046 254 805 263.178 805 274.5 805 285.822 796.046 295 785 295 773.954 295 765 285.822 765 274.5Z" stroke="#042433" stroke-width="2" stroke-miterlimit="8" fill="#156082" fill-rule="evenodd"/><text fill="#FFFFFF" font-family="Aptos,Aptos_MSFontService,sans-serif" font-weight="400" font-size="24" transform="translate(778.574 283)">1</text><rect x="673" y="347" width="50" height="51" stroke="#042433" stroke-width="2" stroke-miterlimit="8" fill="#156082"/><text fill="#FFFFFF" font-family="Aptos,Aptos_MSFontService,sans-serif" font-weight="400" font-size="24" transform="translate(691.603 380)">0</text><rect x="760" y="347" width="50" height="51" stroke="#042433" stroke-width="2" stroke-miterlimit="8" fill="#156082"/><text fill="#FFFFFF" font-family="Aptos,Aptos_MSFontService,sans-serif" font-weight="400" font-size="24" transform="translate(778.574 380)">3</text><path d="M0 0 72.5116 57.6157" stroke="#156082" stroke-width="2" stroke-miterlimit="8" fill="none" fill-rule="evenodd" transform="matrix(-1 0 0 1 832.512 106)"/><path d="M847 112 847 163.627" stroke="#156082" stroke-width="2" stroke-miterlimit="8" fill="none" fill-rule="evenodd"/><path d="M861 106 939.882 163.616" stroke="#156082" stroke-width="2" stroke-miterlimit="8" fill="none" fill-rule="evenodd"/><path d="M785 295 785 346.627" stroke="#156082" stroke-width="2" stroke-miterlimit="8" fill="none" fill-rule="evenodd"/><path d="M0 0 72.5116 57.6157" stroke="#156082" stroke-width="2" stroke-miterlimit="8" fill="none" fill-rule="evenodd" transform="matrix(-1 0 0 1 770.512 289)"/><path d="M876 442.5C876 431.178 885.178 422 896.5 422 907.822 422 917 431.178 917 442.5 917 453.822 907.822 463 896.5 463 885.178 463 876 453.822 876 442.5Z" stroke="#042433" stroke-width="2" stroke-miterlimit="8" fill="#156082" fill-rule="evenodd"/><text fill="#FFFFFF" font-family="Aptos,Aptos_MSFontService,sans-serif" font-weight="400" font-size="24" transform="translate(889.685 450)">3</text><rect x="784" y="515" width="50" height="50" stroke="#042433" stroke-width="2" stroke-miterlimit="8" fill="#156082"/><text fill="#FFFFFF" font-family="Aptos,Aptos_MSFontService,sans-serif" font-weight="400" font-size="24" transform="translate(802.714 548)">0</text><rect x="871" y="515" width="50" height="50" stroke="#042433" stroke-width="2" stroke-miterlimit="8" fill="#156082"/><text fill="#FFFFFF" font-family="Aptos,Aptos_MSFontService,sans-serif" font-weight="400" font-size="24" transform="translate(889.685 548)">1</text><rect x="964" y="515" width="51" height="50" stroke="#042433" stroke-width="2" stroke-miterlimit="8" fill="#156082"/><text fill="#FFFFFF" font-family="Aptos,Aptos_MSFontService,sans-serif" font-weight="400" font-size="24" transform="translate(983.025 548)">2</text><path d="M0 0 72.5116 57.6157" stroke="#156082" stroke-width="2" stroke-miterlimit="8" fill="none" fill-rule="evenodd" transform="matrix(-1 0 0 1 881.512 457)"/><path d="M896 463 896 514.627" stroke="#156082" stroke-width="2" stroke-miterlimit="8" fill="none" fill-rule="evenodd"/><path d="M911 457 989.882 514.616" stroke="#156082" stroke-width="2" stroke-miterlimit="8" fill="none" fill-rule="evenodd"/><rect x="870" y="326" width="51" height="50" stroke="#042433" stroke-width="2" stroke-miterlimit="8" fill="#156082"/><text fill="#FFFFFF" font-family="Aptos,Aptos_MSFontService,sans-serif" font-weight="400" font-size="24" transform="translate(889.36 359)">6</text><rect x="964" y="326" width="51" height="50" stroke="#042433" stroke-width="2" stroke-miterlimit="8" fill="#156082"/><text fill="#FFFFFF" font-family="Aptos,Aptos_MSFontService,sans-serif" font-weight="400" font-size="24" transform="translate(983.041 359)">5</text><rect x="964" y="417" width="51" height="51" stroke="#042433" stroke-width="2" stroke-miterlimit="8" fill="#156082"/><text fill="#FFFFFF" font-family="Aptos,Aptos_MSFontService,sans-serif" font-weight="400" font-size="24" transform="translate(983.025 450)">4</text><path d="M896.324 421.789 896 376" stroke="#156082" stroke-width="2" stroke-miterlimit="8" fill="none" fill-rule="evenodd"/><path d="M0 0 53.5406 52.7225" stroke="#156082" stroke-width="2" stroke-miterlimit="8" fill="none" fill-rule="evenodd" transform="matrix(1 0 0 -1 911 427.723)"/><path d="M0 0 47.5515 0.000104987" stroke="#156082" stroke-width="2" stroke-miterlimit="8" fill="none" fill-rule="evenodd" transform="matrix(1 0 0 -1 917 443)"/><text font-family="Aptos,Aptos_MSFontService,sans-serif" font-weight="400" font-size="24" transform="translate(226.56 79)">a</text><text font-family="Aptos,Aptos_MSFontService,sans-serif" font-weight="400" font-size="24" transform="translate(624 79)">b</text></g></svg>