<svg width="1280" height="720" xmlns="http://www.w3.org/2000/svg" xmlns:xlink="http://www.w3.org/1999/xlink" overflow="hidden"><g><rect x="0" y="0" width="1280" height="720" fill="#FFFFFF"/><path d="M197 57C197 45.9543 206.178 37 217.5 37 228.822 37 238 45.9543 238 57 238 68.0457 228.822 77 217.5 77 206.178 77 197 68.0457 197 57Z" stroke="#042433" stroke-width="2" stroke-miterlimit="8" fill="#156082" fill-rule="evenodd"/><text fill="#FFFFFF" font-family="Aptos,Aptos_MSFontService,sans-serif" font-weight="400" font-size="24" transform="translate(210.868 65)">0</text><path d="M123 110.5C123 99.1782 132.178 90 143.5 90 154.822 90 164 99.1782 164 110.5 164 121.822 154.822 131 143.5 131 132.178 131 123 121.822 123 110.5Z" stroke="#042433" stroke-width="2" stroke-miterlimit="8" fill="#156082" fill-rule="evenodd"/><text fill="#FFFFFF" font-family="Aptos,Aptos_MSFontService,sans-serif" font-weight="400" font-size="24" transform="translate(136.896 118)">1</text><path d="M197 178.5C197 167.178 206.178 158 217.5 158 228.822 158 238 167.178 238 178.5 238 189.822 228.822 199 217.5 199 206.178 199 197 189.822 197 178.5Z" stroke="#042433" stroke-width="2" stroke-miterlimit="8" fill="#156082" fill-rule="evenodd"/><text fill="#FFFFFF" font-family="Aptos,Aptos_MSFontService,sans-serif" font-weight="400" font-size="24" transform="translate(210.868 186)">3</text><path d="M286 122.5C286 111.178 295.178 102 306.5 102 317.822 102 327 111.178 327 122.5 327 133.822 317.822 143 306.5 143 295.178 143 286 133.822 286 122.5Z" stroke="#042433" stroke-width="2" stroke-miterlimit="8" fill="#156082" fill-rule="evenodd"/><text fill="#FFFFFF" font-family="Aptos,Aptos_MSFontService,sans-serif" font-weight="400" font-size="24" transform="translate(299.864 130)">2</text><path d="M114 247.5C114 236.178 123.178 227 134.5 227 145.822 227 155 236.178 155 247.5 155 258.822 145.822 268 134.5 268 123.178 268 114 258.822 114 247.5Z" stroke="#042433" stroke-width="2" stroke-miterlimit="8" fill="#156082" fill-rule="evenodd"/><text fill="#FFFFFF" font-family="Aptos,Aptos_MSFontService,sans-serif" font-weight="400" font-size="24" transform="translate(128.331 255)">4</text><path d="M286 247.5C286 236.178 295.178 227 306.5 227 317.822 227 327 236.178 327 247.5 327 258.822 317.822 268 306.5 268 295.178 268 286 258.822 286 247.5Z" stroke="#042433" stroke-width="2" stroke-miterlimit="8" fill="#156082" fill-rule="evenodd"/><text fill="#FFFFFF" font-family="Aptos,Aptos_MSFontService,sans-serif" font-weight="400" font-size="24" transform="translate(299.864 255)">5</text><path d="M197 331.5C197 320.178 206.178 311 217.5 311 228.822 311 238 320.178 238 331.5 238 342.822 228.822 352 217.5 352 206.178 352 197 342.822 197 331.5Z" stroke="#042433" stroke-width="2" stroke-miterlimit="8" fill="#156082" fill-rule="evenodd"/><text fill="#FFFFFF" font-family="Aptos,Aptos_MSFontService,sans-serif" font-weight="400" font-size="24" transform="translate(210.868 339)">6</text><path d="M373 331.5C373 320.178 382.178 311 393.5 311 404.822 311 414 320.178 414 331.5 414 342.822 404.822 352 393.5 352 382.178 352 373 342.822 373 331.5Z" stroke="#042433" stroke-width="2" stroke-miterlimit="8" fill="#156082" fill-rule="evenodd"/><text fill="#FFFFFF" font-family="Aptos,Aptos_MSFontService,sans-serif" font-weight="400" font-size="24" transform="translate(386.769 339)">7</text><path d="M0 0 45.0541 24.9627" stroke="#156082" stroke-width="2" stroke-miterlimit="8" fill="none" fill-rule="evenodd" transform="matrix(1 0 0 -1 158 95.9627)"/><path d="M217 77 217 157.386" stroke="#156082" stroke-width="2" stroke-miterlimit="8" fill="none" fill-rule="evenodd"/><path d="M232 71 292.078 107.317" stroke="#156082" stroke-width="2" stroke-miterlimit="8" fill="none" fill-rule="evenodd"/><path d="M0 0 53.6187 40.6061" stroke="#156082" stroke-width="2" stroke-miterlimit="8" fill="none" fill-rule="evenodd" transform="matrix(-1 0 0 1 202.619 193)"/><path d="M232 193 292.078 233.606" stroke="#156082" stroke-width="2" stroke-miterlimit="8" fill="none" fill-rule="evenodd"/><path d="M306 143 306 227.676" stroke="#156082" stroke-width="2" stroke-miterlimit="8" fill="none" fill-rule="evenodd"/><path d="M0 0 60.0776 54.7962" stroke="#156082" stroke-width="2" stroke-miterlimit="8" fill="none" fill-rule="evenodd" transform="matrix(-1 0 0 1 292.078 262)"/><path d="M217 199 217 311.342" stroke="#156082" stroke-width="2" stroke-miterlimit="8" fill="none" fill-rule="evenodd"/><path d="M202.619 316.796 149 262" stroke="#156082" stroke-width="2" stroke-miterlimit="8" fill="none" fill-rule="evenodd"/><path d="M0 0 135.004 0.000104987" stroke="#156082" stroke-width="2" stroke-miterlimit="8" fill="none" fill-rule="evenodd" transform="matrix(1 0 0 -1 238 332)"/><path d="M321 262 378.987 316.796" stroke="#156082" stroke-width="2" stroke-miterlimit="8" fill="none" fill-rule="evenodd"/><path d="M158 125 203.054 163.484" stroke="#156082" stroke-width="2" stroke-miterlimit="8" fill="none" fill-rule="evenodd"/><path d="M0 0 60.0776 27.1297" stroke="#156082" stroke-width="2" stroke-miterlimit="8" fill="none" fill-rule="evenodd" transform="matrix(1 0 0 -1 232 164.13)"/><path d="M196.259 14.4003C199.555 9.65087 206.077 8.47258 210.827 11.7686L353.709 110.925C358.459 114.221 359.637 120.743 356.341 125.493L332.47 159.89C329.174 164.64 322.652 165.818 317.903 162.522L175.02 63.3655C170.271 60.0695 169.092 53.5474 172.388 48.7979Z" stroke="#042433" stroke-width="2" stroke-miterlimit="8" stroke-dasharray="8 6" fill="none" fill-rule="evenodd"/><path d="M577 63C577 51.9543 586.178 43 597.5 43 608.822 43 618 51.9543 618 63 618 74.0457 608.822 83 597.5 83 586.178 83 577 74.0457 577 63Z" stroke="#042433" stroke-width="2" stroke-miterlimit="8" fill="#156082" fill-rule="evenodd"/><text fill="#FFFFFF" font-family="Aptos,Aptos_MSFontService,sans-serif" font-weight="400" font-size="24" transform="translate(591.117 71)">0</text><path d="M503 116.5C503 105.178 512.178 96 523.5 96 534.822 96 544 105.178 544 116.5 544 127.822 534.822 137 523.5 137 512.178 137 503 127.822 503 116.5Z" stroke="#042433" stroke-width="2" stroke-miterlimit="8" fill="#156082" fill-rule="evenodd"/><text fill="#FFFFFF" font-family="Aptos,Aptos_MSFontService,sans-serif" font-weight="400" font-size="24" transform="translate(517.145 124)">1</text><path d="M577 184.5C577 173.178 586.178 164 597.5 164 608.822 164 618 173.178 618 184.5 618 195.822 608.822 205 597.5 205 586.178 205 577 195.822 577 184.5Z" stroke="#042433" stroke-width="2" stroke-miterlimit="8" fill="#156082" fill-rule="evenodd"/><text fill="#FFFFFF" font-family="Aptos,Aptos_MSFontService,sans-serif" font-weight="400" font-size="24" transform="translate(591.117 192)">3</text><path d="M666 128.5C666 117.178 675.178 108 686.5 108 697.822 108 707 117.178 707 128.5 707 139.822 697.822 149 686.5 149 675.178 149 666 139.822 666 128.5Z" stroke="#042433" stroke-width="2" stroke-miterlimit="8" fill="#156082" fill-rule="evenodd"/><text fill="#FFFFFF" font-family="Aptos,Aptos_MSFontService,sans-serif" font-weight="400" font-size="24" transform="translate(680.113 136)">2</text><path d="M495 253.5C495 242.178 503.954 233 515 233 526.046 233 535 242.178 535 253.5 535 264.822 526.046 274 515 274 503.954 274 495 264.822 495 253.5Z" stroke="#042433" stroke-width="2" stroke-miterlimit="8" fill="#156082" fill-rule="evenodd"/><text fill="#FFFFFF" font-family="Aptos,Aptos_MSFontService,sans-serif" font-weight="400" font-size="24" transform="translate(508.581 261)">4</text><path d="M666 253.5C666 242.178 675.178 233 686.5 233 697.822 233 707 242.178 707 253.5 707 264.822 697.822 274 686.5 274 675.178 274 666 264.822 666 253.5Z" stroke="#042433" stroke-width="2" stroke-miterlimit="8" fill="#156082" fill-rule="evenodd"/><text fill="#FFFFFF" font-family="Aptos,Aptos_MSFontService,sans-serif" font-weight="400" font-size="24" transform="translate(680.113 261)">5</text><path d="M577 337.5C577 326.178 586.178 317 597.5 317 608.822 317 618 326.178 618 337.5 618 348.822 608.822 358 597.5 358 586.178 358 577 348.822 577 337.5Z" stroke="#042433" stroke-width="2" stroke-miterlimit="8" fill="#156082" fill-rule="evenodd"/><text fill="#FFFFFF" font-family="Aptos,Aptos_MSFontService,sans-serif" font-weight="400" font-size="24" transform="translate(591.117 345)">6</text><path d="M753 337.5C753 326.178 762.178 317 773.5 317 784.822 317 794 326.178 794 337.5 794 348.822 784.822 358 773.5 358 762.178 358 753 348.822 753 337.5Z" stroke="#042433" stroke-width="2" stroke-miterlimit="8" fill="#156082" fill-rule="evenodd"/><text fill="#FFFFFF" font-family="Aptos,Aptos_MSFontService,sans-serif" font-weight="400" font-size="24" transform="translate(767.018 345)">7</text><path d="M0 0 45.0541 24.9627" stroke="#156082" stroke-width="2" stroke-miterlimit="8" fill="none" fill-rule="evenodd" transform="matrix(1 0 0 -1 538 101.963)"/><path d="M598 83 598 163.386" stroke="#156082" stroke-width="2" stroke-miterlimit="8" fill="none" fill-rule="evenodd"/><path d="M612 77 672.078 113.317" stroke="#156082" stroke-width="2" stroke-miterlimit="8" fill="none" fill-rule="evenodd"/><path d="M0 0 53.6187 40.6061" stroke="#156082" stroke-width="2" stroke-miterlimit="8" fill="none" fill-rule="evenodd" transform="matrix(-1 0 0 1 582.619 199)"/><path d="M612 199 672.078 239.606" stroke="#156082" stroke-width="2" stroke-miterlimit="8" fill="none" fill-rule="evenodd"/><path d="M687 149 687 233.676" stroke="#156082" stroke-width="2" stroke-miterlimit="8" fill="none" fill-rule="evenodd"/><path d="M0 0 60.0776 54.7962" stroke="#156082" stroke-width="2" stroke-miterlimit="8" fill="none" fill-rule="evenodd" transform="matrix(-1 0 0 1 672.078 268)"/><path d="M598 205 598 317.342" stroke="#156082" stroke-width="2" stroke-miterlimit="8" fill="none" fill-rule="evenodd"/><path d="M582.619 322.796 529 268" stroke="#156082" stroke-width="2" stroke-miterlimit="8" fill="none" fill-rule="evenodd"/><path d="M0 0 135.004 0.000104987" stroke="#156082" stroke-width="2" stroke-miterlimit="8" fill="none" fill-rule="evenodd" transform="matrix(1 0 0 -1 618 337)"/><path d="M701 268 758.987 322.796" stroke="#156082" stroke-width="2" stroke-miterlimit="8" fill="none" fill-rule="evenodd"/><path d="M538 131 583.054 169.484" stroke="#156082" stroke-width="2" stroke-miterlimit="8" fill="none" fill-rule="evenodd"/><path d="M0 0 60.0776 27.1297" stroke="#156082" stroke-width="2" stroke-miterlimit="8" fill="none" fill-rule="evenodd" transform="matrix(1 0 0 -1 612 170.13)"/><path d="M576.508 20.3894C579.805 15.6399 586.327 14.4617 591.076 17.7577L733.959 116.914C738.708 120.21 739.886 126.732 736.59 131.482L712.719 165.879C709.423 170.629 702.901 171.807 698.152 168.511L555.269 69.3546C550.52 66.0586 549.342 59.5364 552.638 54.787Z" stroke="#042433" stroke-width="2" stroke-miterlimit="8" stroke-dasharray="8 6" fill="none" fill-rule="evenodd"/><path d="M558.472 74.2222 565.481 81.231 572.49 74.2222 580.791 82.5235 573.783 89.5323 580.791 96.5412 572.49 104.842 565.481 97.8336 558.472 104.842 550.171 96.5412 557.18 89.5323 550.171 82.5235Z" stroke="#FF0000" stroke-width="2" stroke-miterlimit="8" fill="#FF0000" fill-rule="evenodd"/><path d="M590.525 116.514 597.534 123.523 604.543 116.514 612.844 124.815 605.836 131.824 612.844 138.833 604.543 147.134 597.534 140.126 590.525 147.134 582.224 138.833 589.233 131.824 582.224 124.815Z" stroke="#FF0000" stroke-width="2" stroke-miterlimit="8" fill="#FF0000" fill-rule="evenodd"/><path d="M641.39 79.9984 648.398 87.0072 655.407 79.9984 663.709 88.2997 656.7 95.3085 663.709 102.317 655.407 110.619 648.398 103.61 641.39 110.619 633.088 102.317 640.097 95.3085 633.088 88.2997Z" stroke="#FF0000" stroke-width="2" stroke-miterlimit="8" fill="#FF0000" fill-rule="evenodd"/><path d="M932 57C932 45.9543 941.178 37 952.5 37 963.822 37 973 45.9543 973 57 973 68.0457 963.822 77 952.5 77 941.178 77 932 68.0457 932 57Z" stroke="#042433" stroke-width="2" stroke-miterlimit="8" fill="#156082" fill-rule="evenodd"/><text fill="#FFFFFF" font-family="Aptos,Aptos_MSFontService,sans-serif" font-weight="400" font-size="24" transform="translate(945.655 65)">0</text><path d="M858 110.5C858 99.1782 867.178 90 878.5 90 889.822 90 899 99.1782 899 110.5 899 121.822 889.822 131 878.5 131 867.178 131 858 121.822 858 110.5Z" stroke="#042433" stroke-width="2" stroke-miterlimit="8" fill="#156082" fill-rule="evenodd"/><text fill="#FFFFFF" font-family="Aptos,Aptos_MSFontService,sans-serif" font-weight="400" font-size="24" transform="translate(871.683 118)">1</text><path d="M932 178.5C932 167.178 941.178 158 952.5 158 963.822 158 973 167.178 973 178.5 973 189.822 963.822 199 952.5 199 941.178 199 932 189.822 932 178.5Z" stroke="#042433" stroke-width="2" stroke-miterlimit="8" fill="#156082" fill-rule="evenodd"/><text fill="#FFFFFF" font-family="Aptos,Aptos_MSFontService,sans-serif" font-weight="400" font-size="24" transform="translate(945.655 186)">3</text><path d="M1021 122.5C1021 111.178 1030.18 102 1041.5 102 1052.82 102 1062 111.178 1062 122.5 1062 133.822 1052.82 143 1041.5 143 1030.18 143 1021 133.822 1021 122.5Z" stroke="#042433" stroke-width="2" stroke-miterlimit="8" fill="#156082" fill-rule="evenodd"/><text fill="#FFFFFF" font-family="Aptos,Aptos_MSFontService,sans-serif" font-weight="400" font-size="24" transform="translate(1034.65 130)">2</text><path d="M849 247.5C849 236.178 858.178 227 869.5 227 880.822 227 890 236.178 890 247.5 890 258.822 880.822 268 869.5 268 858.178 268 849 258.822 849 247.5Z" stroke="#042433" stroke-width="2" stroke-miterlimit="8" fill="#156082" fill-rule="evenodd"/><text fill="#FFFFFF" font-family="Aptos,Aptos_MSFontService,sans-serif" font-weight="400" font-size="24" transform="translate(863.118 255)">4</text><path d="M1021 247.5C1021 236.178 1030.18 227 1041.5 227 1052.82 227 1062 236.178 1062 247.5 1062 258.822 1052.82 268 1041.5 268 1030.18 268 1021 258.822 1021 247.5Z" stroke="#042433" stroke-width="2" stroke-miterlimit="8" fill="#156082" fill-rule="evenodd"/><text fill="#FFFFFF" font-family="Aptos,Aptos_MSFontService,sans-serif" font-weight="400" font-size="24" transform="translate(1034.65 255)">5</text><path d="M932 331.5C932 320.178 941.178 311 952.5 311 963.822 311 973 320.178 973 331.5 973 342.822 963.822 352 952.5 352 941.178 352 932 342.822 932 331.5Z" stroke="#042433" stroke-width="2" stroke-miterlimit="8" fill="#156082" fill-rule="evenodd"/><text fill="#FFFFFF" font-family="Aptos,Aptos_MSFontService,sans-serif" font-weight="400" font-size="24" transform="translate(945.655 339)">6</text><path d="M1108 331.5C1108 320.178 1116.95 311 1128 311 1139.05 311 1148 320.178 1148 331.5 1148 342.822 1139.05 352 1128 352 1116.95 352 1108 342.822 1108 331.5Z" stroke="#042433" stroke-width="2" stroke-miterlimit="8" fill="#156082" fill-rule="evenodd"/><text fill="#FFFFFF" font-family="Aptos,Aptos_MSFontService,sans-serif" font-weight="400" font-size="24" transform="translate(1121.56 339)">7</text><path d="M0 0 53.6187 40.6061" stroke="#156082" stroke-width="2" stroke-miterlimit="8" fill="none" fill-rule="evenodd" transform="matrix(-1 0 0 1 937.619 193)"/><path d="M967 193 1027.08 233.606" stroke="#156082" stroke-width="2" stroke-miterlimit="8" fill="none" fill-rule="evenodd"/><path d="M1041 143 1041 227.676" stroke="#156082" stroke-width="2" stroke-miterlimit="8" fill="none" fill-rule="evenodd"/><path d="M0 0 60.0776 54.7962" stroke="#156082" stroke-width="2" stroke-miterlimit="8" fill="none" fill-rule="evenodd" transform="matrix(-1 0 0 1 1027.08 262)"/><path d="M952 199 952 311.342" stroke="#156082" stroke-width="2" stroke-miterlimit="8" fill="none" fill-rule="evenodd"/><path d="M937.619 316.796 884 262" stroke="#156082" stroke-width="2" stroke-miterlimit="8" fill="none" fill-rule="evenodd"/><path d="M0 0 135.004 0.000104987" stroke="#156082" stroke-width="2" stroke-miterlimit="8" fill="none" fill-rule="evenodd" transform="matrix(1 0 0 -1 973 332)"/><path d="M1056 262 1113.99 316.796" stroke="#156082" stroke-width="2" stroke-miterlimit="8" fill="none" fill-rule="evenodd"/><path d="M893 125 938.054 163.484" stroke="#156082" stroke-width="2" stroke-miterlimit="8" fill="none" fill-rule="evenodd"/><path d="M0 0 60.0776 27.1297" stroke="#156082" stroke-width="2" stroke-miterlimit="8" fill="none" fill-rule="evenodd" transform="matrix(1 0 0 -1 967 164.13)"/><path d="M931.046 14.4002C934.342 9.65076 940.864 8.47248 945.614 11.7685L1088.5 110.925C1093.25 114.221 1094.42 120.743 1091.13 125.492L1067.26 159.89C1063.96 164.639 1057.44 165.818 1052.69 162.522L909.807 63.3654C905.057 60.0694 903.879 53.5473 907.175 48.7978Z" stroke="#042433" stroke-width="2" stroke-miterlimit="8" stroke-dasharray="8 6" fill="none" fill-rule="evenodd"/><path d="M0.328731 0.944424-0.776037 1.32897-0.389805 1.0837-1.48593 2.2046-1.34214 2.01782-2.42098 3.82599-2.36121 3.70895-3.41413 6.15529-3.3846 6.07802-3.54159 6.54596-5.43772 5.90983-5.26756 5.40263-4.17224 2.85778-2.99884 0.891137-1.65543-0.482632-0.328731-0.944424ZM-5.25243 12.2344-5.3614 12.6339-5.35099 12.5922-6.27428 16.6586-6.26728 16.6251-6.90941 19.9802-8.87376 19.6043-8.22842 16.2324-7.29658 12.1284-7.18195 11.7081ZM-7.89661 25.8691-7.91877 26.006-7.9151 25.9814-8.63098 31.2259-8.62703 31.1929-8.88961 33.7476-10.8791 33.5432-10.6149 30.9719-9.89504 25.6986-9.87089 25.5494ZM-9.50306 39.7162-9.79087 42.5164-9.78754 42.4759-10.1077 47.6511-12.1038 47.5276-11.7825 42.3322-11.4926 39.5117ZM-10.4781 53.6396-10.5366 54.5849-10.5349 54.5444-10.6844 61.5957-12.6839 61.5533-12.534 54.4817-12.4743 53.5161ZM-10.7778 67.5312-10.4453 75.5243-12.4435 75.6074-12.776 67.6143ZM-10.0416 81.4271-9.07769 89.3688-11.0631 89.6098-12.027 81.6681ZM-8.07088 95.2001-6.54593 102.761-6.56024 102.7-6.48613 102.977-8.41803 103.495-8.50026 103.188-10.0314 95.5955ZM-4.90888 108.718-3.61111 112.802-3.62799 112.753-2.322 116.231-4.19432 116.934-5.50938 113.432-6.81496 109.323ZM0.0333999 121.602 1.7357 124.783 1.68928 124.705 3.68753 127.74 3.52857 127.553 4.08705 128.066 2.73444 129.539 2.08495 128.943-0.00622232 125.766-1.72996 122.545ZM6.35986 126.63 11.354 134.05 2.42141 133.593Z" fill="#156082" transform="matrix(1.83697e-16 1 1 -1.83697e-16 893 96.0001)"/><path d="M140 397.5C140 386.178 149.178 377 160.5 377 171.822 377 181 386.178 181 397.5 181 408.822 171.822 418 160.5 418 149.178 418 140 408.822 140 397.5Z" stroke="#042433" stroke-width="2" stroke-miterlimit="8" fill="#156082" fill-rule="evenodd"/><text fill="#FFFFFF" font-family="Aptos,Aptos_MSFontService,sans-serif" font-weight="400" font-size="24" transform="translate(153.906 405)">1</text><path d="M214 465.5C214 454.178 223.178 445 234.5 445 245.822 445 255 454.178 255 465.5 255 476.822 245.822 486 234.5 486 223.178 486 214 476.822 214 465.5Z" stroke="#042433" stroke-width="2" stroke-miterlimit="8" fill="#156082" fill-rule="evenodd"/><text fill="#FFFFFF" font-family="Aptos,Aptos_MSFontService,sans-serif" font-weight="400" font-size="24" transform="translate(227.879 473)">3</text><path d="M303 409C303 397.954 312.178 389 323.5 389 334.822 389 344 397.954 344 409 344 420.046 334.822 429 323.5 429 312.178 429 303 420.046 303 409Z" stroke="#042433" stroke-width="2" stroke-miterlimit="8" fill="#156082" fill-rule="evenodd"/><text fill="#FFFFFF" font-family="Aptos,Aptos_MSFontService,sans-serif" font-weight="400" font-size="24" transform="translate(316.874 417)">2</text><path d="M131 534.5C131 523.178 140.178 514 151.5 514 162.822 514 172 523.178 172 534.5 172 545.822 162.822 555 151.5 555 140.178 555 131 545.822 131 534.5Z" stroke="#042433" stroke-width="2" stroke-miterlimit="8" fill="#156082" fill-rule="evenodd"/><text fill="#FFFFFF" font-family="Aptos,Aptos_MSFontService,sans-serif" font-weight="400" font-size="24" transform="translate(145.342 542)">4</text><path d="M303 534.5C303 523.178 312.178 514 323.5 514 334.822 514 344 523.178 344 534.5 344 545.822 334.822 555 323.5 555 312.178 555 303 545.822 303 534.5Z" stroke="#042433" stroke-width="2" stroke-miterlimit="8" fill="#156082" fill-rule="evenodd"/><text fill="#FFFFFF" font-family="Aptos,Aptos_MSFontService,sans-serif" font-weight="400" font-size="24" transform="translate(316.874 542)">5</text><path d="M214 618.5C214 607.178 223.178 598 234.5 598 245.822 598 255 607.178 255 618.5 255 629.822 245.822 639 234.5 639 223.178 639 214 629.822 214 618.5Z" stroke="#042433" stroke-width="2" stroke-miterlimit="8" fill="#156082" fill-rule="evenodd"/><text fill="#FFFFFF" font-family="Aptos,Aptos_MSFontService,sans-serif" font-weight="400" font-size="24" transform="translate(227.879 626)">6</text><path d="M390 618.5C390 607.178 399.178 598 410.5 598 421.822 598 431 607.178 431 618.5 431 629.822 421.822 639 410.5 639 399.178 639 390 629.822 390 618.5Z" stroke="#042433" stroke-width="2" stroke-miterlimit="8" fill="#156082" fill-rule="evenodd"/><text fill="#FFFFFF" font-family="Aptos,Aptos_MSFontService,sans-serif" font-weight="400" font-size="24" transform="translate(403.779 626)">7</text><path d="M0 0 53.6187 40.6061" stroke="#156082" stroke-width="2" stroke-miterlimit="8" fill="none" fill-rule="evenodd" transform="matrix(-1 0 0 1 219.619 480)"/><path d="M249 480 309.078 520.606" stroke="#156082" stroke-width="2" stroke-miterlimit="8" fill="none" fill-rule="evenodd"/><path d="M323 429 323 513.676" stroke="#156082" stroke-width="2" stroke-miterlimit="8" fill="none" fill-rule="evenodd"/><path d="M0 0 60.0776 54.7962" stroke="#156082" stroke-width="2" stroke-miterlimit="8" fill="none" fill-rule="evenodd" transform="matrix(-1 0 0 1 309.078 549)"/><path d="M234 486 234 598.342" stroke="#156082" stroke-width="2" stroke-miterlimit="8" fill="none" fill-rule="evenodd"/><path d="M219.619 603.796 166 549" stroke="#156082" stroke-width="2" stroke-miterlimit="8" fill="none" fill-rule="evenodd"/><path d="M0 0 135.004 0.000104987" stroke="#156082" stroke-width="2" stroke-miterlimit="8" fill="none" fill-rule="evenodd" transform="matrix(1 0 0 -1 255 618)"/><path d="M338 549 395.987 603.796" stroke="#156082" stroke-width="2" stroke-miterlimit="8" fill="none" fill-rule="evenodd"/><path d="M175 412 220.054 450.484" stroke="#156082" stroke-width="2" stroke-miterlimit="8" fill="none" fill-rule="evenodd"/><path d="M0 0 60.0776 27.1297" stroke="#156082" stroke-width="2" stroke-miterlimit="8" fill="none" fill-rule="evenodd" transform="matrix(1 0 0 -1 249 451.13)"/><path d="M181 398 303.072 409.354" stroke="#156082" stroke-width="2" stroke-miterlimit="8" fill="none" fill-rule="evenodd"/><rect x="547" y="405" width="450" height="213" stroke="#042433" stroke-width="2" stroke-miterlimit="8" fill="none"/><path d="M547 499C585.791 484.52 624.581 470.04 633.379 454.374 642.177 438.707 612.904 412.279 599.787 405" stroke="#042433" stroke-width="2" stroke-miterlimit="8" fill="none" fill-rule="evenodd"/><path d="M635 449.365C657.887 472.17 680.775 494.975 704.108 487.581 727.442 480.187 751.221 442.593 775 405" stroke="#042433" stroke-width="2" stroke-miterlimit="8" fill="none" fill-rule="evenodd"/><path d="M604 476C640.42 490.436 676.84 504.871 689.439 528.371 702.039 551.871 690.819 584.436 679.598 617" stroke="#042433" stroke-width="2" stroke-miterlimit="8" fill="none" fill-rule="evenodd"/><path d="M695 552C759.463 550.458 823.926 548.917 847.509 524.416 871.092 499.916 853.794 452.458 836.496 405" stroke="#042433" stroke-width="2" stroke-miterlimit="8" fill="none" fill-rule="evenodd"/><path d="M856 510.131C887.048 526.188 918.095 542.245 941.595 533.557 965.095 524.868 981.048 491.434 997 458" stroke="#042433" stroke-width="2" stroke-miterlimit="8" fill="none" fill-rule="evenodd"/><path d="M811 543C838.32 551.024 865.64 559.048 896.64 561.294 927.64 563.541 962.32 560.011 997 556.48" stroke="#042433" stroke-width="2" stroke-miterlimit="8" fill="none" fill-rule="evenodd"/><path d="M849 554C811.684 567.318 774.368 580.637 761.119 591.137 747.87 601.637 758.687 609.318 769.505 617" stroke="#042433" stroke-width="2" stroke-miterlimit="8" fill="none" fill-rule="evenodd"/><text font-family="Aptos,Aptos_MSFontService,sans-serif" font-weight="400" font-size="24" transform="translate(679.003 440)">1</text><text font-family="Aptos,Aptos_MSFontService,sans-serif" font-weight="400" font-size="24" transform="translate(748.367 512)">3</text><text font-family="Aptos,Aptos_MSFontService,sans-serif" font-weight="400" font-size="24" transform="translate(903.614 465)">4</text><text font-family="Aptos,Aptos_MSFontService,sans-serif" font-weight="400" font-size="24" transform="translate(718.676 591)">5</text><text font-family="Aptos,Aptos_MSFontService,sans-serif" font-weight="400" font-size="24" transform="translate(862.079 548)">6</text><text font-family="Aptos,Aptos_MSFontService,sans-serif" font-weight="400" font-size="24" transform="translate(862.079 602)">7</text><rect x="548" y="465" width="57" height="38" fill="#FFFFFF"/><text font-family="Aptos,Aptos_MSFontService,sans-serif" font-weight="400" font-size="24" transform="translate(568.744 508)">2</text><text font-family="Aptos,Aptos_MSFontService,sans-serif" font-weight="400" font-size="24" transform="translate(68.16 49)">a</text><text font-family="Aptos,Aptos_MSFontService,sans-serif" font-weight="400" font-size="24" transform="translate(463.36 49)">b</text><text font-family="Aptos,Aptos_MSFontService,sans-serif" font-weight="400" font-size="24" transform="translate(826.887 49)">c</text><text font-family="Aptos,Aptos_MSFontService,sans-serif" font-weight="400" font-size="24" transform="translate(68.16 387)">d</text><text font-family="Aptos,Aptos_MSFontService,sans-serif" font-weight="400" font-size="24" transform="translate(479.87 387)">e</text></g></svg>