<?xml version="1.0" encoding="UTF-8" standalone="no"?>
<!DOCTYPE svg PUBLIC "-//W3C//DTD SVG 1.1//EN"
 "http://www.w3.org/Graphics/SVG/1.1/DTD/svg11.dtd">
<!-- Generated by graphviz version 2.42.4 (0)
 -->
<!-- Title: Graph Pages: 1 -->
<svg width="262pt" height="673pt"
 viewBox="0.00 0.00 261.50 673.00" xmlns="http://www.w3.org/2000/svg" xmlns:xlink="http://www.w3.org/1999/xlink">
<g id="graph0" class="graph" transform="scale(1 1) rotate(0) translate(4 669)">
<title>Graph</title>
<!-- Node1 -->
<g id="Node000001" class="node">
<title>Node1</title>
<g id="a_Node000001"><a xlink:title=" ">
<polygon fill="#999999" stroke="transparent" points="209,-255 54,-255 54,0 209,0 209,-255"/>
<text text-anchor="start" x="117" y="-242.5" font-family="Helvetica,sans-Serif" font-size="10.00">Graph</text>
<text text-anchor="start" x="58.5" y="-227.5" font-family="Helvetica,sans-Serif" font-size="10.00">#</text>
<text text-anchor="start" x="71.5" y="-227.5" font-family="Helvetica,sans-Serif" font-size="10.00">m_width</text>
<text text-anchor="start" x="58.5" y="-212.5" font-family="Helvetica,sans-Serif" font-size="10.00">#</text>
<text text-anchor="start" x="71.5" y="-212.5" font-family="Helvetica,sans-Serif" font-size="10.00">m_height</text>
<text text-anchor="start" x="58.5" y="-197.5" font-family="Helvetica,sans-Serif" font-size="10.00">+</text>
<text text-anchor="start" x="71.5" y="-197.5" font-family="Helvetica,sans-Serif" font-size="10.00">Graph()</text>
<text text-anchor="start" x="58.5" y="-182.5" font-family="Helvetica,sans-Serif" font-size="10.00">+</text>
<text text-anchor="start" x="71.5" y="-182.5" font-family="Helvetica,sans-Serif" font-size="10.00">~Graph()</text>
<text text-anchor="start" x="58.5" y="-167.5" font-family="Helvetica,sans-Serif" font-size="10.00">+</text>
<text text-anchor="start" x="71.5" y="-167.5" font-family="Helvetica,sans-Serif" font-size="10.00">add_edge()</text>
<text text-anchor="start" x="58.5" y="-152.5" font-family="Helvetica,sans-Serif" font-size="10.00">+</text>
<text text-anchor="start" x="71.5" y="-152.5" font-family="Helvetica,sans-Serif" font-size="10.00">merge_nodes()</text>
<text text-anchor="start" x="58.5" y="-137.5" font-family="Helvetica,sans-Serif" font-size="10.00">+</text>
<text text-anchor="start" x="71.5" y="-137.5" font-family="Helvetica,sans-Serif" font-size="10.00">clear_unconnected_nodes()</text>
<text text-anchor="start" x="58.5" y="-122.5" font-family="Helvetica,sans-Serif" font-size="10.00">+</text>
<text text-anchor="start" x="71.5" y="-122.5" font-family="Helvetica,sans-Serif" font-size="10.00">get_nodes()</text>
<text text-anchor="start" x="58.5" y="-107.5" font-family="Helvetica,sans-Serif" font-size="10.00">+</text>
<text text-anchor="start" x="71.5" y="-107.5" font-family="Helvetica,sans-Serif" font-size="10.00">all_areas_bigger_than()</text>
<text text-anchor="start" x="58.5" y="-92.5" font-family="Helvetica,sans-Serif" font-size="10.00">+</text>
<text text-anchor="start" x="71.5" y="-92.5" font-family="Helvetica,sans-Serif" font-size="10.00">size()</text>
<text text-anchor="start" x="58.5" y="-77.5" font-family="Helvetica,sans-Serif" font-size="10.00">+</text>
<text text-anchor="start" x="71.5" y="-77.5" font-family="Helvetica,sans-Serif" font-size="10.00">discover_edges()</text>
<text text-anchor="start" x="58.5" y="-62.5" font-family="Helvetica,sans-Serif" font-size="10.00">+</text>
<text text-anchor="start" x="71.5" y="-62.5" font-family="Helvetica,sans-Serif" font-size="10.00">merge_small_area_nodes()</text>
<text text-anchor="start" x="58.5" y="-47.5" font-family="Helvetica,sans-Serif" font-size="10.00">+</text>
<text text-anchor="start" x="71.5" y="-47.5" font-family="Helvetica,sans-Serif" font-size="10.00">compute_contours()</text>
<text text-anchor="start" x="58.5" y="-32.5" font-family="Helvetica,sans-Serif" font-size="10.00">#</text>
<text text-anchor="start" x="71.5" y="-32.5" font-family="Helvetica,sans-Serif" font-size="10.00">hash_node_ids()</text>
<text text-anchor="start" x="58.5" y="-17.5" font-family="Helvetica,sans-Serif" font-size="10.00">#</text>
<text text-anchor="start" x="71.5" y="-17.5" font-family="Helvetica,sans-Serif" font-size="10.00">process_overlapping</text>
<text text-anchor="start" x="71.5" y="-6.5" font-family="Helvetica,sans-Serif" font-size="10.00">_edges()</text>
<polygon fill="#666666" stroke="#666666" points="54.5,-237.5 54.5,-237.5 209.5,-237.5 209.5,-237.5 54.5,-237.5"/>
<polygon fill="#666666" stroke="#666666" points="54.5,-207.5 54.5,-207.5 69.5,-207.5 69.5,-207.5 54.5,-207.5"/>
<polygon fill="#666666" stroke="#666666" points="69.5,-207.5 69.5,-207.5 209.5,-207.5 209.5,-207.5 69.5,-207.5"/>
<polygon fill="none" stroke="#666666" points="54,0 54,-255 209,-255 209,0 54,0"/>
</a>
</g>
</g>
<!-- Node2 -->
<g id="Node000002" class="node">
<title>Node2</title>
<g id="a_Node000002"><a xlink:title=" ">
<polygon fill="white" stroke="transparent" points="127,-369.5 2,-369.5 2,-309.5 127,-309.5 127,-369.5"/>
<text text-anchor="start" x="7.5" y="-357.5" font-family="Helvetica,sans-Serif" font-size="10.00">std::unique_ptr&lt; std</text>
<text text-anchor="start" x="7.5" y="-346.5" font-family="Helvetica,sans-Serif" font-size="10.00">::vector&lt; Node_ptr &gt; &gt;</text>
<text text-anchor="start" x="63" y="-331.5" font-family="Helvetica,sans-Serif" font-size="10.00"> </text>
<text text-anchor="start" x="17" y="-316.5" font-family="Helvetica,sans-Serif" font-size="10.00">+</text>
<text text-anchor="start" x="40.5" y="-316.5" font-family="Helvetica,sans-Serif" font-size="10.00">operator&#45;&gt;()</text>
<polygon fill="#666666" stroke="#666666" points="2.5,-341.5 2.5,-341.5 127.5,-341.5 127.5,-341.5 2.5,-341.5"/>
<polygon fill="#666666" stroke="#666666" points="2.5,-326.5 2.5,-326.5 127.5,-326.5 127.5,-326.5 2.5,-326.5"/>
<polygon fill="none" stroke="#666666" points="2,-309.5 2,-369.5 127,-369.5 127,-309.5 2,-309.5"/>
</a>
</g>
</g>
<!-- Node2&#45;&gt;Node1 -->
<g id="edge1_Node000001_Node000002" class="edge">
<title>Node2&#45;&gt;Node1</title>
<g id="a_edge1_Node000001_Node000002"><a xlink:title=" ">
<path fill="none" stroke="#63b8ff" d="M73.82,-309.3C77.61,-297.42 82.28,-282.77 87.32,-266.99"/>
<polygon fill="none" stroke="#63b8ff" points="87.39,-266.76 85.4,-259.82 91.04,-255.32 93.02,-262.26 87.39,-266.76"/>
</a>
</g>
<text text-anchor="middle" x="112.5" y="-276" font-family="Helvetica,sans-Serif" font-size="10.00" fill="grey"> #m_nodes</text>
</g>
<!-- Node3 -->
<g id="Node000003" class="node">
<title>Node3</title>
<g id="a_Node000003"><a xlink:title=" ">
<polygon fill="white" stroke="transparent" points="129,-473 0,-473 0,-424 129,-424 129,-473"/>
<text text-anchor="start" x="5.5" y="-460.5" font-family="Helvetica,sans-Serif" font-size="10.00">std::vector&lt; Node_ptr &gt;</text>
<text text-anchor="start" x="63" y="-445.5" font-family="Helvetica,sans-Serif" font-size="10.00"> </text>
<text text-anchor="start" x="63" y="-430.5" font-family="Helvetica,sans-Serif" font-size="10.00"> </text>
<polygon fill="#666666" stroke="#666666" points="0.5,-455.5 0.5,-455.5 129.5,-455.5 129.5,-455.5 0.5,-455.5"/>
<polygon fill="#666666" stroke="#666666" points="0.5,-440.5 0.5,-440.5 129.5,-440.5 129.5,-440.5 0.5,-440.5"/>
<polygon fill="none" stroke="#666666" points="0,-424 0,-473 129,-473 129,-424 0,-424"/>
</a>
</g>
</g>
<!-- Node3&#45;&gt;Node2 -->
<g id="edge2_Node000002_Node000003" class="edge">
<title>Node3&#45;&gt;Node2</title>
<g id="a_edge2_Node000002_Node000003"><a xlink:title=" ">
<path fill="none" stroke="#63b8ff" d="M64.5,-423.75C64.5,-411.37 64.5,-395.87 64.5,-381.62"/>
<polygon fill="none" stroke="#63b8ff" points="64.5,-381.52 60.5,-375.52 64.5,-369.52 68.5,-375.52 64.5,-381.52"/>
</a>
</g>
<text text-anchor="middle" x="77" y="-398" font-family="Helvetica,sans-Serif" font-size="10.00" fill="grey"> +ptr</text>
</g>
<!-- Node4 -->
<g id="Node000004" class="node">
<title>Node4</title>
<g id="a_Node000004"><a xlink:title=" ">
<polygon fill="white" stroke="transparent" points="120.5,-569 8.5,-569 8.5,-520 120.5,-520 120.5,-569"/>
<text text-anchor="start" x="13.5" y="-556.5" font-family="Helvetica,sans-Serif" font-size="10.00">std::shared_ptr&lt; T &gt;</text>
<text text-anchor="start" x="62.5" y="-541.5" font-family="Helvetica,sans-Serif" font-size="10.00"> </text>
<text text-anchor="start" x="20" y="-526.5" font-family="Helvetica,sans-Serif" font-size="10.00">+</text>
<text text-anchor="start" x="40.5" y="-526.5" font-family="Helvetica,sans-Serif" font-size="10.00">operator&#45;&gt;()</text>
<polygon fill="#666666" stroke="#666666" points="8.5,-551.5 8.5,-551.5 120.5,-551.5 120.5,-551.5 8.5,-551.5"/>
<polygon fill="#666666" stroke="#666666" points="8.5,-536.5 8.5,-536.5 120.5,-536.5 120.5,-536.5 8.5,-536.5"/>
<polygon fill="none" stroke="#666666" points="8.5,-520 8.5,-569 120.5,-569 120.5,-520 8.5,-520"/>
</a>
</g>
</g>
<!-- Node4&#45;&gt;Node3 -->
<g id="edge3_Node000003_Node000004" class="edge">
<title>Node4&#45;&gt;Node3</title>
<g id="a_edge3_Node000003_Node000004"><a xlink:title=" ">
<path fill="none" stroke="#63b8ff" d="M64.5,-519.78C64.5,-509.32 64.5,-496.79 64.5,-485.23"/>
<polygon fill="none" stroke="#63b8ff" points="64.5,-485.21 60.5,-479.21 64.5,-473.21 68.5,-479.21 64.5,-485.21"/>
</a>
</g>
<text text-anchor="middle" x="93.5" y="-494" font-family="Helvetica,sans-Serif" font-size="10.00" fill="grey"> +elements</text>
</g>
<!-- Node5 -->
<g id="Node000005" class="node">
<title>Node5</title>
<g id="a_Node000005"><a xlink:title=" ">
<polygon fill="white" stroke="transparent" points="73,-665 56,-665 56,-616 73,-616 73,-665"/>
<text text-anchor="start" x="61.5" y="-652.5" font-family="Helvetica,sans-Serif" font-size="10.00">T</text>
<text text-anchor="start" x="63" y="-637.5" font-family="Helvetica,sans-Serif" font-size="10.00"> </text>
<text text-anchor="start" x="63" y="-622.5" font-family="Helvetica,sans-Serif" font-size="10.00"> </text>
<polygon fill="#bfbfbf" stroke="#bfbfbf" points="56.5,-647.5 56.5,-647.5 73.5,-647.5 73.5,-647.5 56.5,-647.5"/>
<polygon fill="#bfbfbf" stroke="#bfbfbf" points="56.5,-632.5 56.5,-632.5 73.5,-632.5 73.5,-632.5 56.5,-632.5"/>
<polygon fill="none" stroke="#bfbfbf" points="56,-616 56,-665 73,-665 73,-616 56,-616"/>
</a>
</g>
</g>
<!-- Node5&#45;&gt;Node4 -->
<g id="edge4_Node000004_Node000005" class="edge">
<title>Node5&#45;&gt;Node4</title>
<g id="a_edge4_Node000004_Node000005"><a xlink:title=" ">
<path fill="none" stroke="#63b8ff" d="M64.5,-615.78C64.5,-605.32 64.5,-592.79 64.5,-581.23"/>
<polygon fill="none" stroke="#63b8ff" points="64.5,-581.21 60.5,-575.21 64.5,-569.21 68.5,-575.21 64.5,-581.21"/>
</a>
</g>
<text text-anchor="middle" x="77" y="-590" font-family="Helvetica,sans-Serif" font-size="10.00" fill="grey"> +ptr</text>
</g>
<!-- Node6 -->
<g id="Node000006" class="node">
<title>Node6</title>
<g id="a_Node000006"><a xlink:title=" ">
<polygon fill="white" stroke="transparent" points="253.5,-377 145.5,-377 145.5,-302 253.5,-302 253.5,-377"/>
<text text-anchor="start" x="150.5" y="-364.5" font-family="Helvetica,sans-Serif" font-size="10.00">std::unordered_map</text>
<text text-anchor="start" x="151" y="-353.5" font-family="Helvetica,sans-Serif" font-size="10.00">&lt; int32_t, int32_t &gt;</text>
<text text-anchor="start" x="159.5" y="-338.5" font-family="Helvetica,sans-Serif" font-size="10.00">+</text>
<text text-anchor="start" x="182.5" y="-338.5" font-family="Helvetica,sans-Serif" font-size="10.00">keys</text>
<text text-anchor="start" x="159.5" y="-323.5" font-family="Helvetica,sans-Serif" font-size="10.00">+</text>
<text text-anchor="start" x="182.5" y="-323.5" font-family="Helvetica,sans-Serif" font-size="10.00">elements</text>
<text text-anchor="start" x="197.5" y="-308.5" font-family="Helvetica,sans-Serif" font-size="10.00"> </text>
<polygon fill="#666666" stroke="#666666" points="145.5,-348.5 145.5,-348.5 253.5,-348.5 253.5,-348.5 145.5,-348.5"/>
<polygon fill="#666666" stroke="#666666" points="145.5,-318.5 145.5,-318.5 180.5,-318.5 180.5,-318.5 145.5,-318.5"/>
<polygon fill="#666666" stroke="#666666" points="180.5,-318.5 180.5,-318.5 253.5,-318.5 253.5,-318.5 180.5,-318.5"/>
<polygon fill="none" stroke="#666666" points="145.5,-302 145.5,-377 253.5,-377 253.5,-302 145.5,-302"/>
</a>
</g>
</g>
<!-- Node6&#45;&gt;Node1 -->
<g id="edge5_Node000001_Node000006" class="edge">
<title>Node6&#45;&gt;Node1</title>
<g id="a_edge5_Node000001_Node000006"><a xlink:title=" ">
<path fill="none" stroke="#63b8ff" d="M187.66,-301.92C184.3,-291.57 180.45,-279.66 176.35,-267.02"/>
<polygon fill="none" stroke="#63b8ff" points="176.23,-266.65 170.58,-262.17 172.54,-255.23 178.19,-259.71 176.23,-266.65"/>
</a>
</g>
<text text-anchor="middle" x="215.5" y="-276" font-family="Helvetica,sans-Serif" font-size="10.00" fill="grey"> #m_node_ids</text>
</g>
</g>
</svg>
