<?xml version="1.0" encoding="UTF-8" standalone="no"?>
<!DOCTYPE svg PUBLIC "-//W3C//DTD SVG 1.1//EN"
 "http://www.w3.org/Graphics/SVG/1.1/DTD/svg11.dtd">
<!-- Generated by graphviz version 2.42.4 (0)
 -->
<!-- Title: Node Pages: 1 -->
<!--zoomable 894 -->

<svg id="main" version="1.1" xmlns="http://www.w3.org/2000/svg" xmlns:xlink="http://www.w3.org/1999/xlink" xml:space="preserve" onload="init(evt)">
<style type="text/css"><![CDATA[
.node, .edge {opacity: 0.7;}
.node.selected, .edge.selected {opacity: 1;}
.edge:hover path { stroke: red; }
.edge:hover polygon { stroke: red; fill: red; }
]]></style>

<defs>
  <circle id="rim" cx="0" cy="0" r="7"/>
  <circle id="rim2" cx="0" cy="0" r="3.5"/>
  <g id="zoomPlus">
    <use xlink:href="#rim" fill="#404040"><set attributeName="fill" to="#808080" begin="zoomplus.mouseover" end="zoomplus.mouseout"/></use>
    <path d="M-4,0h8M0,-4v8" fill="none" stroke="white" stroke-width="1.5" pointer-events="none"/>
  </g>
  <g id="zoomMin">
    <use xlink:href="#rim" fill="#404040"><set attributeName="fill" to="#808080" begin="zoomminus.mouseover" end="zoomminus.mouseout"/></use>
    <path d="M-4,0h8" fill="none" stroke="white" stroke-width="1.5" pointer-events="none"/>
  </g>
  <g id="arrowUp" transform="translate(30 24)">
    <use xlink:href="#rim"/>
    <path pointer-events="none" fill="none" stroke="white" stroke-width="1.5" d="M0,-3.0v7 M-2.5,-0.5L0,-3.0L2.5,-0.5"/>
  </g>
  <g id="arrowRight" transform="rotate(90) translate(36 -43)">
    <use xlink:href="#rim"/>
    <path pointer-events="none" fill="none" stroke="white" stroke-width="1.5" d="M0,-3.0v7 M-2.5,-0.5L0,-3.0L2.5,-0.5"/>
  </g>
  <g id="arrowDown" transform="rotate(180) translate(-30 -48)">
    <use xlink:href="#rim"/>
    <path pointer-events="none" fill="none" stroke="white" stroke-width="1.5" d="M0,-3.0v7 M-2.5,-0.5L0,-3.0L2.5,-0.5"/>
  </g>
  <g id="arrowLeft" transform="rotate(270) translate(-36 17)">
    <use xlink:href="#rim"/>
    <path pointer-events="none" fill="none" stroke="white" stroke-width="1.5" d="M0,-3.0v7 M-2.5,-0.5L0,-3.0L2.5,-0.5"/>
  </g>
  <g id="resetDef">
    <use xlink:href="#rim2" fill="#404040"><set attributeName="fill" to="#808080" begin="reset.mouseover" end="reset.mouseout"/></use>
  </g>
</defs>
<script type="application/ecmascript">
var viewWidth = 1007;
var viewHeight = 894;
var sectionId = 'dynsection-0';
</script>
<script type="application/ecmascript" xlink:href="svg.min.js"/>
<svg id="graph" class="graph">
<g id="viewport">
<title>Node</title>
<!-- Node1 -->
<g id="Node000001" class="node">
<title>Node1</title>
<g id="a_Node000001"><a xlink:title=" ">
<polygon fill="#999999" stroke="transparent" points="299,-199 167,-199 167,0 299,0 299,-199"/>
<text text-anchor="start" x="220" y="-186.5" font-family="Helvetica,sans-Serif" font-size="10.00">Node</text>
<text text-anchor="start" x="171" y="-171.5" font-family="Helvetica,sans-Serif" font-size="10.00">#</text>
<text text-anchor="start" x="184" y="-171.5" font-family="Helvetica,sans-Serif" font-size="10.00">m_id</text>
<text text-anchor="start" x="171" y="-156.5" font-family="Helvetica,sans-Serif" font-size="10.00">+</text>
<text text-anchor="start" x="184" y="-156.5" font-family="Helvetica,sans-Serif" font-size="10.00">Node()</text>
<text text-anchor="start" x="171" y="-141.5" font-family="Helvetica,sans-Serif" font-size="10.00">+</text>
<text text-anchor="start" x="184" y="-141.5" font-family="Helvetica,sans-Serif" font-size="10.00">centroid()</text>
<text text-anchor="start" x="171" y="-126.5" font-family="Helvetica,sans-Serif" font-size="10.00">+</text>
<text text-anchor="start" x="184" y="-126.5" font-family="Helvetica,sans-Serif" font-size="10.00">color()</text>
<text text-anchor="start" x="171" y="-111.5" font-family="Helvetica,sans-Serif" font-size="10.00">+</text>
<text text-anchor="start" x="184" y="-111.5" font-family="Helvetica,sans-Serif" font-size="10.00">bounding_box_xywh()</text>
<text text-anchor="start" x="171" y="-96.5" font-family="Helvetica,sans-Serif" font-size="10.00">+</text>
<text text-anchor="start" x="184" y="-96.5" font-family="Helvetica,sans-Serif" font-size="10.00">create_binary_image()</text>
<text text-anchor="start" x="171" y="-81.5" font-family="Helvetica,sans-Serif" font-size="10.00">+</text>
<text text-anchor="start" x="184" y="-81.5" font-family="Helvetica,sans-Serif" font-size="10.00">clear_contour()</text>
<text text-anchor="start" x="171" y="-66.5" font-family="Helvetica,sans-Serif" font-size="10.00">+</text>
<text text-anchor="start" x="184" y="-66.5" font-family="Helvetica,sans-Serif" font-size="10.00">compute_contour()</text>
<text text-anchor="start" x="171" y="-51.5" font-family="Helvetica,sans-Serif" font-size="10.00">+</text>
<text text-anchor="start" x="184" y="-51.5" font-family="Helvetica,sans-Serif" font-size="10.00">id()</text>
<text text-anchor="start" x="171" y="-36.5" font-family="Helvetica,sans-Serif" font-size="10.00">+</text>
<text text-anchor="start" x="184" y="-36.5" font-family="Helvetica,sans-Serif" font-size="10.00">area()</text>
<text text-anchor="start" x="171" y="-21.5" font-family="Helvetica,sans-Serif" font-size="10.00">+</text>
<text text-anchor="start" x="184" y="-21.5" font-family="Helvetica,sans-Serif" font-size="10.00">edges()</text>
<text text-anchor="start" x="184" y="-6.5" font-family="Helvetica,sans-Serif" font-size="10.00">and 10 more...</text>
<polygon fill="#666666" stroke="#666666" points="167,-181.5 167,-181.5 299,-181.5 299,-181.5 167,-181.5"/>
<polygon fill="#666666" stroke="#666666" points="167,-166.5 167,-166.5 182,-166.5 182,-166.5 167,-166.5"/>
<polygon fill="#666666" stroke="#666666" points="182,-166.5 182,-166.5 299,-166.5 299,-166.5 182,-166.5"/>
<polygon fill="none" stroke="#666666" points="167,0 167,-199 299,-199 299,0 167,0"/>
</a>
</g>
</g>
<!-- Node2 -->
<g id="Node000002" class="node">
<title>Node2</title>
<g id="a_Node000002"><a xlink:title=" ">
<polygon fill="white" stroke="transparent" points="170.5,-306 55.5,-306 55.5,-246 170.5,-246 170.5,-306"/>
<text text-anchor="start" x="61" y="-294" font-family="Helvetica,sans-Serif" font-size="10.00">std::unique_ptr&lt; std</text>
<text text-anchor="start" x="61" y="-283" font-family="Helvetica,sans-Serif" font-size="10.00">::vector&lt; RGBXY &gt; &gt;</text>
<text text-anchor="start" x="111.5" y="-268" font-family="Helvetica,sans-Serif" font-size="10.00"> </text>
<text text-anchor="start" x="68" y="-253" font-family="Helvetica,sans-Serif" font-size="10.00">+</text>
<text text-anchor="start" x="89" y="-253" font-family="Helvetica,sans-Serif" font-size="10.00">operator&#45;&gt;()</text>
<polygon fill="#666666" stroke="#666666" points="56,-278 56,-278 171,-278 171,-278 56,-278"/>
<polygon fill="#666666" stroke="#666666" points="56,-263 56,-263 171,-263 171,-263 56,-263"/>
<polygon fill="none" stroke="#666666" points="55.5,-246 55.5,-306 170.5,-306 170.5,-246 55.5,-246"/>
</a>
</g>
</g>
<!-- Node2&#45;&gt;Node1 -->
<g id="edge1_Node000001_Node000002" class="edge">
<title>Node2&#45;&gt;Node1</title>
<g id="a_edge1_Node000001_Node000002"><a xlink:title=" ">
<path fill="none" stroke="#63b8ff" d="M120.11,-245.72C123.06,-236.22 126.99,-225.85 132,-217 139.73,-203.36 149.21,-189.86 159.23,-177.16"/>
<polygon fill="none" stroke="#63b8ff" points="159.42,-176.92 160.09,-169.74 166.98,-167.6 166.31,-174.78 159.42,-176.92"/>
</a>
</g>
<text text-anchor="middle" x="159.5" y="-220" font-family="Helvetica,sans-Serif" font-size="10.00" fill="grey"> #m_pixels</text>
</g>
<!-- Node3 -->
<g id="Node000003" class="node">
<title>Node3</title>
<g id="a_Node000003"><a xlink:title=" ">
<polygon fill="white" stroke="transparent" points="168.5,-407.5 49.5,-407.5 49.5,-358.5 168.5,-358.5 168.5,-407.5"/>
<text text-anchor="start" x="55" y="-395" font-family="Helvetica,sans-Serif" font-size="10.00">std::vector&lt; RGBXY &gt;</text>
<text text-anchor="start" x="107.5" y="-380" font-family="Helvetica,sans-Serif" font-size="10.00"> </text>
<text text-anchor="start" x="107.5" y="-365" font-family="Helvetica,sans-Serif" font-size="10.00"> </text>
<polygon fill="#666666" stroke="#666666" points="50,-390 50,-390 169,-390 169,-390 50,-390"/>
<polygon fill="#666666" stroke="#666666" points="50,-375 50,-375 169,-375 169,-375 50,-375"/>
<polygon fill="none" stroke="#666666" points="49.5,-358.5 49.5,-407.5 168.5,-407.5 168.5,-358.5 49.5,-358.5"/>
</a>
</g>
</g>
<!-- Node3&#45;&gt;Node2 -->
<g id="edge2_Node000002_Node000003" class="edge">
<title>Node3&#45;&gt;Node2</title>
<g id="a_edge2_Node000002_Node000003"><a xlink:title=" ">
<path fill="none" stroke="#63b8ff" d="M109.9,-358.44C110.35,-346.59 110.91,-331.87 111.43,-318.23"/>
<polygon fill="none" stroke="#63b8ff" points="111.43,-318.1 107.67,-311.95 111.89,-306.11 115.66,-312.26 111.43,-318.1"/>
</a>
</g>
<text text-anchor="middle" x="124.5" y="-327" font-family="Helvetica,sans-Serif" font-size="10.00" fill="grey"> +ptr</text>
</g>
<!-- Node4 -->
<g id="Node000004" class="node">
<title>Node4</title>
<g id="a_Node000004"><a xlink:href="structRGBXY.html" target="_top" xlink:title=" ">
<polygon fill="white" stroke="transparent" points="136.5,-575 73.5,-575 73.5,-526 136.5,-526 136.5,-575"/>
<text text-anchor="start" x="88.5" y="-562.5" font-family="Helvetica,sans-Serif" font-size="10.00">RGBXY</text>
<text text-anchor="start" x="103.5" y="-547.5" font-family="Helvetica,sans-Serif" font-size="10.00"> </text>
<text text-anchor="start" x="78" y="-532.5" font-family="Helvetica,sans-Serif" font-size="10.00">+</text>
<text text-anchor="start" x="91" y="-532.5" font-family="Helvetica,sans-Serif" font-size="10.00">RGBXY()</text>
<polygon fill="#bfbfbf" stroke="#bfbfbf" points="74,-557.5 74,-557.5 137,-557.5 137,-557.5 74,-557.5"/>
<polygon fill="#bfbfbf" stroke="#bfbfbf" points="74,-542.5 74,-542.5 137,-542.5 137,-542.5 74,-542.5"/>
<polygon fill="none" stroke="#bfbfbf" points="73.5,-526 73.5,-575 136.5,-575 136.5,-526 73.5,-526"/>
</a>
</g>
</g>
<!-- Node4&#45;&gt;Node3 -->
<g id="edge3_Node000003_Node000004" class="edge">
<title>Node4&#45;&gt;Node3</title>
<g id="a_edge3_Node000003_Node000004"><a xlink:title=" ">
<path fill="none" stroke="#63b8ff" d="M102.56,-525.85C100.48,-501.9 98.23,-463.82 101,-431 101.31,-427.32 101.76,-423.5 102.28,-419.7"/>
<polygon fill="none" stroke="#63b8ff" points="102.28,-419.67 99.26,-413.12 104.15,-407.81 107.17,-414.36 102.28,-419.67"/>
</a>
</g>
<text text-anchor="middle" x="130" y="-453" font-family="Helvetica,sans-Serif" font-size="10.00" fill="grey"> +elements</text>
</g>
<!-- Node5 -->
<g id="Node000005" class="node">
<title>Node5</title>
<g id="a_Node000005"><a xlink:href="structImageLib_1_1RGBPixel.html" target="_top" xlink:title=" ">
<polygon fill="white" stroke="transparent" points="129,-800 23,-800 23,-650 129,-650 129,-800"/>
<text text-anchor="start" x="28" y="-788" font-family="Helvetica,sans-Serif" font-size="10.00">ImageLib::RGBPixel</text>
<text text-anchor="start" x="47.5" y="-777" font-family="Helvetica,sans-Serif" font-size="10.00">&lt; uint8_t &gt;</text>
<text text-anchor="start" x="29.5" y="-762" font-family="Helvetica,sans-Serif" font-size="10.00">+</text>
<text text-anchor="start" x="45" y="-762" font-family="Helvetica,sans-Serif" font-size="10.00">red</text>
<text text-anchor="start" x="29.5" y="-747" font-family="Helvetica,sans-Serif" font-size="10.00">+</text>
<text text-anchor="start" x="45" y="-747" font-family="Helvetica,sans-Serif" font-size="10.00">green</text>
<text text-anchor="start" x="29.5" y="-732" font-family="Helvetica,sans-Serif" font-size="10.00">+</text>
<text text-anchor="start" x="45" y="-732" font-family="Helvetica,sans-Serif" font-size="10.00">blue</text>
<text text-anchor="start" x="29.5" y="-717" font-family="Helvetica,sans-Serif" font-size="10.00">+</text>
<text text-anchor="start" x="45" y="-717" font-family="Helvetica,sans-Serif" font-size="10.00">RGBPixel()</text>
<text text-anchor="start" x="29.5" y="-702" font-family="Helvetica,sans-Serif" font-size="10.00">+</text>
<text text-anchor="start" x="45" y="-702" font-family="Helvetica,sans-Serif" font-size="10.00">operator==()</text>
<text text-anchor="start" x="29.5" y="-687" font-family="Helvetica,sans-Serif" font-size="10.00">+</text>
<text text-anchor="start" x="45" y="-687" font-family="Helvetica,sans-Serif" font-size="10.00">operator!=()</text>
<text text-anchor="start" x="29.5" y="-672" font-family="Helvetica,sans-Serif" font-size="10.00">+</text>
<text text-anchor="start" x="45" y="-672" font-family="Helvetica,sans-Serif" font-size="10.00">setGray()</text>
<text text-anchor="start" x="29.5" y="-657" font-family="Helvetica,sans-Serif" font-size="10.00">+</text>
<text text-anchor="start" x="45" y="-657" font-family="Helvetica,sans-Serif" font-size="10.00">colorDistance()</text>
<polygon fill="#bfbfbf" stroke="#bfbfbf" points="23,-772 23,-772 129,-772 129,-772 23,-772"/>
<polygon fill="#bfbfbf" stroke="#bfbfbf" points="23,-727 23,-727 43,-727 43,-727 23,-727"/>
<polygon fill="#bfbfbf" stroke="#bfbfbf" points="43,-727 43,-727 129,-727 129,-727 43,-727"/>
<polygon fill="none" stroke="#bfbfbf" points="23,-650 23,-800 129,-800 129,-650 23,-650"/>
</a>
</g>
</g>
<!-- Node5&#45;&gt;Node4 -->
<g id="edge4_Node000004_Node000005" class="edge">
<title>Node5&#45;&gt;Node4</title>
<g id="a_edge4_Node000004_Node000005"><a xlink:title=" ">
<path fill="none" stroke="#63b8ff" d="M73.4,-649.95C74.02,-640.16 75.15,-630.3 77,-621 79.31,-609.38 83.52,-597.24 87.99,-586.41"/>
<polygon fill="none" stroke="#63b8ff" points="88.05,-586.26 86.79,-579.16 92.85,-575.26 94.12,-582.36 88.05,-586.26"/>
</a>
</g>
<text text-anchor="middle" x="95" y="-624" font-family="Helvetica,sans-Serif" font-size="10.00" fill="grey"> +color</text>
</g>
<!-- Node6 -->
<g id="Node000006" class="node">
<title>Node6</title>
<g id="a_Node000006"><a xlink:href="structImageLib_1_1Pixel.html" target="_top" xlink:title=" ">
<polygon fill="white" stroke="transparent" points="152,-886 0,-886 0,-837 152,-837 152,-886"/>
<text text-anchor="start" x="5" y="-873.5" font-family="Helvetica,sans-Serif" font-size="10.00">ImageLib::Pixel&lt; NumberT &gt;</text>
<text text-anchor="start" x="74" y="-858.5" font-family="Helvetica,sans-Serif" font-size="10.00"> </text>
<text text-anchor="start" x="26.5" y="-843.5" font-family="Helvetica,sans-Serif" font-size="10.00">+</text>
<text text-anchor="start" x="62" y="-843.5" font-family="Helvetica,sans-Serif" font-size="10.00">~Pixel()</text>
<polygon fill="#bfbfbf" stroke="#bfbfbf" points="0,-868.5 0,-868.5 152,-868.5 152,-868.5 0,-868.5"/>
<polygon fill="#bfbfbf" stroke="#bfbfbf" points="0,-853.5 0,-853.5 152,-853.5 152,-853.5 0,-853.5"/>
<polygon fill="none" stroke="#bfbfbf" points="0,-837 0,-886 152,-886 152,-837 0,-837"/>
</a>
</g>
</g>
<!-- Node6&#45;&gt;Node5 -->
<g id="edge5_Node000005_Node000006" class="edge">
<title>Node6&#45;&gt;Node5</title>
<g id="a_edge5_Node000005_Node000006"><a xlink:title=" ">
<path fill="none" stroke="#63b8ff" d="M76,-826.55C76,-818.35 76,-809.27 76,-800.01"/>
<polygon fill="none" stroke="#63b8ff" points="72.5,-826.76 76,-836.76 79.5,-826.76 72.5,-826.76"/>
</a>
</g>
</g>
<!-- Node7 -->
<g id="Node000007" class="node">
<title>Node7</title>
<g id="a_Node000007"><a xlink:href="structXY.html" target="_top" xlink:title=" ">
<polygon fill="white" stroke="transparent" points="237.5,-772 158.5,-772 158.5,-678 237.5,-678 237.5,-772"/>
<text text-anchor="start" x="192" y="-760" font-family="Helvetica,sans-Serif" font-size="10.00">XY</text>
<text text-anchor="start" x="163" y="-745" font-family="Helvetica,sans-Serif" font-size="10.00">+</text>
<text text-anchor="start" x="176" y="-745" font-family="Helvetica,sans-Serif" font-size="10.00">x</text>
<text text-anchor="start" x="163" y="-730" font-family="Helvetica,sans-Serif" font-size="10.00">+</text>
<text text-anchor="start" x="176" y="-730" font-family="Helvetica,sans-Serif" font-size="10.00">y</text>
<text text-anchor="start" x="163" y="-715" font-family="Helvetica,sans-Serif" font-size="10.00">+</text>
<text text-anchor="start" x="176" y="-715" font-family="Helvetica,sans-Serif" font-size="10.00">xy</text>
<text text-anchor="start" x="163" y="-700" font-family="Helvetica,sans-Serif" font-size="10.00">+</text>
<text text-anchor="start" x="176" y="-700" font-family="Helvetica,sans-Serif" font-size="10.00">XY()</text>
<text text-anchor="start" x="163" y="-685" font-family="Helvetica,sans-Serif" font-size="10.00">+</text>
<text text-anchor="start" x="176" y="-685" font-family="Helvetica,sans-Serif" font-size="10.00">operator&lt;()</text>
<polygon fill="#bfbfbf" stroke="#bfbfbf" points="159,-755 159,-755 238,-755 238,-755 159,-755"/>
<polygon fill="#bfbfbf" stroke="#bfbfbf" points="159,-710 159,-710 174,-710 174,-710 159,-710"/>
<polygon fill="#bfbfbf" stroke="#bfbfbf" points="174,-710 174,-710 238,-710 238,-710 174,-710"/>
<polygon fill="none" stroke="#bfbfbf" points="158.5,-678 158.5,-772 237.5,-772 237.5,-678 158.5,-678"/>
</a>
</g>
</g>
<!-- Node7&#45;&gt;Node4 -->
<g id="edge6_Node000004_Node000007" class="edge">
<title>Node7&#45;&gt;Node4</title>
<g id="a_edge6_Node000004_Node000007"><a xlink:title=" ">
<path fill="none" stroke="#63b8ff" d="M164.03,-677.98C154.27,-663.66 144.1,-647.54 136,-632 128.49,-617.58 121.77,-600.9 116.52,-586.49"/>
<polygon fill="none" stroke="#63b8ff" points="116.47,-586.32 110.7,-581.99 112.48,-575.01 118.25,-579.34 116.47,-586.32"/>
</a>
</g>
<text text-anchor="middle" x="161.5" y="-624" font-family="Helvetica,sans-Serif" font-size="10.00" fill="grey"> +position</text>
</g>
<!-- Node11 -->
<g id="Node000011" class="node">
<title>Node11</title>
<g id="a_Node000011"><a xlink:title=" ">
<polygon fill="white" stroke="transparent" points="250,-480 168,-480 168,-431 250,-431 250,-480"/>
<text text-anchor="start" x="173" y="-467.5" font-family="Helvetica,sans-Serif" font-size="10.00">std::set&lt; XY &gt;</text>
<text text-anchor="start" x="207" y="-452.5" font-family="Helvetica,sans-Serif" font-size="10.00"> </text>
<text text-anchor="start" x="207" y="-437.5" font-family="Helvetica,sans-Serif" font-size="10.00"> </text>
<polygon fill="#666666" stroke="#666666" points="168,-462.5 168,-462.5 250,-462.5 250,-462.5 168,-462.5"/>
<polygon fill="#666666" stroke="#666666" points="168,-447.5 168,-447.5 250,-447.5 250,-447.5 168,-447.5"/>
<polygon fill="none" stroke="#666666" points="168,-431 168,-480 250,-480 250,-431 168,-431"/>
</a>
</g>
</g>
<!-- Node7&#45;&gt;Node11 -->
<g id="edge11_Node000011_Node000007" class="edge">
<title>Node7&#45;&gt;Node11</title>
<g id="a_edge11_Node000011_Node000007"><a xlink:title=" ">
<path fill="none" stroke="#63b8ff" d="M199.9,-677.71C202.07,-625.11 205.55,-540.38 207.52,-492.49"/>
<polygon fill="none" stroke="#63b8ff" points="207.53,-492.29 203.78,-486.13 208.02,-480.3 211.77,-486.46 207.53,-492.29"/>
</a>
</g>
<text text-anchor="middle" x="220" y="-624" font-family="Helvetica,sans-Serif" font-size="10.00" fill="grey"> +keys</text>
</g>
<!-- Node8 -->
<g id="Node000008" class="node">
<title>Node8</title>
<g id="a_Node000008"><a xlink:title=" ">
<polygon fill="white" stroke="transparent" points="354.5,-300.5 241.5,-300.5 241.5,-251.5 354.5,-251.5 354.5,-300.5"/>
<text text-anchor="start" x="247" y="-288" font-family="Helvetica,sans-Serif" font-size="10.00">std::set&lt; Node_ptr &gt;</text>
<text text-anchor="start" x="296.5" y="-273" font-family="Helvetica,sans-Serif" font-size="10.00"> </text>
<text text-anchor="start" x="296.5" y="-258" font-family="Helvetica,sans-Serif" font-size="10.00"> </text>
<polygon fill="#666666" stroke="#666666" points="242,-283 242,-283 355,-283 355,-283 242,-283"/>
<polygon fill="#666666" stroke="#666666" points="242,-268 242,-268 355,-268 355,-268 242,-268"/>
<polygon fill="none" stroke="#666666" points="241.5,-251.5 241.5,-300.5 354.5,-300.5 354.5,-251.5 241.5,-251.5"/>
</a>
</g>
</g>
<!-- Node8&#45;&gt;Node1 -->
<g id="edge7_Node000001_Node000008" class="edge">
<title>Node8&#45;&gt;Node1</title>
<g id="a_edge7_Node000001_Node000008"><a xlink:title=" ">
<path fill="none" stroke="#63b8ff" d="M289.23,-251.47C285.05,-240.24 279.72,-225.91 274,-210.58"/>
<polygon fill="none" stroke="#63b8ff" points="273.98,-210.5 268.13,-206.28 269.79,-199.26 275.63,-203.49 273.98,-210.5"/>
</a>
</g>
<text text-anchor="middle" x="307" y="-220" font-family="Helvetica,sans-Serif" font-size="10.00" fill="grey"> #m_edges</text>
</g>
<!-- Node9 -->
<g id="Node000009" class="node">
<title>Node9</title>
<g id="a_Node000009"><a xlink:title=" ">
<polygon fill="white" stroke="transparent" points="356,-407.5 244,-407.5 244,-358.5 356,-358.5 356,-407.5"/>
<text text-anchor="start" x="249" y="-395" font-family="Helvetica,sans-Serif" font-size="10.00">std::shared_ptr&lt; T &gt;</text>
<text text-anchor="start" x="298" y="-380" font-family="Helvetica,sans-Serif" font-size="10.00"> </text>
<text text-anchor="start" x="255.5" y="-365" font-family="Helvetica,sans-Serif" font-size="10.00">+</text>
<text text-anchor="start" x="276" y="-365" font-family="Helvetica,sans-Serif" font-size="10.00">operator&#45;&gt;()</text>
<polygon fill="#666666" stroke="#666666" points="244,-390 244,-390 356,-390 356,-390 244,-390"/>
<polygon fill="#666666" stroke="#666666" points="244,-375 244,-375 356,-375 356,-375 244,-375"/>
<polygon fill="none" stroke="#666666" points="244,-358.5 244,-407.5 356,-407.5 356,-358.5 244,-358.5"/>
</a>
</g>
</g>
<!-- Node9&#45;&gt;Node8 -->
<g id="edge8_Node000008_Node000009" class="edge">
<title>Node9&#45;&gt;Node8</title>
<g id="a_edge8_Node000008_Node000009"><a xlink:title=" ">
<path fill="none" stroke="#63b8ff" d="M299.55,-358.44C299.3,-345.02 298.97,-327.94 298.68,-312.89"/>
<polygon fill="none" stroke="#63b8ff" points="298.68,-312.85 294.57,-306.92 298.45,-300.85 302.57,-306.77 298.68,-312.85"/>
</a>
</g>
<text text-anchor="middle" x="317" y="-327" font-family="Helvetica,sans-Serif" font-size="10.00" fill="grey"> +keys</text>
</g>
<!-- Node10 -->
<g id="Node000010" class="node">
<title>Node10</title>
<g id="a_Node000010"><a xlink:title=" ">
<polygon fill="white" stroke="transparent" points="299.5,-575 282.5,-575 282.5,-526 299.5,-526 299.5,-575"/>
<text text-anchor="start" x="288" y="-562.5" font-family="Helvetica,sans-Serif" font-size="10.00">T</text>
<text text-anchor="start" x="289.5" y="-547.5" font-family="Helvetica,sans-Serif" font-size="10.00"> </text>
<text text-anchor="start" x="289.5" y="-532.5" font-family="Helvetica,sans-Serif" font-size="10.00"> </text>
<polygon fill="#bfbfbf" stroke="#bfbfbf" points="283,-557.5 283,-557.5 300,-557.5 300,-557.5 283,-557.5"/>
<polygon fill="#bfbfbf" stroke="#bfbfbf" points="283,-542.5 283,-542.5 300,-542.5 300,-542.5 283,-542.5"/>
<polygon fill="none" stroke="#bfbfbf" points="282.5,-526 282.5,-575 299.5,-575 299.5,-526 282.5,-526"/>
</a>
</g>
</g>
<!-- Node10&#45;&gt;Node9 -->
<g id="edge9_Node000009_Node000010" class="edge">
<title>Node10&#45;&gt;Node9</title>
<g id="a_edge9_Node000009_Node000010"><a xlink:title=" ">
<path fill="none" stroke="#63b8ff" d="M292.29,-525.79C293.79,-498.14 296.29,-452.13 298.04,-420.05"/>
<polygon fill="none" stroke="#63b8ff" points="298.06,-419.65 294.39,-413.44 298.71,-407.67 302.38,-413.88 298.06,-419.65"/>
</a>
</g>
<text text-anchor="middle" x="310.5" y="-453" font-family="Helvetica,sans-Serif" font-size="10.00" fill="grey"> +ptr</text>
</g>
<!-- Node11&#45;&gt;Node1 -->
<g id="edge10_Node000001_Node000011" class="edge">
<title>Node11&#45;&gt;Node1</title>
<g id="a_edge10_Node000001_Node000011"><a xlink:title=" ">
<path fill="none" stroke="#63b8ff" d="M208.51,-430.9C208.12,-404.75 207.94,-361.33 210,-324 212.03,-287.17 215.7,-247.06 219.52,-211.11"/>
<polygon fill="none" stroke="#63b8ff" points="219.53,-211.02 216.2,-204.62 220.82,-199.08 224.15,-205.48 219.53,-211.02"/>
</a>
</g>
<text text-anchor="middle" x="252.5" y="-327" font-family="Helvetica,sans-Serif" font-size="10.00" fill="grey"> #m_edge_pixels</text>
</g>
<!-- Node12 -->
<g id="Node000012" class="node">
<title>Node12</title>
<g id="a_Node000012"><a xlink:href="structColoredContours.html" target="_top" xlink:title=" ">
<polygon fill="white" stroke="transparent" points="621,-300.5 529,-300.5 529,-251.5 621,-251.5 621,-300.5"/>
<text text-anchor="start" x="534" y="-288" font-family="Helvetica,sans-Serif" font-size="10.00">ColoredContours</text>
<text text-anchor="start" x="573" y="-273" font-family="Helvetica,sans-Serif" font-size="10.00"> </text>
<text text-anchor="start" x="573" y="-258" font-family="Helvetica,sans-Serif" font-size="10.00"> </text>
<polygon fill="#bfbfbf" stroke="#bfbfbf" points="529,-283 529,-283 621,-283 621,-283 529,-283"/>
<polygon fill="#bfbfbf" stroke="#bfbfbf" points="529,-268 529,-268 621,-268 621,-268 529,-268"/>
<polygon fill="none" stroke="#bfbfbf" points="529,-251.5 529,-300.5 621,-300.5 621,-251.5 529,-251.5"/>
</a>
</g>
</g>
<!-- Node12&#45;&gt;Node1 -->
<g id="edge12_Node000001_Node000012" class="edge">
<title>Node12&#45;&gt;Node1</title>
<g id="a_edge12_Node000001_Node000012"><a xlink:title=" ">
<path fill="none" stroke="#63b8ff" d="M528.88,-251.47C472.83,-222.87 377.44,-174.2 310.14,-139.86"/>
<polygon fill="none" stroke="#63b8ff" points="309.86,-139.72 302.7,-140.55 299.17,-134.26 306.34,-133.43 309.86,-139.72"/>
</a>
</g>
<text text-anchor="middle" x="508.5" y="-220" font-family="Helvetica,sans-Serif" font-size="10.00" fill="grey"> +m_contours</text>
</g>
<!-- Node13 -->
<g id="Node000013" class="node">
<title>Node13</title>
<g id="a_Node000013"><a xlink:href="structContoursResult.html" target="_top" xlink:title=" ">
<polygon fill="white" stroke="transparent" points="617.5,-407.5 532.5,-407.5 532.5,-358.5 617.5,-358.5 617.5,-407.5"/>
<text text-anchor="start" x="538" y="-395" font-family="Helvetica,sans-Serif" font-size="10.00">ContoursResult</text>
<text text-anchor="start" x="573.5" y="-380" font-family="Helvetica,sans-Serif" font-size="10.00"> </text>
<text text-anchor="start" x="573.5" y="-365" font-family="Helvetica,sans-Serif" font-size="10.00"> </text>
<polygon fill="#bfbfbf" stroke="#bfbfbf" points="533,-390 533,-390 618,-390 618,-390 533,-390"/>
<polygon fill="#bfbfbf" stroke="#bfbfbf" points="533,-375 533,-375 618,-375 618,-375 533,-375"/>
<polygon fill="none" stroke="#bfbfbf" points="532.5,-358.5 532.5,-407.5 617.5,-407.5 617.5,-358.5 532.5,-358.5"/>
</a>
</g>
</g>
<!-- Node13&#45;&gt;Node12 -->
<g id="edge13_Node000012_Node000013" class="edge">
<title>Node13&#45;&gt;Node12</title>
<g id="a_edge13_Node000012_Node000013"><a xlink:title=" ">
<path fill="none" stroke="#63b8ff" d="M575,-348.22C575,-332.78 575,-314.85 575,-300.85"/>
<polygon fill="none" stroke="#63b8ff" points="571.5,-348.44 575,-358.44 578.5,-348.44 571.5,-348.44"/>
</a>
</g>
</g>
<!-- Node14 -->
<g id="Node000014" class="node">
<title>Node14</title>
<g id="a_Node000014"><a xlink:title=" ">
<polygon fill="white" stroke="transparent" points="442.5,-580.5 317.5,-580.5 317.5,-520.5 442.5,-520.5 442.5,-580.5"/>
<text text-anchor="start" x="323" y="-568.5" font-family="Helvetica,sans-Serif" font-size="10.00">std::vector&lt; std::vector</text>
<text text-anchor="start" x="351" y="-557.5" font-family="Helvetica,sans-Serif" font-size="10.00">&lt; Point &gt; &gt;</text>
<text text-anchor="start" x="336.5" y="-542.5" font-family="Helvetica,sans-Serif" font-size="10.00">+</text>
<text text-anchor="start" x="364" y="-542.5" font-family="Helvetica,sans-Serif" font-size="10.00">elements</text>
<text text-anchor="start" x="378.5" y="-527.5" font-family="Helvetica,sans-Serif" font-size="10.00"> </text>
<polygon fill="#666666" stroke="#666666" points="318,-552.5 318,-552.5 443,-552.5 443,-552.5 318,-552.5"/>
<polygon fill="#666666" stroke="#666666" points="318,-537.5 318,-537.5 362,-537.5 362,-537.5 318,-537.5"/>
<polygon fill="#666666" stroke="#666666" points="362,-537.5 362,-537.5 443,-537.5 443,-537.5 362,-537.5"/>
<polygon fill="none" stroke="#666666" points="317.5,-520.5 317.5,-580.5 442.5,-580.5 442.5,-520.5 317.5,-520.5"/>
</a>
</g>
</g>
<!-- Node14&#45;&gt;Node13 -->
<g id="edge14_Node000013_Node000014" class="edge">
<title>Node14&#45;&gt;Node13</title>
<g id="a_edge14_Node000013_Node000014"><a xlink:title=" ">
<path fill="none" stroke="#63b8ff" d="M401.89,-520.38C422.21,-494.68 454.34,-457.32 488,-431 498.15,-423.07 509.82,-415.75 521.25,-409.36"/>
<polygon fill="none" stroke="#63b8ff" points="521.51,-409.22 524.9,-402.86 532.08,-403.54 528.69,-409.9 521.51,-409.22"/>
</a>
</g>
<text text-anchor="middle" x="515" y="-453" font-family="Helvetica,sans-Serif" font-size="10.00" fill="grey"> +contours</text>
</g>
<!-- Node15 -->
<g id="Node000015" class="node">
<title>Node15</title>
<g id="a_Node000015"><a xlink:title=" ">
<polygon fill="white" stroke="transparent" points="585.5,-580.5 460.5,-580.5 460.5,-520.5 585.5,-520.5 585.5,-580.5"/>
<text text-anchor="start" x="466" y="-568.5" font-family="Helvetica,sans-Serif" font-size="10.00">std::vector&lt; std::vector</text>
<text text-anchor="start" x="478" y="-557.5" font-family="Helvetica,sans-Serif" font-size="10.00">&lt; QuadBezier &gt; &gt;</text>
<text text-anchor="start" x="479.5" y="-542.5" font-family="Helvetica,sans-Serif" font-size="10.00">+</text>
<text text-anchor="start" x="507" y="-542.5" font-family="Helvetica,sans-Serif" font-size="10.00">elements</text>
<text text-anchor="start" x="521.5" y="-527.5" font-family="Helvetica,sans-Serif" font-size="10.00"> </text>
<polygon fill="#666666" stroke="#666666" points="461,-552.5 461,-552.5 586,-552.5 586,-552.5 461,-552.5"/>
<polygon fill="#666666" stroke="#666666" points="461,-537.5 461,-537.5 505,-537.5 505,-537.5 461,-537.5"/>
<polygon fill="#666666" stroke="#666666" points="505,-537.5 505,-537.5 586,-537.5 586,-537.5 505,-537.5"/>
<polygon fill="none" stroke="#666666" points="460.5,-520.5 460.5,-580.5 585.5,-580.5 585.5,-520.5 460.5,-520.5"/>
</a>
</g>
</g>
<!-- Node15&#45;&gt;Node13 -->
<g id="edge15_Node000013_Node000015" class="edge">
<title>Node15&#45;&gt;Node13</title>
<g id="a_edge15_Node000013_Node000015"><a xlink:title=" ">
<path fill="none" stroke="#63b8ff" d="M532.18,-520.29C541.04,-492.07 554.48,-449.3 563.94,-419.21"/>
<polygon fill="none" stroke="#63b8ff" points="564,-419.01 561.98,-412.09 567.6,-407.57 569.61,-414.49 564,-419.01"/>
</a>
</g>
<text text-anchor="middle" x="582" y="-453" font-family="Helvetica,sans-Serif" font-size="10.00" fill="grey"> +curves</text>
</g>
<!-- Node16 -->
<g id="Node000016" class="node">
<title>Node16</title>
<g id="a_Node000016"><a xlink:title=" ">
<polygon fill="white" stroke="transparent" points="724,-580.5 604,-580.5 604,-520.5 724,-520.5 724,-580.5"/>
<text text-anchor="start" x="609" y="-568.5" font-family="Helvetica,sans-Serif" font-size="10.00">std::vector&lt; std::array</text>
<text text-anchor="start" x="634.5" y="-557.5" font-family="Helvetica,sans-Serif" font-size="10.00">&lt; int, 4 &gt; &gt;</text>
<text text-anchor="start" x="662" y="-542.5" font-family="Helvetica,sans-Serif" font-size="10.00"> </text>
<text text-anchor="start" x="662" y="-527.5" font-family="Helvetica,sans-Serif" font-size="10.00"> </text>
<polygon fill="#666666" stroke="#666666" points="604,-552.5 604,-552.5 724,-552.5 724,-552.5 604,-552.5"/>
<polygon fill="#666666" stroke="#666666" points="604,-537.5 604,-537.5 724,-537.5 724,-537.5 604,-537.5"/>
<polygon fill="none" stroke="#666666" points="604,-520.5 604,-580.5 724,-580.5 724,-520.5 604,-520.5"/>
</a>
</g>
</g>
<!-- Node16&#45;&gt;Node13 -->
<g id="edge16_Node000013_Node000016" class="edge">
<title>Node16&#45;&gt;Node13</title>
<g id="a_edge16_Node000013_Node000016"><a xlink:title=" ">
<path fill="none" stroke="#63b8ff" d="M650.53,-520.32C639.09,-496.05 621.87,-460.8 605,-431 602.6,-426.76 599.99,-422.37 597.33,-418.06"/>
<polygon fill="none" stroke="#63b8ff" points="597.15,-417.77 590.57,-414.82 590.76,-407.61 597.34,-410.56 597.15,-417.77"/>
</a>
</g>
<text text-anchor="middle" x="660" y="-453" font-family="Helvetica,sans-Serif" font-size="10.00" fill="grey"> +hierarchy</text>
</g>
<!-- Node17 -->
<g id="Node000017" class="node">
<title>Node17</title>
<g id="a_Node000017"><a xlink:title=" ">
<polygon fill="white" stroke="transparent" points="716,-749.5 612,-749.5 612,-700.5 716,-700.5 716,-749.5"/>
<text text-anchor="start" x="617" y="-737" font-family="Helvetica,sans-Serif" font-size="10.00">std::array&lt; int, 4 &gt;</text>
<text text-anchor="start" x="625" y="-722" font-family="Helvetica,sans-Serif" font-size="10.00">+</text>
<text text-anchor="start" x="647" y="-722" font-family="Helvetica,sans-Serif" font-size="10.00">elements</text>
<text text-anchor="start" x="662" y="-707" font-family="Helvetica,sans-Serif" font-size="10.00"> </text>
<polygon fill="#666666" stroke="#666666" points="612,-732 612,-732 716,-732 716,-732 612,-732"/>
<polygon fill="#666666" stroke="#666666" points="612,-717 612,-717 645,-717 645,-717 612,-717"/>
<polygon fill="#666666" stroke="#666666" points="645,-717 645,-717 716,-717 716,-717 645,-717"/>
<polygon fill="none" stroke="#666666" points="612,-700.5 612,-749.5 716,-749.5 716,-700.5 612,-700.5"/>
</a>
</g>
</g>
<!-- Node17&#45;&gt;Node16 -->
<g id="edge17_Node000016_Node000017" class="edge">
<title>Node17&#45;&gt;Node16</title>
<g id="a_edge17_Node000016_Node000017"><a xlink:title=" ">
<path fill="none" stroke="#63b8ff" d="M664,-700.38C664,-672.72 664,-626.43 664,-592.8"/>
<polygon fill="none" stroke="#63b8ff" points="664,-592.59 660,-586.59 664,-580.59 668,-586.59 664,-592.59"/>
</a>
</g>
<text text-anchor="middle" x="693" y="-624" font-family="Helvetica,sans-Serif" font-size="10.00" fill="grey"> +elements</text>
</g>
<!-- Node18 -->
<g id="Node000018" class="node">
<title>Node18</title>
<g id="a_Node000018"><a xlink:title=" ">
<polygon fill="white" stroke="transparent" points="848,-575 742,-575 742,-526 848,-526 848,-575"/>
<text text-anchor="start" x="747" y="-562.5" font-family="Helvetica,sans-Serif" font-size="10.00">std::vector&lt; bool &gt;</text>
<text text-anchor="start" x="755.5" y="-547.5" font-family="Helvetica,sans-Serif" font-size="10.00">+</text>
<text text-anchor="start" x="778" y="-547.5" font-family="Helvetica,sans-Serif" font-size="10.00">elements</text>
<text text-anchor="start" x="793" y="-532.5" font-family="Helvetica,sans-Serif" font-size="10.00"> </text>
<polygon fill="#666666" stroke="#666666" points="742,-557.5 742,-557.5 848,-557.5 848,-557.5 742,-557.5"/>
<polygon fill="#666666" stroke="#666666" points="742,-542.5 742,-542.5 776,-542.5 776,-542.5 742,-542.5"/>
<polygon fill="#666666" stroke="#666666" points="776,-542.5 776,-542.5 848,-542.5 848,-542.5 776,-542.5"/>
<polygon fill="none" stroke="#666666" points="742,-526 742,-575 848,-575 848,-526 742,-526"/>
</a>
</g>
</g>
<!-- Node18&#45;&gt;Node13 -->
<g id="edge18_Node000013_Node000018" class="edge">
<title>Node18&#45;&gt;Node13</title>
<g id="a_edge18_Node000013_Node000018"><a xlink:title=" ">
<path fill="none" stroke="#63b8ff" d="M779.65,-525.56C761.68,-499.22 729.68,-457.17 693,-431 673.84,-417.33 650.14,-406.89 629.02,-399.36"/>
<polygon fill="none" stroke="#63b8ff" points="628.96,-399.34 622,-401.2 617.6,-395.48 624.57,-393.62 628.96,-399.34"/>
</a>
</g>
<text text-anchor="middle" x="766" y="-453" font-family="Helvetica,sans-Serif" font-size="10.00" fill="grey"> +is_hole</text>
</g>
<!-- Node19 -->
<g id="Node000019" class="node">
<title>Node19</title>
<g id="a_Node000019"><a xlink:title=" ">
<polygon fill="white" stroke="transparent" points="891.5,-413 756.5,-413 756.5,-353 891.5,-353 891.5,-413"/>
<text text-anchor="start" x="762" y="-401" font-family="Helvetica,sans-Serif" font-size="10.00">std::vector&lt; ImageLib</text>
<text text-anchor="start" x="762" y="-390" font-family="Helvetica,sans-Serif" font-size="10.00">::RGBAPixel&lt; uint8_t &gt; &gt;</text>
<text text-anchor="start" x="822.5" y="-375" font-family="Helvetica,sans-Serif" font-size="10.00"> </text>
<text text-anchor="start" x="822.5" y="-360" font-family="Helvetica,sans-Serif" font-size="10.00"> </text>
<polygon fill="#666666" stroke="#666666" points="757,-385 757,-385 892,-385 892,-385 757,-385"/>
<polygon fill="#666666" stroke="#666666" points="757,-370 757,-370 892,-370 892,-370 757,-370"/>
<polygon fill="none" stroke="#666666" points="756.5,-353 756.5,-413 891.5,-413 891.5,-353 756.5,-353"/>
</a>
</g>
</g>
<!-- Node19&#45;&gt;Node12 -->
<g id="edge19_Node000012_Node000019" class="edge">
<title>Node19&#45;&gt;Node12</title>
<g id="a_edge19_Node000012_Node000019"><a xlink:title=" ">
<path fill="none" stroke="#63b8ff" d="M756.29,-353.45C717.4,-337.05 669.09,-316.68 632.13,-301.09"/>
<polygon fill="none" stroke="#63b8ff" points="632.1,-301.08 625.02,-302.43 621.05,-296.42 628.13,-295.06 632.1,-301.08"/>
</a>
</g>
<text text-anchor="middle" x="727.5" y="-327" font-family="Helvetica,sans-Serif" font-size="10.00" fill="grey"> +colors</text>
</g>
<!-- Node20 -->
<g id="Node000020" class="node">
<title>Node20</title>
<g id="a_Node000020"><a xlink:href="structImageLib_1_1RGBAPixel.html" target="_top" xlink:title=" ">
<polygon fill="white" stroke="transparent" points="979.5,-603 866.5,-603 866.5,-498 979.5,-498 979.5,-603"/>
<text text-anchor="start" x="872" y="-590.5" font-family="Helvetica,sans-Serif" font-size="10.00">ImageLib::RGBAPixel</text>
<text text-anchor="start" x="895" y="-579.5" font-family="Helvetica,sans-Serif" font-size="10.00">&lt; uint8_t &gt;</text>
<text text-anchor="start" x="877.5" y="-564.5" font-family="Helvetica,sans-Serif" font-size="10.00">+</text>
<text text-anchor="start" x="897" y="-564.5" font-family="Helvetica,sans-Serif" font-size="10.00">alpha</text>
<text text-anchor="start" x="877.5" y="-549.5" font-family="Helvetica,sans-Serif" font-size="10.00">+</text>
<text text-anchor="start" x="897" y="-549.5" font-family="Helvetica,sans-Serif" font-size="10.00">RGBAPixel()</text>
<text text-anchor="start" x="877.5" y="-534.5" font-family="Helvetica,sans-Serif" font-size="10.00">+</text>
<text text-anchor="start" x="897" y="-534.5" font-family="Helvetica,sans-Serif" font-size="10.00">operator==()</text>
<text text-anchor="start" x="877.5" y="-519.5" font-family="Helvetica,sans-Serif" font-size="10.00">+</text>
<text text-anchor="start" x="897" y="-519.5" font-family="Helvetica,sans-Serif" font-size="10.00">operator!=()</text>
<text text-anchor="start" x="877.5" y="-504.5" font-family="Helvetica,sans-Serif" font-size="10.00">+</text>
<text text-anchor="start" x="897" y="-504.5" font-family="Helvetica,sans-Serif" font-size="10.00">setGray()</text>
<polygon fill="#bfbfbf" stroke="#bfbfbf" points="867,-574.5 867,-574.5 980,-574.5 980,-574.5 867,-574.5"/>
<polygon fill="#bfbfbf" stroke="#bfbfbf" points="867,-559.5 867,-559.5 895,-559.5 895,-559.5 867,-559.5"/>
<polygon fill="#bfbfbf" stroke="#bfbfbf" points="895,-559.5 895,-559.5 980,-559.5 980,-559.5 895,-559.5"/>
<polygon fill="none" stroke="#bfbfbf" points="866.5,-498 866.5,-603 979.5,-603 979.5,-498 866.5,-498"/>
</a>
</g>
</g>
<!-- Node20&#45;&gt;Node19 -->
<g id="edge20_Node000019_Node000020" class="edge">
<title>Node20&#45;&gt;Node19</title>
<g id="a_edge20_Node000019_Node000020"><a xlink:title=" ">
<path fill="none" stroke="#63b8ff" d="M891.95,-497.59C877.62,-473.64 860.89,-445.66 847.61,-423.47"/>
<polygon fill="none" stroke="#63b8ff" points="847.56,-423.38 841.05,-420.29 841.4,-413.08 847.91,-416.18 847.56,-423.38"/>
</a>
</g>
<text text-anchor="middle" x="909" y="-453" font-family="Helvetica,sans-Serif" font-size="10.00" fill="grey"> +elements</text>
</g>
<!-- Node21 -->
<g id="Node000021" class="node">
<title>Node21</title>
<g id="a_Node000021"><a xlink:href="structImageLib_1_1RGBPixel.html" target="_top" xlink:title=" ">
<polygon fill="white" stroke="transparent" points="976,-800 870,-800 870,-650 976,-650 976,-800"/>
<text text-anchor="start" x="875" y="-788" font-family="Helvetica,sans-Serif" font-size="10.00">ImageLib::RGBPixel</text>
<text text-anchor="start" x="889" y="-777" font-family="Helvetica,sans-Serif" font-size="10.00">&lt; NumberT &gt;</text>
<text text-anchor="start" x="876.5" y="-762" font-family="Helvetica,sans-Serif" font-size="10.00">+</text>
<text text-anchor="start" x="892" y="-762" font-family="Helvetica,sans-Serif" font-size="10.00">red</text>
<text text-anchor="start" x="876.5" y="-747" font-family="Helvetica,sans-Serif" font-size="10.00">+</text>
<text text-anchor="start" x="892" y="-747" font-family="Helvetica,sans-Serif" font-size="10.00">green</text>
<text text-anchor="start" x="876.5" y="-732" font-family="Helvetica,sans-Serif" font-size="10.00">+</text>
<text text-anchor="start" x="892" y="-732" font-family="Helvetica,sans-Serif" font-size="10.00">blue</text>
<text text-anchor="start" x="876.5" y="-717" font-family="Helvetica,sans-Serif" font-size="10.00">+</text>
<text text-anchor="start" x="892" y="-717" font-family="Helvetica,sans-Serif" font-size="10.00">RGBPixel()</text>
<text text-anchor="start" x="876.5" y="-702" font-family="Helvetica,sans-Serif" font-size="10.00">+</text>
<text text-anchor="start" x="892" y="-702" font-family="Helvetica,sans-Serif" font-size="10.00">operator==()</text>
<text text-anchor="start" x="876.5" y="-687" font-family="Helvetica,sans-Serif" font-size="10.00">+</text>
<text text-anchor="start" x="892" y="-687" font-family="Helvetica,sans-Serif" font-size="10.00">operator!=()</text>
<text text-anchor="start" x="876.5" y="-672" font-family="Helvetica,sans-Serif" font-size="10.00">+</text>
<text text-anchor="start" x="892" y="-672" font-family="Helvetica,sans-Serif" font-size="10.00">setGray()</text>
<text text-anchor="start" x="876.5" y="-657" font-family="Helvetica,sans-Serif" font-size="10.00">+</text>
<text text-anchor="start" x="892" y="-657" font-family="Helvetica,sans-Serif" font-size="10.00">colorDistance()</text>
<polygon fill="#bfbfbf" stroke="#bfbfbf" points="870,-772 870,-772 976,-772 976,-772 870,-772"/>
<polygon fill="#bfbfbf" stroke="#bfbfbf" points="870,-727 870,-727 890,-727 890,-727 870,-727"/>
<polygon fill="#bfbfbf" stroke="#bfbfbf" points="890,-727 890,-727 976,-727 976,-727 890,-727"/>
<polygon fill="none" stroke="#bfbfbf" points="870,-650 870,-800 976,-800 976,-650 870,-650"/>
</a>
</g>
</g>
<!-- Node21&#45;&gt;Node20 -->
<g id="edge21_Node000020_Node000021" class="edge">
<title>Node21&#45;&gt;Node20</title>
<g id="a_edge21_Node000020_Node000021"><a xlink:title=" ">
<path fill="none" stroke="#63b8ff" d="M923,-639.48C923,-627.1 923,-614.68 923,-603.23"/>
<polygon fill="none" stroke="#63b8ff" points="919.5,-639.84 923,-649.84 926.5,-639.84 919.5,-639.84"/>
</a>
</g>
</g>
<!-- Node22 -->
<g id="Node000022" class="node">
<title>Node22</title>
<g id="a_Node000022"><a xlink:href="structImageLib_1_1Pixel.html" target="_top" xlink:title=" ">
<polygon fill="white" stroke="transparent" points="999,-886 847,-886 847,-837 999,-837 999,-886"/>
<text text-anchor="start" x="852" y="-873.5" font-family="Helvetica,sans-Serif" font-size="10.00">ImageLib::Pixel&lt; NumberT &gt;</text>
<text text-anchor="start" x="921" y="-858.5" font-family="Helvetica,sans-Serif" font-size="10.00"> </text>
<text text-anchor="start" x="873.5" y="-843.5" font-family="Helvetica,sans-Serif" font-size="10.00">+</text>
<text text-anchor="start" x="909" y="-843.5" font-family="Helvetica,sans-Serif" font-size="10.00">~Pixel()</text>
<polygon fill="#bfbfbf" stroke="#bfbfbf" points="847,-868.5 847,-868.5 999,-868.5 999,-868.5 847,-868.5"/>
<polygon fill="#bfbfbf" stroke="#bfbfbf" points="847,-853.5 847,-853.5 999,-853.5 999,-853.5 847,-853.5"/>
<polygon fill="none" stroke="#bfbfbf" points="847,-837 847,-886 999,-886 999,-837 847,-837"/>
</a>
</g>
</g>
<!-- Node22&#45;&gt;Node21 -->
<g id="edge22_Node000021_Node000022" class="edge">
<title>Node22&#45;&gt;Node21</title>
<g id="a_edge22_Node000021_Node000022"><a xlink:title=" ">
<path fill="none" stroke="#63b8ff" d="M923,-826.55C923,-818.35 923,-809.27 923,-800.01"/>
<polygon fill="none" stroke="#63b8ff" points="919.5,-826.76 923,-836.76 926.5,-826.76 919.5,-826.76"/>
</a>
</g>
</g>
</g>
</svg>

<g id="navigator" transform="translate(0 0)" fill="#404254">
  <rect fill="#f2f5e9" fill-opacity="0.5" stroke="#606060" stroke-width=".5" x="0" y="0" width="60" height="60"/>
  <use id="zoomplus" xlink:href="#zoomPlus" x="17" y="9" onmousedown="handleZoom(evt,'in')"/>
  <use id="zoomminus" xlink:href="#zoomMin" x="42" y="9" onmousedown="handleZoom(evt,'out')"/>
  <use id="reset" xlink:href="#resetDef" x="30" y="36" onmousedown="handleReset()"/>
   <use id="arrowup" xlink:href="#arrowUp" x="0" y="0" onmousedown="handlePan(0,-1)"/>
  <use id="arrowright" xlink:href="#arrowRight" x="0" y="0" onmousedown="handlePan(1,0)"/>
  <use id="arrowdown" xlink:href="#arrowDown" x="0" y="0" onmousedown="handlePan(0,1)"/>
  <use id="arrowleft" xlink:href="#arrowLeft" x="0" y="0" onmousedown="handlePan(-1,0)"/>
</g>
<svg viewBox="0 0 15 15" width="100%" height="30px" preserveAspectRatio="xMaxYMin meet">
 <g id="arrow_out" transform="scale(0.3 0.3)">
  <a xlink:href="classNode__coll__graph_org.svg" target="_base">
   <rect id="button" ry="5" rx="5" y="6" x="6" height="38" width="38"
        fill="#f2f5e9" fill-opacity="0.5" stroke="#606060" stroke-width="1.0"/>
   <path id="arrow"
     d="M 11.500037,31.436501 C 11.940474,20.09759 22.043105,11.32322 32.158766,21.979434 L 37.068811,17.246167 C 37.068811,17.246167 37.088388,32 37.088388,32 L 22.160133,31.978069 C 22.160133,31.978069 26.997745,27.140456 26.997745,27.140456 C 18.528582,18.264221 13.291696,25.230495 11.500037,31.436501 z"
     style="fill:#404040;"/>
  </a>
 </g>
</svg>

<style type='text/css'>
<![CDATA[
[data-mouse-over-selected='false'] { opacity: 0.7; }
[data-mouse-over-selected='true']  { opacity: 1.0; }
]]>
</style>
<script type="application/ecmascript"><![CDATA[
document.addEventListener('DOMContentLoaded', (event) => {
  highlightEdges();
  highlightAdjacentNodes();
});
]]></script>
</svg>
