<?xml version="1.0" encoding="UTF-8" standalone="no"?>
<!DOCTYPE svg PUBLIC "-//W3C//DTD SVG 1.1//EN"
 "http://www.w3.org/Graphics/SVG/1.1/DTD/svg11.dtd">
<!-- Generated by graphviz version 2.42.4 (0)
 -->
<!-- Title: SavitzkyGolay Pages: 1 -->
<svg width="141pt" height="258pt"
 viewBox="0.00 0.00 141.00 258.00" xmlns="http://www.w3.org/2000/svg" xmlns:xlink="http://www.w3.org/1999/xlink">
<g id="graph0" class="graph" transform="scale(1 1) rotate(0) translate(4 254)">
<title>SavitzkyGolay</title>
<!-- Node1 -->
<g id="Node000001" class="node">
<title>Node1</title>
<g id="a_Node000001"><a xlink:title=" ">
<polygon fill="#999999" stroke="transparent" points="133,-154 0,-154 0,0 133,0 133,-154"/>
<text text-anchor="start" x="32" y="-142" font-family="Helvetica,sans-Serif" font-size="10.00">SavitzkyGolay</text>
<text text-anchor="start" x="7" y="-127" font-family="Helvetica,sans-Serif" font-size="10.00">&#45;</text>
<text text-anchor="start" x="17.5" y="-127" font-family="Helvetica,sans-Serif" font-size="10.00">window_size_</text>
<text text-anchor="start" x="7" y="-112" font-family="Helvetica,sans-Serif" font-size="10.00">&#45;</text>
<text text-anchor="start" x="17.5" y="-112" font-family="Helvetica,sans-Serif" font-size="10.00">window_radius_</text>
<text text-anchor="start" x="7" y="-97" font-family="Helvetica,sans-Serif" font-size="10.00">&#45;</text>
<text text-anchor="start" x="17.5" y="-97" font-family="Helvetica,sans-Serif" font-size="10.00">poly_order_</text>
<text text-anchor="start" x="4.5" y="-82" font-family="Helvetica,sans-Serif" font-size="10.00">+</text>
<text text-anchor="start" x="17.5" y="-82" font-family="Helvetica,sans-Serif" font-size="10.00">SavitzkyGolay()</text>
<text text-anchor="start" x="4.5" y="-67" font-family="Helvetica,sans-Serif" font-size="10.00">+</text>
<text text-anchor="start" x="17.5" y="-67" font-family="Helvetica,sans-Serif" font-size="10.00">filter()</text>
<text text-anchor="start" x="4.5" y="-52" font-family="Helvetica,sans-Serif" font-size="10.00">+</text>
<text text-anchor="start" x="17.5" y="-52" font-family="Helvetica,sans-Serif" font-size="10.00">filter_wrap()</text>
<text text-anchor="start" x="4.5" y="-37" font-family="Helvetica,sans-Serif" font-size="10.00">+</text>
<text text-anchor="start" x="17.5" y="-37" font-family="Helvetica,sans-Serif" font-size="10.00">get_coeffs()</text>
<text text-anchor="start" x="7" y="-22" font-family="Helvetica,sans-Serif" font-size="10.00">&#45;</text>
<text text-anchor="start" x="17.5" y="-22" font-family="Helvetica,sans-Serif" font-size="10.00">invert_matrix()</text>
<text text-anchor="start" x="7" y="-7" font-family="Helvetica,sans-Serif" font-size="10.00">&#45;</text>
<text text-anchor="start" x="17.5" y="-7" font-family="Helvetica,sans-Serif" font-size="10.00">compute_coefficients()</text>
<polygon fill="#666666" stroke="#666666" points="0.5,-137 0.5,-137 133.5,-137 133.5,-137 0.5,-137"/>
<polygon fill="#666666" stroke="#666666" points="0.5,-92 0.5,-92 15.5,-92 15.5,-92 0.5,-92"/>
<polygon fill="#666666" stroke="#666666" points="15.5,-92 15.5,-92 133.5,-92 133.5,-92 15.5,-92"/>
<polygon fill="none" stroke="#666666" points="0,0 0,-154 133,-154 133,0 0,0"/>
</a>
</g>
</g>
<!-- Node2 -->
<g id="Node000002" class="node">
<title>Node2</title>
<g id="a_Node000002"><a xlink:title=" ">
<polygon fill="white" stroke="transparent" points="120,-250 13,-250 13,-201 120,-201 120,-250"/>
<text text-anchor="start" x="18.5" y="-237.5" font-family="Helvetica,sans-Serif" font-size="10.00">std::vector&lt; float &gt;</text>
<text text-anchor="start" x="27.5" y="-222.5" font-family="Helvetica,sans-Serif" font-size="10.00">+</text>
<text text-anchor="start" x="50.5" y="-222.5" font-family="Helvetica,sans-Serif" font-size="10.00">elements</text>
<text text-anchor="start" x="65" y="-207.5" font-family="Helvetica,sans-Serif" font-size="10.00"> </text>
<polygon fill="#666666" stroke="#666666" points="13.5,-232.5 13.5,-232.5 120.5,-232.5 120.5,-232.5 13.5,-232.5"/>
<polygon fill="#666666" stroke="#666666" points="13.5,-217.5 13.5,-217.5 48.5,-217.5 48.5,-217.5 13.5,-217.5"/>
<polygon fill="#666666" stroke="#666666" points="48.5,-217.5 48.5,-217.5 120.5,-217.5 120.5,-217.5 48.5,-217.5"/>
<polygon fill="none" stroke="#666666" points="13,-201 13,-250 120,-250 120,-201 13,-201"/>
</a>
</g>
</g>
<!-- Node2&#45;&gt;Node1 -->
<g id="edge1_Node000001_Node000002" class="edge">
<title>Node2&#45;&gt;Node1</title>
<g id="a_edge1_Node000001_Node000002"><a xlink:title=" ">
<path fill="none" stroke="#63b8ff" d="M66.5,-200.96C66.5,-191.16 66.5,-179.1 66.5,-166.4"/>
<polygon fill="none" stroke="#63b8ff" points="66.5,-166.09 62.5,-160.09 66.5,-154.09 70.5,-160.09 66.5,-166.09"/>
</a>
</g>
<text text-anchor="middle" x="87.5" y="-175" font-family="Helvetica,sans-Serif" font-size="10.00" fill="grey"> &#45;coeffs_</text>
</g>
</g>
</svg>
