<?xml version="1.0" encoding="UTF-8" standalone="no"?>
<!DOCTYPE svg PUBLIC "-//W3C//DTD SVG 1.1//EN"
 "http://www.w3.org/Graphics/SVG/1.1/DTD/svg11.dtd">
<!-- Generated by graphviz version 2.42.4 (0)
 -->
<!-- Title: include/img2num.h Pages: 1 -->
<svg width="909pt" height="93pt"
 viewBox="0.00 0.00 908.50 93.00" xmlns="http://www.w3.org/2000/svg" xmlns:xlink="http://www.w3.org/1999/xlink">
<g id="graph0" class="graph" transform="scale(1 1) rotate(0) translate(4 89)">
<title>include/img2num.h</title>
<!-- Node1 -->
<g id="Node000001" class="node">
<title>Node1</title>
<g id="a_Node000001"><a xlink:title="Core image processing functions for img2num project.">
<polygon fill="#999999" stroke="#666666" points="496.5,-85 386.5,-85 386.5,-66 496.5,-66 496.5,-85"/>
<text text-anchor="middle" x="441.5" y="-73" font-family="Helvetica,sans-Serif" font-size="10.00">include/img2num.h</text>
</a>
</g>
</g>
<!-- Node2 -->
<g id="Node000002" class="node">
<title>Node2</title>
<g id="a_Node000002"><a xlink:href="bilateral__filter_8cpp_source.html" target="_top" xlink:title=" ">
<polygon fill="white" stroke="#666666" points="115,-30 0,-30 0,0 115,0 115,-30"/>
<text text-anchor="start" x="8" y="-18" font-family="Helvetica,sans-Serif" font-size="10.00">src/internal/bilateral</text>
<text text-anchor="middle" x="57.5" y="-7" font-family="Helvetica,sans-Serif" font-size="10.00">_filter.cpp</text>
</a>
</g>
</g>
<!-- Node1&#45;&gt;Node2 -->
<g id="edge1_Node000001_Node000002" class="edge">
<title>Node1&#45;&gt;Node2</title>
<g id="a_edge1_Node000001_Node000002"><a xlink:title=" ">
<path fill="none" stroke="#63b8ff" d="M376.44,-66.75C312.02,-58.76 210.66,-45.32 123.5,-30 120.73,-29.51 117.9,-28.99 115.05,-28.45"/>
<polygon fill="#63b8ff" stroke="#63b8ff" points="376.1,-70.23 386.45,-67.98 376.95,-63.29 376.1,-70.23"/>
</a>
</g>
</g>
<!-- Node3 -->
<g id="Node000003" class="node">
<title>Node3</title>
<g id="a_Node000003"><a xlink:href="bilateral__filter__gpu_8cpp_source.html" target="_top" xlink:title=" ">
<polygon fill="white" stroke="#666666" points="248,-30 133,-30 133,0 248,0 248,-30"/>
<text text-anchor="start" x="141" y="-18" font-family="Helvetica,sans-Serif" font-size="10.00">src/internal/bilateral</text>
<text text-anchor="middle" x="190.5" y="-7" font-family="Helvetica,sans-Serif" font-size="10.00">_filter_gpu.cpp</text>
</a>
</g>
</g>
<!-- Node1&#45;&gt;Node3 -->
<g id="edge2_Node000001_Node000003" class="edge">
<title>Node1&#45;&gt;Node3</title>
<g id="a_edge2_Node000001_Node000003"><a xlink:title=" ">
<path fill="none" stroke="#63b8ff" d="M395.18,-63.71C353.81,-54.06 293.01,-39.89 248.43,-29.5"/>
<polygon fill="#63b8ff" stroke="#63b8ff" points="394.47,-67.13 405,-65.99 396.06,-60.32 394.47,-67.13"/>
</a>
</g>
</g>
<!-- Node4 -->
<g id="Node000004" class="node">
<title>Node4</title>
<g id="a_Node000004"><a xlink:href="image__to__svg_8cpp_source.html" target="_top" xlink:title=" ">
<polygon fill="white" stroke="#666666" points="371,-30 266,-30 266,0 371,0 371,-30"/>
<text text-anchor="start" x="274" y="-18" font-family="Helvetica,sans-Serif" font-size="10.00">src/internal/image</text>
<text text-anchor="middle" x="318.5" y="-7" font-family="Helvetica,sans-Serif" font-size="10.00">_to_svg.cpp</text>
</a>
</g>
</g>
<!-- Node1&#45;&gt;Node4 -->
<g id="edge3_Node000001_Node000004" class="edge">
<title>Node1&#45;&gt;Node4</title>
<g id="a_edge3_Node000001_Node000004"><a xlink:title=" ">
<path fill="none" stroke="#63b8ff" d="M414.35,-61.59C394.81,-52.29 368.44,-39.75 348.31,-30.18"/>
<polygon fill="#63b8ff" stroke="#63b8ff" points="413.08,-64.86 423.61,-65.99 416.09,-58.54 413.08,-64.86"/>
</a>
</g>
</g>
<!-- Node5 -->
<g id="Node000005" class="node">
<title>Node5</title>
<g id="a_Node000005"><a xlink:href="image__utils_8cpp_source.html" target="_top" xlink:title=" ">
<polygon fill="white" stroke="#666666" points="494,-30 389,-30 389,0 494,0 494,-30"/>
<text text-anchor="start" x="397" y="-18" font-family="Helvetica,sans-Serif" font-size="10.00">src/internal/image</text>
<text text-anchor="middle" x="441.5" y="-7" font-family="Helvetica,sans-Serif" font-size="10.00">_utils.cpp</text>
</a>
</g>
</g>
<!-- Node1&#45;&gt;Node5 -->
<g id="edge4_Node000001_Node000005" class="edge">
<title>Node1&#45;&gt;Node5</title>
<g id="a_edge4_Node000001_Node000005"><a xlink:title=" ">
<path fill="none" stroke="#63b8ff" d="M441.5,-55.65C441.5,-47.36 441.5,-37.78 441.5,-30.11"/>
<polygon fill="#63b8ff" stroke="#63b8ff" points="438,-55.87 441.5,-65.87 445,-55.87 438,-55.87"/>
</a>
</g>
</g>
<!-- Node6 -->
<g id="Node000006" class="node">
<title>Node6</title>
<g id="a_Node000006"><a xlink:href="kmeans_8cpp_source.html" target="_top" xlink:title=" ">
<polygon fill="white" stroke="#666666" points="646.5,-24.5 512.5,-24.5 512.5,-5.5 646.5,-5.5 646.5,-24.5"/>
<text text-anchor="middle" x="579.5" y="-12.5" font-family="Helvetica,sans-Serif" font-size="10.00">src/internal/kmeans.cpp</text>
</a>
</g>
</g>
<!-- Node1&#45;&gt;Node6 -->
<g id="edge5_Node000001_Node000006" class="edge">
<title>Node1&#45;&gt;Node6</title>
<g id="a_edge5_Node000001_Node000006"><a xlink:title=" ">
<path fill="none" stroke="#63b8ff" d="M470.79,-62.08C497.45,-50.78 536.1,-34.4 559.41,-24.52"/>
<polygon fill="#63b8ff" stroke="#63b8ff" points="469.41,-58.87 461.57,-65.99 472.14,-65.31 469.41,-58.87"/>
</a>
</g>
</g>
<!-- Node7 -->
<g id="Node000007" class="node">
<title>Node7</title>
<g id="a_Node000007"><a xlink:href="kmeans__gpu_8cpp_source.html" target="_top" xlink:title=" ">
<polygon fill="white" stroke="#666666" points="778,-30 665,-30 665,0 778,0 778,-30"/>
<text text-anchor="start" x="673" y="-18" font-family="Helvetica,sans-Serif" font-size="10.00">src/internal/kmeans</text>
<text text-anchor="middle" x="721.5" y="-7" font-family="Helvetica,sans-Serif" font-size="10.00">_gpu.cpp</text>
</a>
</g>
</g>
<!-- Node1&#45;&gt;Node7 -->
<g id="edge6_Node000001_Node000007" class="edge">
<title>Node1&#45;&gt;Node7</title>
<g id="a_edge6_Node000001_Node000007"><a xlink:title=" ">
<path fill="none" stroke="#63b8ff" d="M492.96,-63.86C536.31,-54.88 599.97,-41.66 655.5,-30 658.6,-29.35 661.77,-28.68 664.98,-28.01"/>
<polygon fill="#63b8ff" stroke="#63b8ff" points="492.02,-60.48 482.94,-65.94 493.44,-67.33 492.02,-60.48"/>
</a>
</g>
</g>
<!-- Node8 -->
<g id="Node000008" class="node">
<title>Node8</title>
<g id="a_Node000008"><a xlink:href="labels__to__svg_8cpp_source.html" target="_top" xlink:title=" ">
<polygon fill="white" stroke="#666666" points="900.5,-30 796.5,-30 796.5,0 900.5,0 900.5,-30"/>
<text text-anchor="start" x="804.5" y="-18" font-family="Helvetica,sans-Serif" font-size="10.00">src/internal/labels</text>
<text text-anchor="middle" x="848.5" y="-7" font-family="Helvetica,sans-Serif" font-size="10.00">_to_svg.cpp</text>
</a>
</g>
</g>
<!-- Node1&#45;&gt;Node8 -->
<g id="edge7_Node000001_Node000008" class="edge">
<title>Node1&#45;&gt;Node8</title>
<g id="a_edge7_Node000001_Node000008"><a xlink:title=" ">
<path fill="none" stroke="#63b8ff" d="M506.55,-68.05C576.31,-60.69 690.19,-47.38 787.5,-30 790.39,-29.48 793.35,-28.92 796.33,-28.33"/>
<polygon fill="#63b8ff" stroke="#63b8ff" points="506.17,-64.57 496.58,-69.09 506.89,-71.53 506.17,-64.57"/>
</a>
</g>
</g>
</g>
</svg>
