<?xml version="1.0" encoding="UTF-8" standalone="no"?>
<!DOCTYPE svg PUBLIC "-//W3C//DTD SVG 1.1//EN"
 "http://www.w3.org/Graphics/SVG/1.1/DTD/svg11.dtd">
<!-- Generated by graphviz version 2.42.4 (0)
 -->
<!-- Title: Graphical Class Hierarchy Pages: 1 -->
<svg width="469pt" height="182pt"
 viewBox="0.00 0.00 469.00 182.00" xmlns="http://www.w3.org/2000/svg" xmlns:xlink="http://www.w3.org/1999/xlink">
<g id="graph0" class="graph" transform="scale(1 1) rotate(0) translate(4 178)">
<title>Graphical Class Hierarchy</title>
<!-- Node0 -->
<g id="Node000000" class="node">
<title>Node0</title>
<g id="a_Node000000"><a xlink:href="structImageLib_1_1Pixel.html" target="_top" xlink:title=" ">
<polygon fill="white" stroke="#666666" points="158,-120.5 0,-120.5 0,-101.5 158,-101.5 158,-120.5"/>
<text text-anchor="middle" x="79" y="-108.5" font-family="Helvetica,sans-Serif" font-size="10.00">ImageLib::Pixel&lt; NumberT &gt;</text>
</a>
</g>
</g>
<!-- Node1 -->
<g id="Node000001" class="node">
<title>Node1</title>
<g id="a_Node000001"><a xlink:href="structImageLib_1_1RGBPixel.html" target="_top" xlink:title=" ">
<polygon fill="white" stroke="#666666" points="306,-174 194,-174 194,-144 306,-144 306,-174"/>
<text text-anchor="start" x="202" y="-162" font-family="Helvetica,sans-Serif" font-size="10.00">ImageLib::RGBPixel</text>
<text text-anchor="middle" x="250" y="-151" font-family="Helvetica,sans-Serif" font-size="10.00">&lt; uint8_t &gt;</text>
</a>
</g>
</g>
<!-- Node0&#45;&gt;Node1 -->
<g id="edge2_Node000000_Node000001" class="edge">
<title>Node0&#45;&gt;Node1</title>
<g id="a_edge2_Node000000_Node000001"><a xlink:title=" ">
<path fill="none" stroke="#63b8ff" d="M123.57,-123.37C145.66,-129.65 172.67,-137.32 195.97,-143.94"/>
<polygon fill="#63b8ff" stroke="#63b8ff" points="124.37,-119.96 113.79,-120.6 122.46,-126.7 124.37,-119.96"/>
</a>
</g>
</g>
<!-- Node2 -->
<g id="Node000002" class="node">
<title>Node2</title>
<g id="a_Node000002"><a xlink:href="structImageLib_1_1LABPixel.html" target="_top" xlink:title=" ">
<polygon fill="white" stroke="#666666" points="305,-126 195,-126 195,-96 305,-96 305,-126"/>
<text text-anchor="start" x="203" y="-114" font-family="Helvetica,sans-Serif" font-size="10.00">ImageLib::LABPixel</text>
<text text-anchor="middle" x="250" y="-103" font-family="Helvetica,sans-Serif" font-size="10.00">&lt; NumberT &gt;</text>
</a>
</g>
</g>
<!-- Node0&#45;&gt;Node2 -->
<g id="edge3_Node000000_Node000002" class="edge">
<title>Node0&#45;&gt;Node2</title>
<g id="a_edge3_Node000000_Node000002"><a xlink:title=" ">
<path fill="none" stroke="#63b8ff" d="M168.3,-111C177.37,-111 186.37,-111 194.9,-111"/>
<polygon fill="#63b8ff" stroke="#63b8ff" points="168.07,-107.5 158.07,-111 168.07,-114.5 168.07,-107.5"/>
</a>
</g>
</g>
<!-- Node4 -->
<g id="Node000004" class="node">
<title>Node4</title>
<g id="a_Node000004"><a xlink:href="structImageLib_1_1RGBPixel.html" target="_top" xlink:title=" ">
<polygon fill="white" stroke="#666666" points="306,-78 194,-78 194,-48 306,-48 306,-78"/>
<text text-anchor="start" x="202" y="-66" font-family="Helvetica,sans-Serif" font-size="10.00">ImageLib::RGBPixel</text>
<text text-anchor="middle" x="250" y="-55" font-family="Helvetica,sans-Serif" font-size="10.00">&lt; NumberT &gt;</text>
</a>
</g>
</g>
<!-- Node0&#45;&gt;Node4 -->
<g id="edge5_Node000000_Node000004" class="edge">
<title>Node0&#45;&gt;Node4</title>
<g id="a_edge5_Node000000_Node000004"><a xlink:title=" ">
<path fill="none" stroke="#63b8ff" d="M123.57,-98.63C145.66,-92.35 172.67,-84.68 195.97,-78.06"/>
<polygon fill="#63b8ff" stroke="#63b8ff" points="122.46,-95.3 113.79,-101.4 124.37,-102.04 122.46,-95.3"/>
</a>
</g>
</g>
<!-- Node3 -->
<g id="Node000003" class="node">
<title>Node3</title>
<g id="a_Node000003"><a xlink:href="structImageLib_1_1LABAPixel.html" target="_top" xlink:title=" ">
<polygon fill="white" stroke="#666666" points="460,-126 343,-126 343,-96 460,-96 460,-126"/>
<text text-anchor="start" x="351" y="-114" font-family="Helvetica,sans-Serif" font-size="10.00">ImageLib::LABAPixel</text>
<text text-anchor="middle" x="401.5" y="-103" font-family="Helvetica,sans-Serif" font-size="10.00">&lt; NumberT &gt;</text>
</a>
</g>
</g>
<!-- Node2&#45;&gt;Node3 -->
<g id="edge4_Node000002_Node000003" class="edge">
<title>Node2&#45;&gt;Node3</title>
<g id="a_edge4_Node000002_Node000003"><a xlink:title=" ">
<path fill="none" stroke="#63b8ff" d="M315.54,-111C324.63,-111 333.92,-111 342.87,-111"/>
<polygon fill="#63b8ff" stroke="#63b8ff" points="315.4,-107.5 305.4,-111 315.4,-114.5 315.4,-107.5"/>
</a>
</g>
</g>
<!-- Node5 -->
<g id="Node000005" class="node">
<title>Node5</title>
<g id="a_Node000005"><a xlink:href="structImageLib_1_1RGBAPixel.html" target="_top" xlink:title=" ">
<polygon fill="white" stroke="#666666" points="461,-78 342,-78 342,-48 461,-48 461,-78"/>
<text text-anchor="start" x="350" y="-66" font-family="Helvetica,sans-Serif" font-size="10.00">ImageLib::RGBAPixel</text>
<text text-anchor="middle" x="401.5" y="-55" font-family="Helvetica,sans-Serif" font-size="10.00">&lt; uint8_t &gt;</text>
</a>
</g>
</g>
<!-- Node4&#45;&gt;Node5 -->
<g id="edge6_Node000004_Node000005" class="edge">
<title>Node4&#45;&gt;Node5</title>
<g id="a_edge6_Node000004_Node000005"><a xlink:title=" ">
<path fill="none" stroke="#63b8ff" d="M316.48,-63C324.97,-63 333.61,-63 341.97,-63"/>
<polygon fill="#63b8ff" stroke="#63b8ff" points="316.24,-59.5 306.24,-63 316.24,-66.5 316.24,-59.5"/>
</a>
</g>
</g>
<!-- Node6 -->
<g id="Node000006" class="node">
<title>Node6</title>
<g id="a_Node000006"><a xlink:href="structImageLib_1_1RGBAPixel.html" target="_top" xlink:title=" ">
<polygon fill="white" stroke="#666666" points="461,-30 342,-30 342,0 461,0 461,-30"/>
<text text-anchor="start" x="350" y="-18" font-family="Helvetica,sans-Serif" font-size="10.00">ImageLib::RGBAPixel</text>
<text text-anchor="middle" x="401.5" y="-7" font-family="Helvetica,sans-Serif" font-size="10.00">&lt; NumberT &gt;</text>
</a>
</g>
</g>
<!-- Node4&#45;&gt;Node6 -->
<g id="edge7_Node000004_Node000006" class="edge">
<title>Node4&#45;&gt;Node6</title>
<g id="a_edge7_Node000004_Node000006"><a xlink:title=" ">
<path fill="none" stroke="#63b8ff" d="M307.7,-44.79C322.91,-39.91 339.18,-34.69 353.77,-30"/>
<polygon fill="#63b8ff" stroke="#63b8ff" points="306.34,-41.55 297.89,-47.94 308.48,-48.22 306.34,-41.55"/>
</a>
</g>
</g>
</g>
</svg>
