<?xml version="1.0" encoding="UTF-8" standalone="no"?>
<!DOCTYPE svg PUBLIC "-//W3C//DTD SVG 1.1//EN"
 "http://www.w3.org/Graphics/SVG/1.1/DTD/svg11.dtd">
<!-- Generated by graphviz version 2.42.4 (0)
 -->
<!-- Title: ColoredContours Pages: 1 -->
<svg width="100pt" height="187pt"
 viewBox="0.00 0.00 100.00 187.00" xmlns="http://www.w3.org/2000/svg" xmlns:xlink="http://www.w3.org/1999/xlink">

<svg id="main" version="1.1" xmlns="http://www.w3.org/2000/svg" xmlns:xlink="http://www.w3.org/1999/xlink" xml:space="preserve" onload="init(evt)">
<style type="text/css"><![CDATA[
.node, .edge {opacity: 0.7;}
.node.selected, .edge.selected {opacity: 1;}
.edge:hover path { stroke: red; }
.edge:hover polygon { stroke: red; fill: red; }
]]></style>
<script type="application/ecmascript" xlink:href="svg.min.js"/>
<svg id="graph" class="graph">
<g id="graph0" class="graph" transform="scale(1 1) rotate(0) translate(4 183)">
<title>ColoredContours</title>
<!-- Node1 -->
<g id="Node000001" class="node">
<title>Node1</title>
<g id="a_Node000001"><a xlink:title=" ">
<polygon fill="#999999" stroke="transparent" points="92,-49 0,-49 0,0 92,0 92,-49"/>
<text text-anchor="start" x="5" y="-36.5" font-family="Helvetica,sans-Serif" font-size="10.00">ColoredContours</text>
<text text-anchor="start" x="14" y="-21.5" font-family="Helvetica,sans-Serif" font-size="10.00">+</text>
<text text-anchor="start" x="37" y="-21.5" font-family="Helvetica,sans-Serif" font-size="10.00">colors</text>
<text text-anchor="start" x="44" y="-6.5" font-family="Helvetica,sans-Serif" font-size="10.00"> </text>
<polygon fill="#666666" stroke="#666666" points="0,-31.5 0,-31.5 92,-31.5 92,-31.5 0,-31.5"/>
<polygon fill="#666666" stroke="#666666" points="0,-16.5 0,-16.5 35,-16.5 35,-16.5 0,-16.5"/>
<polygon fill="#666666" stroke="#666666" points="35,-16.5 35,-16.5 92,-16.5 92,-16.5 35,-16.5"/>
<polygon fill="none" stroke="#666666" points="0,0 0,-49 92,-49 92,0 0,0"/>
</a>
</g>
</g>
<!-- Node2 -->
<g id="Node000002" class="node">
<title>Node2</title>
<g id="a_Node000002"><a xlink:href="structContoursResult.html" target="_top" xlink:title=" ">
<polygon fill="white" stroke="transparent" points="88.5,-179 3.5,-179 3.5,-85 88.5,-85 88.5,-179"/>
<text text-anchor="start" x="9" y="-167" font-family="Helvetica,sans-Serif" font-size="10.00">ContoursResult</text>
<text text-anchor="start" x="12.5" y="-152" font-family="Helvetica,sans-Serif" font-size="10.00">+</text>
<text text-anchor="start" x="30" y="-152" font-family="Helvetica,sans-Serif" font-size="10.00">contours</text>
<text text-anchor="start" x="12.5" y="-137" font-family="Helvetica,sans-Serif" font-size="10.00">+</text>
<text text-anchor="start" x="30" y="-137" font-family="Helvetica,sans-Serif" font-size="10.00">curves</text>
<text text-anchor="start" x="12.5" y="-122" font-family="Helvetica,sans-Serif" font-size="10.00">+</text>
<text text-anchor="start" x="30" y="-122" font-family="Helvetica,sans-Serif" font-size="10.00">hierarchy</text>
<text text-anchor="start" x="12.5" y="-107" font-family="Helvetica,sans-Serif" font-size="10.00">+</text>
<text text-anchor="start" x="30" y="-107" font-family="Helvetica,sans-Serif" font-size="10.00">is_hole</text>
<text text-anchor="start" x="44.5" y="-92" font-family="Helvetica,sans-Serif" font-size="10.00"> </text>
<polygon fill="#bfbfbf" stroke="#bfbfbf" points="4,-162 4,-162 89,-162 89,-162 4,-162"/>
<polygon fill="#bfbfbf" stroke="#bfbfbf" points="4,-102 4,-102 28,-102 28,-102 4,-102"/>
<polygon fill="#bfbfbf" stroke="#bfbfbf" points="28,-102 28,-102 89,-102 89,-102 28,-102"/>
<polygon fill="none" stroke="#bfbfbf" points="3.5,-85 3.5,-179 88.5,-179 88.5,-85 3.5,-85"/>
</a>
</g>
</g>
<!-- Node2&#45;&gt;Node1 -->
<g id="edge1_Node000001_Node000002" class="edge">
<title>Node2&#45;&gt;Node1</title>
<g id="a_edge1_Node000001_Node000002"><a xlink:title=" ">
<path fill="none" stroke="#63b8ff" d="M46,-74.59C46,-65.62 46,-56.79 46,-49.15"/>
<polygon fill="none" stroke="#63b8ff" points="42.5,-74.73 46,-84.73 49.5,-74.73 42.5,-74.73"/>
</a>
</g>
</g>
</g>
</svg>
</svg>

<style type='text/css'>
<![CDATA[
[data-mouse-over-selected='false'] { opacity: 0.7; }
[data-mouse-over-selected='true']  { opacity: 1.0; }
]]>
</style>
<script type="application/ecmascript"><![CDATA[
document.addEventListener('DOMContentLoaded', (event) => {
  highlightEdges();
  highlightAdjacentNodes();
});
]]></script>
</svg>
