<?xml version="1.0" encoding="UTF-8" standalone="no"?>
<!DOCTYPE svg PUBLIC "-//W3C//DTD SVG 1.1//EN"
 "http://www.w3.org/Graphics/SVG/1.1/DTD/svg11.dtd">
<!-- Generated by graphviz version 2.42.4 (0)
 -->
<!-- Title: ImageLib::PixelConverter&lt; ConverterT &gt; Pages: 1 -->
<svg width="141pt" height="83pt"
 viewBox="0.00 0.00 141.00 83.00" xmlns="http://www.w3.org/2000/svg" xmlns:xlink="http://www.w3.org/1999/xlink">
<g id="graph0" class="graph" transform="scale(1 1) rotate(0) translate(4 79)">
<title>ImageLib::PixelConverter&lt; ConverterT &gt;</title>
<!-- Node1 -->
<g id="Node000001" class="node">
<title>Node1</title>
<g id="a_Node000001"><a xlink:title=" ">
<polygon fill="#999999" stroke="transparent" points="133,-75 0,-75 0,0 133,0 133,-75"/>
<text text-anchor="start" x="5.5" y="-62.5" font-family="Helvetica,sans-Serif" font-size="10.00">ImageLib::PixelConverter</text>
<text text-anchor="start" x="28.5" y="-51.5" font-family="Helvetica,sans-Serif" font-size="10.00">&lt; ConverterT &gt;</text>
<text text-anchor="start" x="12.5" y="-36.5" font-family="Helvetica,sans-Serif" font-size="10.00">+</text>
<text text-anchor="start" x="33.5" y="-36.5" font-family="Helvetica,sans-Serif" font-size="10.00">convert</text>
<text text-anchor="start" x="12.5" y="-21.5" font-family="Helvetica,sans-Serif" font-size="10.00">+</text>
<text text-anchor="start" x="33.5" y="-21.5" font-family="Helvetica,sans-Serif" font-size="10.00">bytesPerPixel</text>
<text text-anchor="start" x="12.5" y="-6.5" font-family="Helvetica,sans-Serif" font-size="10.00">+</text>
<text text-anchor="start" x="33.5" y="-6.5" font-family="Helvetica,sans-Serif" font-size="10.00">PixelConverter()</text>
<polygon fill="#666666" stroke="#666666" points="0.5,-46.5 0.5,-46.5 133.5,-46.5 133.5,-46.5 0.5,-46.5"/>
<polygon fill="#666666" stroke="#666666" points="0.5,-16.5 0.5,-16.5 31.5,-16.5 31.5,-16.5 0.5,-16.5"/>
<polygon fill="#666666" stroke="#666666" points="31.5,-16.5 31.5,-16.5 133.5,-16.5 133.5,-16.5 31.5,-16.5"/>
<polygon fill="none" stroke="#666666" points="0,0 0,-75 133,-75 133,0 0,0"/>
</a>
</g>
</g>
</g>
</svg>
