<?xml version="1.0" encoding="UTF-8" standalone="no"?>
<!DOCTYPE svg PUBLIC "-//W3C//DTD SVG 1.1//EN"
 "http://www.w3.org/Graphics/SVG/1.1/DTD/svg11.dtd">
<!-- Generated by graphviz version 2.42.4 (0)
 -->
<!-- Title: ColoredContours Pages: 1 -->
<svg width="690pt" height="599pt"
 viewBox="0.00 0.00 689.50 599.00" xmlns="http://www.w3.org/2000/svg" xmlns:xlink="http://www.w3.org/1999/xlink">
<g id="graph0" class="graph" transform="scale(1 1) rotate(0) translate(4 595)">
<title>ColoredContours</title>
<!-- Node1 -->
<g id="Node000001" class="node">
<title>Node1</title>
<g id="a_Node000001"><a xlink:title=" ">
<polygon fill="#999999" stroke="transparent" points="455.5,-49 363.5,-49 363.5,0 455.5,0 455.5,-49"/>
<text text-anchor="start" x="368.5" y="-36.5" font-family="Helvetica,sans-Serif" font-size="10.00">ColoredContours</text>
<text text-anchor="start" x="407.5" y="-21.5" font-family="Helvetica,sans-Serif" font-size="10.00"> </text>
<text text-anchor="start" x="407.5" y="-6.5" font-family="Helvetica,sans-Serif" font-size="10.00"> </text>
<polygon fill="#666666" stroke="#666666" points="363.5,-31.5 363.5,-31.5 455.5,-31.5 455.5,-31.5 363.5,-31.5"/>
<polygon fill="#666666" stroke="#666666" points="363.5,-16.5 363.5,-16.5 455.5,-16.5 455.5,-16.5 363.5,-16.5"/>
<polygon fill="none" stroke="#666666" points="363.5,0 363.5,-49 455.5,-49 455.5,0 363.5,0"/>
</a>
</g>
</g>
<!-- Node2 -->
<g id="Node000002" class="node">
<title>Node2</title>
<g id="a_Node000002"><a xlink:href="structContoursResult.html" target="_top" xlink:title=" ">
<polygon fill="white" stroke="transparent" points="389,-150.5 304,-150.5 304,-101.5 389,-101.5 389,-150.5"/>
<text text-anchor="start" x="309.5" y="-138" font-family="Helvetica,sans-Serif" font-size="10.00">ContoursResult</text>
<text text-anchor="start" x="345" y="-123" font-family="Helvetica,sans-Serif" font-size="10.00"> </text>
<text text-anchor="start" x="345" y="-108" font-family="Helvetica,sans-Serif" font-size="10.00"> </text>
<polygon fill="#bfbfbf" stroke="#bfbfbf" points="304.5,-133 304.5,-133 389.5,-133 389.5,-133 304.5,-133"/>
<polygon fill="#bfbfbf" stroke="#bfbfbf" points="304.5,-118 304.5,-118 389.5,-118 389.5,-118 304.5,-118"/>
<polygon fill="none" stroke="#bfbfbf" points="304,-101.5 304,-150.5 389,-150.5 389,-101.5 304,-101.5"/>
</a>
</g>
</g>
<!-- Node2&#45;&gt;Node1 -->
<g id="edge1_Node000001_Node000002" class="edge">
<title>Node2&#45;&gt;Node1</title>
<g id="a_edge1_Node000001_Node000002"><a xlink:title=" ">
<path fill="none" stroke="#63b8ff" d="M366.81,-92.92C375.8,-78.72 386.18,-62.33 394.46,-49.26"/>
<polygon fill="none" stroke="#63b8ff" points="363.82,-91.1 361.43,-101.42 369.74,-94.84 363.82,-91.1"/>
</a>
</g>
</g>
<!-- Node3 -->
<g id="Node000003" class="node">
<title>Node3</title>
<g id="a_Node000003"><a xlink:title=" ">
<polygon fill="white" stroke="transparent" points="125,-285.5 0,-285.5 0,-225.5 125,-225.5 125,-285.5"/>
<text text-anchor="start" x="5.5" y="-273.5" font-family="Helvetica,sans-Serif" font-size="10.00">std::vector&lt; std::vector</text>
<text text-anchor="start" x="33.5" y="-262.5" font-family="Helvetica,sans-Serif" font-size="10.00">&lt; Point &gt; &gt;</text>
<text text-anchor="start" x="19" y="-247.5" font-family="Helvetica,sans-Serif" font-size="10.00">+</text>
<text text-anchor="start" x="46.5" y="-247.5" font-family="Helvetica,sans-Serif" font-size="10.00">elements</text>
<text text-anchor="start" x="61" y="-232.5" font-family="Helvetica,sans-Serif" font-size="10.00"> </text>
<polygon fill="#666666" stroke="#666666" points="0.5,-257.5 0.5,-257.5 125.5,-257.5 125.5,-257.5 0.5,-257.5"/>
<polygon fill="#666666" stroke="#666666" points="0.5,-242.5 0.5,-242.5 44.5,-242.5 44.5,-242.5 0.5,-242.5"/>
<polygon fill="#666666" stroke="#666666" points="44.5,-242.5 44.5,-242.5 125.5,-242.5 125.5,-242.5 44.5,-242.5"/>
<polygon fill="none" stroke="#666666" points="0,-225.5 0,-285.5 125,-285.5 125,-225.5 0,-225.5"/>
</a>
</g>
</g>
<!-- Node3&#45;&gt;Node2 -->
<g id="edge2_Node000002_Node000003" class="edge">
<title>Node3&#45;&gt;Node2</title>
<g id="a_edge2_Node000002_Node000003"><a xlink:title=" ">
<path fill="none" stroke="#63b8ff" d="M98.42,-225.41C109.28,-217.47 121.51,-209.32 133.5,-203 184.88,-175.91 248.01,-154.75 292.15,-141.71"/>
<polygon fill="none" stroke="#63b8ff" points="292.26,-141.68 296.91,-136.17 303.79,-138.33 299.14,-143.85 292.26,-141.68"/>
</a>
</g>
<text text-anchor="middle" x="223.5" y="-177" font-family="Helvetica,sans-Serif" font-size="10.00" fill="grey"> +contours</text>
</g>
<!-- Node4 -->
<g id="Node000004" class="node">
<title>Node4</title>
<g id="a_Node000004"><a xlink:title=" ">
<polygon fill="white" stroke="transparent" points="268,-285.5 143,-285.5 143,-225.5 268,-225.5 268,-285.5"/>
<text text-anchor="start" x="148.5" y="-273.5" font-family="Helvetica,sans-Serif" font-size="10.00">std::vector&lt; std::vector</text>
<text text-anchor="start" x="160.5" y="-262.5" font-family="Helvetica,sans-Serif" font-size="10.00">&lt; QuadBezier &gt; &gt;</text>
<text text-anchor="start" x="162" y="-247.5" font-family="Helvetica,sans-Serif" font-size="10.00">+</text>
<text text-anchor="start" x="189.5" y="-247.5" font-family="Helvetica,sans-Serif" font-size="10.00">elements</text>
<text text-anchor="start" x="204" y="-232.5" font-family="Helvetica,sans-Serif" font-size="10.00"> </text>
<polygon fill="#666666" stroke="#666666" points="143.5,-257.5 143.5,-257.5 268.5,-257.5 268.5,-257.5 143.5,-257.5"/>
<polygon fill="#666666" stroke="#666666" points="143.5,-242.5 143.5,-242.5 187.5,-242.5 187.5,-242.5 143.5,-242.5"/>
<polygon fill="#666666" stroke="#666666" points="187.5,-242.5 187.5,-242.5 268.5,-242.5 268.5,-242.5 187.5,-242.5"/>
<polygon fill="none" stroke="#666666" points="143,-225.5 143,-285.5 268,-285.5 268,-225.5 143,-225.5"/>
</a>
</g>
</g>
<!-- Node4&#45;&gt;Node2 -->
<g id="edge3_Node000002_Node000004" class="edge">
<title>Node4&#45;&gt;Node2</title>
<g id="a_edge3_Node000002_Node000004"><a xlink:title=" ">
<path fill="none" stroke="#63b8ff" d="M237.85,-225.25C259.86,-205.35 288.97,-179.03 311.51,-158.64"/>
<polygon fill="none" stroke="#63b8ff" points="311.52,-158.63 313.29,-151.64 320.43,-150.58 318.66,-157.57 311.52,-158.63"/>
</a>
</g>
<text text-anchor="middle" x="315.5" y="-177" font-family="Helvetica,sans-Serif" font-size="10.00" fill="grey"> +curves</text>
</g>
<!-- Node5 -->
<g id="Node000005" class="node">
<title>Node5</title>
<g id="a_Node000005"><a xlink:title=" ">
<polygon fill="white" stroke="transparent" points="406.5,-285.5 286.5,-285.5 286.5,-225.5 406.5,-225.5 406.5,-285.5"/>
<text text-anchor="start" x="291.5" y="-273.5" font-family="Helvetica,sans-Serif" font-size="10.00">std::vector&lt; std::array</text>
<text text-anchor="start" x="317" y="-262.5" font-family="Helvetica,sans-Serif" font-size="10.00">&lt; int, 4 &gt; &gt;</text>
<text text-anchor="start" x="344.5" y="-247.5" font-family="Helvetica,sans-Serif" font-size="10.00"> </text>
<text text-anchor="start" x="344.5" y="-232.5" font-family="Helvetica,sans-Serif" font-size="10.00"> </text>
<polygon fill="#666666" stroke="#666666" points="286.5,-257.5 286.5,-257.5 406.5,-257.5 406.5,-257.5 286.5,-257.5"/>
<polygon fill="#666666" stroke="#666666" points="286.5,-242.5 286.5,-242.5 406.5,-242.5 406.5,-242.5 286.5,-242.5"/>
<polygon fill="none" stroke="#666666" points="286.5,-225.5 286.5,-285.5 406.5,-285.5 406.5,-225.5 286.5,-225.5"/>
</a>
</g>
</g>
<!-- Node5&#45;&gt;Node2 -->
<g id="edge4_Node000002_Node000005" class="edge">
<title>Node5&#45;&gt;Node2</title>
<g id="a_edge4_Node000002_Node000005"><a xlink:title=" ">
<path fill="none" stroke="#63b8ff" d="M346.5,-225.25C346.5,-206.67 346.5,-182.51 346.5,-162.79"/>
<polygon fill="none" stroke="#63b8ff" points="346.5,-162.58 342.5,-156.58 346.5,-150.58 350.5,-156.58 346.5,-162.58"/>
</a>
</g>
<text text-anchor="middle" x="375.5" y="-177" font-family="Helvetica,sans-Serif" font-size="10.00" fill="grey"> +hierarchy</text>
</g>
<!-- Node6 -->
<g id="Node000006" class="node">
<title>Node6</title>
<g id="a_Node000006"><a xlink:title=" ">
<polygon fill="white" stroke="transparent" points="398.5,-454.5 294.5,-454.5 294.5,-405.5 398.5,-405.5 398.5,-454.5"/>
<text text-anchor="start" x="299.5" y="-442" font-family="Helvetica,sans-Serif" font-size="10.00">std::array&lt; int, 4 &gt;</text>
<text text-anchor="start" x="307.5" y="-427" font-family="Helvetica,sans-Serif" font-size="10.00">+</text>
<text text-anchor="start" x="329.5" y="-427" font-family="Helvetica,sans-Serif" font-size="10.00">elements</text>
<text text-anchor="start" x="344.5" y="-412" font-family="Helvetica,sans-Serif" font-size="10.00"> </text>
<polygon fill="#666666" stroke="#666666" points="294.5,-437 294.5,-437 398.5,-437 398.5,-437 294.5,-437"/>
<polygon fill="#666666" stroke="#666666" points="294.5,-422 294.5,-422 327.5,-422 327.5,-422 294.5,-422"/>
<polygon fill="#666666" stroke="#666666" points="327.5,-422 327.5,-422 398.5,-422 398.5,-422 327.5,-422"/>
<polygon fill="none" stroke="#666666" points="294.5,-405.5 294.5,-454.5 398.5,-454.5 398.5,-405.5 294.5,-405.5"/>
</a>
</g>
</g>
<!-- Node6&#45;&gt;Node5 -->
<g id="edge5_Node000005_Node000006" class="edge">
<title>Node6&#45;&gt;Node5</title>
<g id="a_edge5_Node000005_Node000006"><a xlink:title=" ">
<path fill="none" stroke="#63b8ff" d="M346.5,-405.38C346.5,-377.72 346.5,-331.43 346.5,-297.8"/>
<polygon fill="none" stroke="#63b8ff" points="346.5,-297.59 342.5,-291.59 346.5,-285.59 350.5,-291.59 346.5,-297.59"/>
</a>
</g>
<text text-anchor="middle" x="375.5" y="-329" font-family="Helvetica,sans-Serif" font-size="10.00" fill="grey"> +elements</text>
</g>
<!-- Node7 -->
<g id="Node000007" class="node">
<title>Node7</title>
<g id="a_Node000007"><a xlink:title=" ">
<polygon fill="white" stroke="transparent" points="530.5,-280 424.5,-280 424.5,-231 530.5,-231 530.5,-280"/>
<text text-anchor="start" x="429.5" y="-267.5" font-family="Helvetica,sans-Serif" font-size="10.00">std::vector&lt; bool &gt;</text>
<text text-anchor="start" x="438" y="-252.5" font-family="Helvetica,sans-Serif" font-size="10.00">+</text>
<text text-anchor="start" x="460.5" y="-252.5" font-family="Helvetica,sans-Serif" font-size="10.00">elements</text>
<text text-anchor="start" x="475.5" y="-237.5" font-family="Helvetica,sans-Serif" font-size="10.00"> </text>
<polygon fill="#666666" stroke="#666666" points="424.5,-262.5 424.5,-262.5 530.5,-262.5 530.5,-262.5 424.5,-262.5"/>
<polygon fill="#666666" stroke="#666666" points="424.5,-247.5 424.5,-247.5 458.5,-247.5 458.5,-247.5 424.5,-247.5"/>
<polygon fill="#666666" stroke="#666666" points="458.5,-247.5 458.5,-247.5 530.5,-247.5 530.5,-247.5 458.5,-247.5"/>
<polygon fill="none" stroke="#666666" points="424.5,-231 424.5,-280 530.5,-280 530.5,-231 424.5,-231"/>
</a>
</g>
</g>
<!-- Node7&#45;&gt;Node2 -->
<g id="edge6_Node000002_Node000007" class="edge">
<title>Node7&#45;&gt;Node2</title>
<g id="a_edge6_Node000002_Node000007"><a xlink:title=" ">
<path fill="none" stroke="#63b8ff" d="M459.39,-230.78C446.14,-214.09 427.26,-191.67 408.5,-174 402.82,-168.65 396.55,-163.33 390.24,-158.28"/>
<polygon fill="none" stroke="#63b8ff" points="389.86,-157.99 382.67,-157.47 380.38,-150.63 387.57,-151.15 389.86,-157.99"/>
</a>
</g>
<text text-anchor="middle" x="442.5" y="-177" font-family="Helvetica,sans-Serif" font-size="10.00" fill="grey"> +is_hole</text>
</g>
<!-- Node8 -->
<g id="Node000008" class="node">
<title>Node8</title>
<g id="a_Node000008"><a xlink:title=" ">
<polygon fill="white" stroke="transparent" points="592,-156 457,-156 457,-96 592,-96 592,-156"/>
<text text-anchor="start" x="462.5" y="-144" font-family="Helvetica,sans-Serif" font-size="10.00">std::vector&lt; ImageLib</text>
<text text-anchor="start" x="462.5" y="-133" font-family="Helvetica,sans-Serif" font-size="10.00">::RGBAPixel&lt; uint8_t &gt; &gt;</text>
<text text-anchor="start" x="523" y="-118" font-family="Helvetica,sans-Serif" font-size="10.00"> </text>
<text text-anchor="start" x="523" y="-103" font-family="Helvetica,sans-Serif" font-size="10.00"> </text>
<polygon fill="#666666" stroke="#666666" points="457.5,-128 457.5,-128 592.5,-128 592.5,-128 457.5,-128"/>
<polygon fill="#666666" stroke="#666666" points="457.5,-113 457.5,-113 592.5,-113 592.5,-113 457.5,-113"/>
<polygon fill="none" stroke="#666666" points="457,-96 457,-156 592,-156 592,-96 457,-96"/>
</a>
</g>
</g>
<!-- Node8&#45;&gt;Node1 -->
<g id="edge7_Node000001_Node000008" class="edge">
<title>Node8&#45;&gt;Node1</title>
<g id="a_edge7_Node000001_Node000008"><a xlink:title=" ">
<path fill="none" stroke="#63b8ff" d="M490.93,-95.95C476.79,-83.72 460.3,-69.45 445.87,-56.97"/>
<polygon fill="none" stroke="#63b8ff" points="445.81,-56.91 438.65,-56.01 436.73,-49.06 443.89,-49.96 445.81,-56.91"/>
</a>
</g>
<text text-anchor="middle" x="488" y="-70" font-family="Helvetica,sans-Serif" font-size="10.00" fill="grey"> +colors</text>
</g>
<!-- Node9 -->
<g id="Node000009" class="node">
<title>Node9</title>
<g id="a_Node000009"><a xlink:href="structImageLib_1_1RGBAPixel.html" target="_top" xlink:title=" ">
<polygon fill="white" stroke="transparent" points="662,-308 549,-308 549,-203 662,-203 662,-308"/>
<text text-anchor="start" x="554.5" y="-295.5" font-family="Helvetica,sans-Serif" font-size="10.00">ImageLib::RGBAPixel</text>
<text text-anchor="start" x="577.5" y="-284.5" font-family="Helvetica,sans-Serif" font-size="10.00">&lt; uint8_t &gt;</text>
<text text-anchor="start" x="560" y="-269.5" font-family="Helvetica,sans-Serif" font-size="10.00">+</text>
<text text-anchor="start" x="579.5" y="-269.5" font-family="Helvetica,sans-Serif" font-size="10.00">alpha</text>
<text text-anchor="start" x="560" y="-254.5" font-family="Helvetica,sans-Serif" font-size="10.00">+</text>
<text text-anchor="start" x="579.5" y="-254.5" font-family="Helvetica,sans-Serif" font-size="10.00">RGBAPixel()</text>
<text text-anchor="start" x="560" y="-239.5" font-family="Helvetica,sans-Serif" font-size="10.00">+</text>
<text text-anchor="start" x="579.5" y="-239.5" font-family="Helvetica,sans-Serif" font-size="10.00">operator==()</text>
<text text-anchor="start" x="560" y="-224.5" font-family="Helvetica,sans-Serif" font-size="10.00">+</text>
<text text-anchor="start" x="579.5" y="-224.5" font-family="Helvetica,sans-Serif" font-size="10.00">operator!=()</text>
<text text-anchor="start" x="560" y="-209.5" font-family="Helvetica,sans-Serif" font-size="10.00">+</text>
<text text-anchor="start" x="579.5" y="-209.5" font-family="Helvetica,sans-Serif" font-size="10.00">setGray()</text>
<polygon fill="#bfbfbf" stroke="#bfbfbf" points="549.5,-279.5 549.5,-279.5 662.5,-279.5 662.5,-279.5 549.5,-279.5"/>
<polygon fill="#bfbfbf" stroke="#bfbfbf" points="549.5,-264.5 549.5,-264.5 577.5,-264.5 577.5,-264.5 549.5,-264.5"/>
<polygon fill="#bfbfbf" stroke="#bfbfbf" points="577.5,-264.5 577.5,-264.5 662.5,-264.5 662.5,-264.5 577.5,-264.5"/>
<polygon fill="none" stroke="#bfbfbf" points="549,-203 549,-308 662,-308 662,-203 549,-203"/>
</a>
</g>
</g>
<!-- Node9&#45;&gt;Node8 -->
<g id="edge8_Node000008_Node000009" class="edge">
<title>Node9&#45;&gt;Node8</title>
<g id="a_edge8_Node000008_Node000009"><a xlink:title=" ">
<path fill="none" stroke="#63b8ff" d="M572.55,-202.64C564.84,-190.5 556.75,-177.76 549.45,-166.28"/>
<polygon fill="none" stroke="#63b8ff" points="549.44,-166.26 542.85,-163.34 543.01,-156.13 549.6,-159.05 549.44,-166.26"/>
</a>
</g>
<text text-anchor="middle" x="588.5" y="-177" font-family="Helvetica,sans-Serif" font-size="10.00" fill="grey"> +elements</text>
</g>
<!-- Node10 -->
<g id="Node000010" class="node">
<title>Node10</title>
<g id="a_Node000010"><a xlink:href="structImageLib_1_1RGBPixel.html" target="_top" xlink:title=" ">
<polygon fill="white" stroke="transparent" points="658.5,-505 552.5,-505 552.5,-355 658.5,-355 658.5,-505"/>
<text text-anchor="start" x="557.5" y="-493" font-family="Helvetica,sans-Serif" font-size="10.00">ImageLib::RGBPixel</text>
<text text-anchor="start" x="571.5" y="-482" font-family="Helvetica,sans-Serif" font-size="10.00">&lt; NumberT &gt;</text>
<text text-anchor="start" x="559" y="-467" font-family="Helvetica,sans-Serif" font-size="10.00">+</text>
<text text-anchor="start" x="574.5" y="-467" font-family="Helvetica,sans-Serif" font-size="10.00">red</text>
<text text-anchor="start" x="559" y="-452" font-family="Helvetica,sans-Serif" font-size="10.00">+</text>
<text text-anchor="start" x="574.5" y="-452" font-family="Helvetica,sans-Serif" font-size="10.00">green</text>
<text text-anchor="start" x="559" y="-437" font-family="Helvetica,sans-Serif" font-size="10.00">+</text>
<text text-anchor="start" x="574.5" y="-437" font-family="Helvetica,sans-Serif" font-size="10.00">blue</text>
<text text-anchor="start" x="559" y="-422" font-family="Helvetica,sans-Serif" font-size="10.00">+</text>
<text text-anchor="start" x="574.5" y="-422" font-family="Helvetica,sans-Serif" font-size="10.00">RGBPixel()</text>
<text text-anchor="start" x="559" y="-407" font-family="Helvetica,sans-Serif" font-size="10.00">+</text>
<text text-anchor="start" x="574.5" y="-407" font-family="Helvetica,sans-Serif" font-size="10.00">operator==()</text>
<text text-anchor="start" x="559" y="-392" font-family="Helvetica,sans-Serif" font-size="10.00">+</text>
<text text-anchor="start" x="574.5" y="-392" font-family="Helvetica,sans-Serif" font-size="10.00">operator!=()</text>
<text text-anchor="start" x="559" y="-377" font-family="Helvetica,sans-Serif" font-size="10.00">+</text>
<text text-anchor="start" x="574.5" y="-377" font-family="Helvetica,sans-Serif" font-size="10.00">setGray()</text>
<text text-anchor="start" x="559" y="-362" font-family="Helvetica,sans-Serif" font-size="10.00">+</text>
<text text-anchor="start" x="574.5" y="-362" font-family="Helvetica,sans-Serif" font-size="10.00">colorDistance()</text>
<polygon fill="#bfbfbf" stroke="#bfbfbf" points="552.5,-477 552.5,-477 658.5,-477 658.5,-477 552.5,-477"/>
<polygon fill="#bfbfbf" stroke="#bfbfbf" points="552.5,-432 552.5,-432 572.5,-432 572.5,-432 552.5,-432"/>
<polygon fill="#bfbfbf" stroke="#bfbfbf" points="572.5,-432 572.5,-432 658.5,-432 658.5,-432 572.5,-432"/>
<polygon fill="none" stroke="#bfbfbf" points="552.5,-355 552.5,-505 658.5,-505 658.5,-355 552.5,-355"/>
</a>
</g>
</g>
<!-- Node10&#45;&gt;Node9 -->
<g id="edge9_Node000009_Node000010" class="edge">
<title>Node10&#45;&gt;Node9</title>
<g id="a_edge9_Node000009_Node000010"><a xlink:title=" ">
<path fill="none" stroke="#63b8ff" d="M605.5,-344.48C605.5,-332.1 605.5,-319.68 605.5,-308.23"/>
<polygon fill="none" stroke="#63b8ff" points="602,-344.84 605.5,-354.84 609,-344.84 602,-344.84"/>
</a>
</g>
</g>
<!-- Node11 -->
<g id="Node000011" class="node">
<title>Node11</title>
<g id="a_Node000011"><a xlink:href="structImageLib_1_1Pixel.html" target="_top" xlink:title=" ">
<polygon fill="white" stroke="transparent" points="681.5,-591 529.5,-591 529.5,-542 681.5,-542 681.5,-591"/>
<text text-anchor="start" x="534.5" y="-578.5" font-family="Helvetica,sans-Serif" font-size="10.00">ImageLib::Pixel&lt; NumberT &gt;</text>
<text text-anchor="start" x="603.5" y="-563.5" font-family="Helvetica,sans-Serif" font-size="10.00"> </text>
<text text-anchor="start" x="556" y="-548.5" font-family="Helvetica,sans-Serif" font-size="10.00">+</text>
<text text-anchor="start" x="591.5" y="-548.5" font-family="Helvetica,sans-Serif" font-size="10.00">~Pixel()</text>
<polygon fill="#bfbfbf" stroke="#bfbfbf" points="529.5,-573.5 529.5,-573.5 681.5,-573.5 681.5,-573.5 529.5,-573.5"/>
<polygon fill="#bfbfbf" stroke="#bfbfbf" points="529.5,-558.5 529.5,-558.5 681.5,-558.5 681.5,-558.5 529.5,-558.5"/>
<polygon fill="none" stroke="#bfbfbf" points="529.5,-542 529.5,-591 681.5,-591 681.5,-542 529.5,-542"/>
</a>
</g>
</g>
<!-- Node11&#45;&gt;Node10 -->
<g id="edge10_Node000010_Node000011" class="edge">
<title>Node11&#45;&gt;Node10</title>
<g id="a_edge10_Node000010_Node000011"><a xlink:title=" ">
<path fill="none" stroke="#63b8ff" d="M605.5,-531.55C605.5,-523.35 605.5,-514.27 605.5,-505.01"/>
<polygon fill="none" stroke="#63b8ff" points="602,-531.76 605.5,-541.76 609,-531.76 602,-531.76"/>
</a>
</g>
</g>
</g>
</svg>
