<?xml version="1.0" encoding="UTF-8" standalone="no"?>
<!DOCTYPE svg PUBLIC "-//W3C//DTD SVG 1.1//EN"
 "http://www.w3.org/Graphics/SVG/1.1/DTD/svg11.dtd">
<!-- Generated by graphviz version 2.42.4 (0)
 -->
<!-- Title: ImageLib::RGBPixel&lt; NumberT &gt; Pages: 1 -->
<svg width="252pt" height="384pt"
 viewBox="0.00 0.00 252.00 384.00" xmlns="http://www.w3.org/2000/svg" xmlns:xlink="http://www.w3.org/1999/xlink">
<g id="graph0" class="graph" transform="scale(1 1) rotate(0) translate(4 380)">
<title>ImageLib::RGBPixel&lt; NumberT &gt;</title>
<!-- Node1 -->
<g id="Node000001" class="node">
<title>Node1</title>
<g id="a_Node000001"><a xlink:title=" ">
<polygon fill="#999999" stroke="transparent" points="174.5,-291 68.5,-291 68.5,-141 174.5,-141 174.5,-291"/>
<text text-anchor="start" x="73.5" y="-279" font-family="Helvetica,sans-Serif" font-size="10.00">ImageLib::RGBPixel</text>
<text text-anchor="start" x="87.5" y="-268" font-family="Helvetica,sans-Serif" font-size="10.00">&lt; NumberT &gt;</text>
<text text-anchor="start" x="75" y="-253" font-family="Helvetica,sans-Serif" font-size="10.00">+</text>
<text text-anchor="start" x="90.5" y="-253" font-family="Helvetica,sans-Serif" font-size="10.00">red</text>
<text text-anchor="start" x="75" y="-238" font-family="Helvetica,sans-Serif" font-size="10.00">+</text>
<text text-anchor="start" x="90.5" y="-238" font-family="Helvetica,sans-Serif" font-size="10.00">green</text>
<text text-anchor="start" x="75" y="-223" font-family="Helvetica,sans-Serif" font-size="10.00">+</text>
<text text-anchor="start" x="90.5" y="-223" font-family="Helvetica,sans-Serif" font-size="10.00">blue</text>
<text text-anchor="start" x="75" y="-208" font-family="Helvetica,sans-Serif" font-size="10.00">+</text>
<text text-anchor="start" x="90.5" y="-208" font-family="Helvetica,sans-Serif" font-size="10.00">RGBPixel()</text>
<text text-anchor="start" x="75" y="-193" font-family="Helvetica,sans-Serif" font-size="10.00">+</text>
<text text-anchor="start" x="90.5" y="-193" font-family="Helvetica,sans-Serif" font-size="10.00">operator==()</text>
<text text-anchor="start" x="75" y="-178" font-family="Helvetica,sans-Serif" font-size="10.00">+</text>
<text text-anchor="start" x="90.5" y="-178" font-family="Helvetica,sans-Serif" font-size="10.00">operator!=()</text>
<text text-anchor="start" x="75" y="-163" font-family="Helvetica,sans-Serif" font-size="10.00">+</text>
<text text-anchor="start" x="90.5" y="-163" font-family="Helvetica,sans-Serif" font-size="10.00">setGray()</text>
<text text-anchor="start" x="75" y="-148" font-family="Helvetica,sans-Serif" font-size="10.00">+</text>
<text text-anchor="start" x="90.5" y="-148" font-family="Helvetica,sans-Serif" font-size="10.00">colorDistance()</text>
<polygon fill="#666666" stroke="#666666" points="68.5,-263 68.5,-263 174.5,-263 174.5,-263 68.5,-263"/>
<polygon fill="#666666" stroke="#666666" points="68.5,-218 68.5,-218 88.5,-218 88.5,-218 68.5,-218"/>
<polygon fill="#666666" stroke="#666666" points="88.5,-218 88.5,-218 174.5,-218 174.5,-218 88.5,-218"/>
<polygon fill="none" stroke="#666666" points="68.5,-141 68.5,-291 174.5,-291 174.5,-141 68.5,-141"/>
</a>
</g>
</g>
<!-- Node3 -->
<g id="Node000003" class="node">
<title>Node3</title>
<g id="a_Node000003"><a xlink:href="structImageLib_1_1RGBAPixel.html" target="_top" xlink:title=" ">
<polygon fill="white" stroke="transparent" points="113,-105 0,-105 0,0 113,0 113,-105"/>
<text text-anchor="start" x="5.5" y="-92.5" font-family="Helvetica,sans-Serif" font-size="10.00">ImageLib::RGBAPixel</text>
<text text-anchor="start" x="28.5" y="-81.5" font-family="Helvetica,sans-Serif" font-size="10.00">&lt; uint8_t &gt;</text>
<text text-anchor="start" x="11" y="-66.5" font-family="Helvetica,sans-Serif" font-size="10.00">+</text>
<text text-anchor="start" x="30.5" y="-66.5" font-family="Helvetica,sans-Serif" font-size="10.00">alpha</text>
<text text-anchor="start" x="11" y="-51.5" font-family="Helvetica,sans-Serif" font-size="10.00">+</text>
<text text-anchor="start" x="30.5" y="-51.5" font-family="Helvetica,sans-Serif" font-size="10.00">RGBAPixel()</text>
<text text-anchor="start" x="11" y="-36.5" font-family="Helvetica,sans-Serif" font-size="10.00">+</text>
<text text-anchor="start" x="30.5" y="-36.5" font-family="Helvetica,sans-Serif" font-size="10.00">operator==()</text>
<text text-anchor="start" x="11" y="-21.5" font-family="Helvetica,sans-Serif" font-size="10.00">+</text>
<text text-anchor="start" x="30.5" y="-21.5" font-family="Helvetica,sans-Serif" font-size="10.00">operator!=()</text>
<text text-anchor="start" x="11" y="-6.5" font-family="Helvetica,sans-Serif" font-size="10.00">+</text>
<text text-anchor="start" x="30.5" y="-6.5" font-family="Helvetica,sans-Serif" font-size="10.00">setGray()</text>
<polygon fill="#bfbfbf" stroke="#bfbfbf" points="0.5,-76.5 0.5,-76.5 113.5,-76.5 113.5,-76.5 0.5,-76.5"/>
<polygon fill="#bfbfbf" stroke="#bfbfbf" points="0.5,-61.5 0.5,-61.5 28.5,-61.5 28.5,-61.5 0.5,-61.5"/>
<polygon fill="#bfbfbf" stroke="#bfbfbf" points="28.5,-61.5 28.5,-61.5 113.5,-61.5 113.5,-61.5 28.5,-61.5"/>
<polygon fill="none" stroke="#bfbfbf" points="0,0 0,-105 113,-105 113,0 0,0"/>
</a>
</g>
</g>
<!-- Node1&#45;&gt;Node3 -->
<g id="edge2_Node000001_Node000003" class="edge">
<title>Node1&#45;&gt;Node3</title>
<g id="a_edge2_Node000001_Node000003"><a xlink:title=" ">
<path fill="none" stroke="#63b8ff" d="M87.89,-131.48C84.26,-122.48 80.65,-113.51 77.25,-105.05"/>
<polygon fill="none" stroke="#63b8ff" points="84.68,-132.9 91.66,-140.87 91.18,-130.28 84.68,-132.9"/>
</a>
</g>
</g>
<!-- Node4 -->
<g id="Node000004" class="node">
<title>Node4</title>
<g id="a_Node000004"><a xlink:href="structImageLib_1_1RGBAPixel.html" target="_top" xlink:title=" ">
<polygon fill="white" stroke="transparent" points="244,-105 131,-105 131,0 244,0 244,-105"/>
<text text-anchor="start" x="136.5" y="-92.5" font-family="Helvetica,sans-Serif" font-size="10.00">ImageLib::RGBAPixel</text>
<text text-anchor="start" x="154" y="-81.5" font-family="Helvetica,sans-Serif" font-size="10.00">&lt; NumberT &gt;</text>
<text text-anchor="start" x="142" y="-66.5" font-family="Helvetica,sans-Serif" font-size="10.00">+</text>
<text text-anchor="start" x="161.5" y="-66.5" font-family="Helvetica,sans-Serif" font-size="10.00">alpha</text>
<text text-anchor="start" x="142" y="-51.5" font-family="Helvetica,sans-Serif" font-size="10.00">+</text>
<text text-anchor="start" x="161.5" y="-51.5" font-family="Helvetica,sans-Serif" font-size="10.00">RGBAPixel()</text>
<text text-anchor="start" x="142" y="-36.5" font-family="Helvetica,sans-Serif" font-size="10.00">+</text>
<text text-anchor="start" x="161.5" y="-36.5" font-family="Helvetica,sans-Serif" font-size="10.00">operator==()</text>
<text text-anchor="start" x="142" y="-21.5" font-family="Helvetica,sans-Serif" font-size="10.00">+</text>
<text text-anchor="start" x="161.5" y="-21.5" font-family="Helvetica,sans-Serif" font-size="10.00">operator!=()</text>
<text text-anchor="start" x="142" y="-6.5" font-family="Helvetica,sans-Serif" font-size="10.00">+</text>
<text text-anchor="start" x="161.5" y="-6.5" font-family="Helvetica,sans-Serif" font-size="10.00">setGray()</text>
<polygon fill="#bfbfbf" stroke="#bfbfbf" points="131.5,-76.5 131.5,-76.5 244.5,-76.5 244.5,-76.5 131.5,-76.5"/>
<polygon fill="#bfbfbf" stroke="#bfbfbf" points="131.5,-61.5 131.5,-61.5 159.5,-61.5 159.5,-61.5 131.5,-61.5"/>
<polygon fill="#bfbfbf" stroke="#bfbfbf" points="159.5,-61.5 159.5,-61.5 244.5,-61.5 244.5,-61.5 159.5,-61.5"/>
<polygon fill="none" stroke="#bfbfbf" points="131,0 131,-105 244,-105 244,0 131,0"/>
</a>
</g>
</g>
<!-- Node1&#45;&gt;Node4 -->
<g id="edge3_Node000001_Node000004" class="edge">
<title>Node1&#45;&gt;Node4</title>
<g id="a_edge3_Node000001_Node000004"><a xlink:title=" ">
<path fill="none" stroke="#63b8ff" d="M155.63,-131.48C159.31,-122.48 162.97,-113.51 166.43,-105.05"/>
<polygon fill="none" stroke="#63b8ff" points="152.34,-130.29 151.8,-140.87 158.82,-132.93 152.34,-130.29"/>
</a>
</g>
</g>
<!-- Node2 -->
<g id="Node000002" class="node">
<title>Node2</title>
<g id="a_Node000002"><a xlink:href="structImageLib_1_1Pixel.html" target="_top" xlink:title=" ">
<polygon fill="white" stroke="transparent" points="197.5,-376 45.5,-376 45.5,-327 197.5,-327 197.5,-376"/>
<text text-anchor="start" x="50.5" y="-363.5" font-family="Helvetica,sans-Serif" font-size="10.00">ImageLib::Pixel&lt; NumberT &gt;</text>
<text text-anchor="start" x="119.5" y="-348.5" font-family="Helvetica,sans-Serif" font-size="10.00"> </text>
<text text-anchor="start" x="72" y="-333.5" font-family="Helvetica,sans-Serif" font-size="10.00">+</text>
<text text-anchor="start" x="107.5" y="-333.5" font-family="Helvetica,sans-Serif" font-size="10.00">~Pixel()</text>
<polygon fill="#bfbfbf" stroke="#bfbfbf" points="45.5,-358.5 45.5,-358.5 197.5,-358.5 197.5,-358.5 45.5,-358.5"/>
<polygon fill="#bfbfbf" stroke="#bfbfbf" points="45.5,-343.5 45.5,-343.5 197.5,-343.5 197.5,-343.5 45.5,-343.5"/>
<polygon fill="none" stroke="#bfbfbf" points="45.5,-327 45.5,-376 197.5,-376 197.5,-327 45.5,-327"/>
</a>
</g>
</g>
<!-- Node2&#45;&gt;Node1 -->
<g id="edge1_Node000001_Node000002" class="edge">
<title>Node2&#45;&gt;Node1</title>
<g id="a_edge1_Node000001_Node000002"><a xlink:title=" ">
<path fill="none" stroke="#63b8ff" d="M121.5,-316.69C121.5,-308.75 121.5,-299.98 121.5,-291.03"/>
<polygon fill="none" stroke="#63b8ff" points="118,-316.94 121.5,-326.94 125,-316.94 118,-316.94"/>
</a>
</g>
</g>
</g>
</svg>
