<?xml version="1.0" encoding="UTF-8" standalone="no"?>
<!DOCTYPE svg PUBLIC "-//W3C//DTD SVG 1.1//EN"
 "http://www.w3.org/Graphics/SVG/1.1/DTD/svg11.dtd">
<!-- Generated by graphviz version 2.42.4 (0)
 -->
<!-- Title: ImageLib::Pixel&lt; NumberT &gt; Pages: 1 -->
<svg width="498pt" height="384pt"
 viewBox="0.00 0.00 497.50 384.00" xmlns="http://www.w3.org/2000/svg" xmlns:xlink="http://www.w3.org/1999/xlink">

<svg id="main" version="1.1" xmlns="http://www.w3.org/2000/svg" xmlns:xlink="http://www.w3.org/1999/xlink" xml:space="preserve" onload="init(evt)">
<style type="text/css"><![CDATA[
.node, .edge {opacity: 0.7;}
.node.selected, .edge.selected {opacity: 1;}
.edge:hover path { stroke: red; }
.edge:hover polygon { stroke: red; fill: red; }
]]></style>
<script type="application/ecmascript" xlink:href="svg.min.js"/>
<svg id="graph" class="graph">
<g id="graph0" class="graph" transform="scale(1 1) rotate(0) translate(4 380)">
<title>ImageLib::Pixel&lt; NumberT &gt;</title>
<!-- Node1 -->
<g id="Node000001" class="node">
<title>Node1</title>
<g id="a_Node000001"><a xlink:title=" ">
<polygon fill="#999999" stroke="transparent" points="252,-376 100,-376 100,-327 252,-327 252,-376"/>
<text text-anchor="start" x="105" y="-363.5" font-family="Helvetica,sans-Serif" font-size="10.00">ImageLib::Pixel&lt; NumberT &gt;</text>
<text text-anchor="start" x="174" y="-348.5" font-family="Helvetica,sans-Serif" font-size="10.00"> </text>
<text text-anchor="start" x="126.5" y="-333.5" font-family="Helvetica,sans-Serif" font-size="10.00">+</text>
<text text-anchor="start" x="162" y="-333.5" font-family="Helvetica,sans-Serif" font-size="10.00">~Pixel()</text>
<polygon fill="#666666" stroke="#666666" points="100,-358.5 100,-358.5 252,-358.5 252,-358.5 100,-358.5"/>
<polygon fill="#666666" stroke="#666666" points="100,-343.5 100,-343.5 252,-343.5 252,-343.5 100,-343.5"/>
<polygon fill="none" stroke="#666666" points="100,-327 100,-376 252,-376 252,-327 100,-327"/>
</a>
</g>
</g>
<!-- Node2 -->
<g id="Node000002" class="node">
<title>Node2</title>
<g id="a_Node000002"><a xlink:href="structImageLib_1_1RGBPixel.html" target="_top" xlink:title=" ">
<polygon fill="white" stroke="transparent" points="106,-291 0,-291 0,-141 106,-141 106,-291"/>
<text text-anchor="start" x="5" y="-279" font-family="Helvetica,sans-Serif" font-size="10.00">ImageLib::RGBPixel</text>
<text text-anchor="start" x="24.5" y="-268" font-family="Helvetica,sans-Serif" font-size="10.00">&lt; uint8_t &gt;</text>
<text text-anchor="start" x="6.5" y="-253" font-family="Helvetica,sans-Serif" font-size="10.00">+</text>
<text text-anchor="start" x="22" y="-253" font-family="Helvetica,sans-Serif" font-size="10.00">red</text>
<text text-anchor="start" x="6.5" y="-238" font-family="Helvetica,sans-Serif" font-size="10.00">+</text>
<text text-anchor="start" x="22" y="-238" font-family="Helvetica,sans-Serif" font-size="10.00">green</text>
<text text-anchor="start" x="6.5" y="-223" font-family="Helvetica,sans-Serif" font-size="10.00">+</text>
<text text-anchor="start" x="22" y="-223" font-family="Helvetica,sans-Serif" font-size="10.00">blue</text>
<text text-anchor="start" x="6.5" y="-208" font-family="Helvetica,sans-Serif" font-size="10.00">+</text>
<text text-anchor="start" x="22" y="-208" font-family="Helvetica,sans-Serif" font-size="10.00">RGBPixel()</text>
<text text-anchor="start" x="6.5" y="-193" font-family="Helvetica,sans-Serif" font-size="10.00">+</text>
<text text-anchor="start" x="22" y="-193" font-family="Helvetica,sans-Serif" font-size="10.00">operator==()</text>
<text text-anchor="start" x="6.5" y="-178" font-family="Helvetica,sans-Serif" font-size="10.00">+</text>
<text text-anchor="start" x="22" y="-178" font-family="Helvetica,sans-Serif" font-size="10.00">operator!=()</text>
<text text-anchor="start" x="6.5" y="-163" font-family="Helvetica,sans-Serif" font-size="10.00">+</text>
<text text-anchor="start" x="22" y="-163" font-family="Helvetica,sans-Serif" font-size="10.00">setGray()</text>
<text text-anchor="start" x="6.5" y="-148" font-family="Helvetica,sans-Serif" font-size="10.00">+</text>
<text text-anchor="start" x="22" y="-148" font-family="Helvetica,sans-Serif" font-size="10.00">colorDistance()</text>
<polygon fill="#bfbfbf" stroke="#bfbfbf" points="0,-263 0,-263 106,-263 106,-263 0,-263"/>
<polygon fill="#bfbfbf" stroke="#bfbfbf" points="0,-218 0,-218 20,-218 20,-218 0,-218"/>
<polygon fill="#bfbfbf" stroke="#bfbfbf" points="20,-218 20,-218 106,-218 106,-218 20,-218"/>
<polygon fill="none" stroke="#bfbfbf" points="0,-141 0,-291 106,-291 106,-141 0,-141"/>
</a>
</g>
</g>
<!-- Node1&#45;&gt;Node2 -->
<g id="edge1_Node000001_Node000002" class="edge">
<title>Node1&#45;&gt;Node2</title>
<g id="a_edge1_Node000001_Node000002"><a xlink:title=" ">
<path fill="none" stroke="#63b8ff" d="M143.22,-319.71C133.91,-310.65 123.89,-300.59 115,-291 112.04,-287.8 109.04,-284.49 106.04,-281.13"/>
<polygon fill="none" stroke="#63b8ff" points="140.88,-322.31 150.5,-326.73 145.74,-317.27 140.88,-322.31"/>
</a>
</g>
</g>
<!-- Node3 -->
<g id="Node000003" class="node">
<title>Node3</title>
<g id="a_Node000003"><a xlink:href="structImageLib_1_1LABPixel.html" target="_top" xlink:title=" ">
<polygon fill="white" stroke="transparent" points="228,-291 124,-291 124,-141 228,-141 228,-291"/>
<text text-anchor="start" x="129" y="-279" font-family="Helvetica,sans-Serif" font-size="10.00">ImageLib::LABPixel</text>
<text text-anchor="start" x="142" y="-268" font-family="Helvetica,sans-Serif" font-size="10.00">&lt; NumberT &gt;</text>
<text text-anchor="start" x="130" y="-253" font-family="Helvetica,sans-Serif" font-size="10.00">+</text>
<text text-anchor="start" x="145" y="-253" font-family="Helvetica,sans-Serif" font-size="10.00">l</text>
<text text-anchor="start" x="130" y="-238" font-family="Helvetica,sans-Serif" font-size="10.00">+</text>
<text text-anchor="start" x="145" y="-238" font-family="Helvetica,sans-Serif" font-size="10.00">a</text>
<text text-anchor="start" x="130" y="-223" font-family="Helvetica,sans-Serif" font-size="10.00">+</text>
<text text-anchor="start" x="145" y="-223" font-family="Helvetica,sans-Serif" font-size="10.00">b</text>
<text text-anchor="start" x="130" y="-208" font-family="Helvetica,sans-Serif" font-size="10.00">+</text>
<text text-anchor="start" x="145" y="-208" font-family="Helvetica,sans-Serif" font-size="10.00">LABPixel()</text>
<text text-anchor="start" x="130" y="-193" font-family="Helvetica,sans-Serif" font-size="10.00">+</text>
<text text-anchor="start" x="145" y="-193" font-family="Helvetica,sans-Serif" font-size="10.00">operator==()</text>
<text text-anchor="start" x="130" y="-178" font-family="Helvetica,sans-Serif" font-size="10.00">+</text>
<text text-anchor="start" x="145" y="-178" font-family="Helvetica,sans-Serif" font-size="10.00">operator!=()</text>
<text text-anchor="start" x="130" y="-163" font-family="Helvetica,sans-Serif" font-size="10.00">+</text>
<text text-anchor="start" x="145" y="-163" font-family="Helvetica,sans-Serif" font-size="10.00">setGray()</text>
<text text-anchor="start" x="130" y="-148" font-family="Helvetica,sans-Serif" font-size="10.00">+</text>
<text text-anchor="start" x="145" y="-148" font-family="Helvetica,sans-Serif" font-size="10.00">colorDistance()</text>
<polygon fill="#bfbfbf" stroke="#bfbfbf" points="124,-263 124,-263 228,-263 228,-263 124,-263"/>
<polygon fill="#bfbfbf" stroke="#bfbfbf" points="124,-218 124,-218 143,-218 143,-218 124,-218"/>
<polygon fill="#bfbfbf" stroke="#bfbfbf" points="143,-218 143,-218 228,-218 228,-218 143,-218"/>
<polygon fill="none" stroke="#bfbfbf" points="124,-141 124,-291 228,-291 228,-141 124,-141"/>
</a>
</g>
</g>
<!-- Node1&#45;&gt;Node3 -->
<g id="edge2_Node000001_Node000003" class="edge">
<title>Node1&#45;&gt;Node3</title>
<g id="a_edge2_Node000001_Node000003"><a xlink:title=" ">
<path fill="none" stroke="#63b8ff" d="M176,-316.69C176,-308.75 176,-299.98 176,-291.03"/>
<polygon fill="none" stroke="#63b8ff" points="172.5,-316.94 176,-326.94 179.5,-316.94 172.5,-316.94"/>
</a>
</g>
</g>
<!-- Node5 -->
<g id="Node000005" class="node">
<title>Node5</title>
<g id="a_Node000005"><a xlink:href="structImageLib_1_1RGBPixel.html" target="_top" xlink:title=" ">
<polygon fill="white" stroke="transparent" points="355,-291 249,-291 249,-141 355,-141 355,-291"/>
<text text-anchor="start" x="254" y="-279" font-family="Helvetica,sans-Serif" font-size="10.00">ImageLib::RGBPixel</text>
<text text-anchor="start" x="268" y="-268" font-family="Helvetica,sans-Serif" font-size="10.00">&lt; NumberT &gt;</text>
<text text-anchor="start" x="255.5" y="-253" font-family="Helvetica,sans-Serif" font-size="10.00">+</text>
<text text-anchor="start" x="271" y="-253" font-family="Helvetica,sans-Serif" font-size="10.00">red</text>
<text text-anchor="start" x="255.5" y="-238" font-family="Helvetica,sans-Serif" font-size="10.00">+</text>
<text text-anchor="start" x="271" y="-238" font-family="Helvetica,sans-Serif" font-size="10.00">green</text>
<text text-anchor="start" x="255.5" y="-223" font-family="Helvetica,sans-Serif" font-size="10.00">+</text>
<text text-anchor="start" x="271" y="-223" font-family="Helvetica,sans-Serif" font-size="10.00">blue</text>
<text text-anchor="start" x="255.5" y="-208" font-family="Helvetica,sans-Serif" font-size="10.00">+</text>
<text text-anchor="start" x="271" y="-208" font-family="Helvetica,sans-Serif" font-size="10.00">RGBPixel()</text>
<text text-anchor="start" x="255.5" y="-193" font-family="Helvetica,sans-Serif" font-size="10.00">+</text>
<text text-anchor="start" x="271" y="-193" font-family="Helvetica,sans-Serif" font-size="10.00">operator==()</text>
<text text-anchor="start" x="255.5" y="-178" font-family="Helvetica,sans-Serif" font-size="10.00">+</text>
<text text-anchor="start" x="271" y="-178" font-family="Helvetica,sans-Serif" font-size="10.00">operator!=()</text>
<text text-anchor="start" x="255.5" y="-163" font-family="Helvetica,sans-Serif" font-size="10.00">+</text>
<text text-anchor="start" x="271" y="-163" font-family="Helvetica,sans-Serif" font-size="10.00">setGray()</text>
<text text-anchor="start" x="255.5" y="-148" font-family="Helvetica,sans-Serif" font-size="10.00">+</text>
<text text-anchor="start" x="271" y="-148" font-family="Helvetica,sans-Serif" font-size="10.00">colorDistance()</text>
<polygon fill="#bfbfbf" stroke="#bfbfbf" points="249,-263 249,-263 355,-263 355,-263 249,-263"/>
<polygon fill="#bfbfbf" stroke="#bfbfbf" points="249,-218 249,-218 269,-218 269,-218 249,-218"/>
<polygon fill="#bfbfbf" stroke="#bfbfbf" points="269,-218 269,-218 355,-218 355,-218 269,-218"/>
<polygon fill="none" stroke="#bfbfbf" points="249,-141 249,-291 355,-291 355,-141 249,-141"/>
</a>
</g>
</g>
<!-- Node1&#45;&gt;Node5 -->
<g id="edge4_Node000001_Node000005" class="edge">
<title>Node1&#45;&gt;Node5</title>
<g id="a_edge4_Node000001_Node000005"><a xlink:title=" ">
<path fill="none" stroke="#63b8ff" d="M208.38,-319.82C217.76,-310.69 227.92,-300.57 237,-291 240.88,-286.91 244.85,-282.64 248.8,-278.31"/>
<polygon fill="none" stroke="#63b8ff" points="205.82,-317.43 201.06,-326.89 210.69,-322.46 205.82,-317.43"/>
</a>
</g>
</g>
<!-- Node4 -->
<g id="Node000004" class="node">
<title>Node4</title>
<g id="a_Node000004"><a xlink:href="structImageLib_1_1LABAPixel.html" target="_top" xlink:title=" ">
<polygon fill="white" stroke="transparent" points="227.5,-105 116.5,-105 116.5,0 227.5,0 227.5,-105"/>
<text text-anchor="start" x="122" y="-92.5" font-family="Helvetica,sans-Serif" font-size="10.00">ImageLib::LABAPixel</text>
<text text-anchor="start" x="138.5" y="-81.5" font-family="Helvetica,sans-Serif" font-size="10.00">&lt; NumberT &gt;</text>
<text text-anchor="start" x="127" y="-66.5" font-family="Helvetica,sans-Serif" font-size="10.00">+</text>
<text text-anchor="start" x="146" y="-66.5" font-family="Helvetica,sans-Serif" font-size="10.00">alpha</text>
<text text-anchor="start" x="127" y="-51.5" font-family="Helvetica,sans-Serif" font-size="10.00">+</text>
<text text-anchor="start" x="146" y="-51.5" font-family="Helvetica,sans-Serif" font-size="10.00">LABAPixel()</text>
<text text-anchor="start" x="127" y="-36.5" font-family="Helvetica,sans-Serif" font-size="10.00">+</text>
<text text-anchor="start" x="146" y="-36.5" font-family="Helvetica,sans-Serif" font-size="10.00">operator==()</text>
<text text-anchor="start" x="127" y="-21.5" font-family="Helvetica,sans-Serif" font-size="10.00">+</text>
<text text-anchor="start" x="146" y="-21.5" font-family="Helvetica,sans-Serif" font-size="10.00">operator!=()</text>
<text text-anchor="start" x="127" y="-6.5" font-family="Helvetica,sans-Serif" font-size="10.00">+</text>
<text text-anchor="start" x="146" y="-6.5" font-family="Helvetica,sans-Serif" font-size="10.00">setGray()</text>
<polygon fill="#bfbfbf" stroke="#bfbfbf" points="117,-76.5 117,-76.5 228,-76.5 228,-76.5 117,-76.5"/>
<polygon fill="#bfbfbf" stroke="#bfbfbf" points="117,-61.5 117,-61.5 144,-61.5 144,-61.5 117,-61.5"/>
<polygon fill="#bfbfbf" stroke="#bfbfbf" points="144,-61.5 144,-61.5 228,-61.5 228,-61.5 144,-61.5"/>
<polygon fill="none" stroke="#bfbfbf" points="116.5,0 116.5,-105 227.5,-105 227.5,0 116.5,0"/>
</a>
</g>
</g>
<!-- Node3&#45;&gt;Node4 -->
<g id="edge3_Node000003_Node000004" class="edge">
<title>Node3&#45;&gt;Node4</title>
<g id="a_edge3_Node000003_Node000004"><a xlink:title=" ">
<path fill="none" stroke="#63b8ff" d="M173.91,-130.63C173.69,-121.91 173.48,-113.25 173.28,-105.05"/>
<polygon fill="none" stroke="#63b8ff" points="170.42,-130.96 174.16,-140.87 177.42,-130.78 170.42,-130.96"/>
</a>
</g>
</g>
<!-- Node6 -->
<g id="Node000006" class="node">
<title>Node6</title>
<g id="a_Node000006"><a xlink:href="structImageLib_1_1RGBAPixel.html" target="_top" xlink:title=" ">
<polygon fill="white" stroke="transparent" points="358.5,-105 245.5,-105 245.5,0 358.5,0 358.5,-105"/>
<text text-anchor="start" x="251" y="-92.5" font-family="Helvetica,sans-Serif" font-size="10.00">ImageLib::RGBAPixel</text>
<text text-anchor="start" x="274" y="-81.5" font-family="Helvetica,sans-Serif" font-size="10.00">&lt; uint8_t &gt;</text>
<text text-anchor="start" x="256.5" y="-66.5" font-family="Helvetica,sans-Serif" font-size="10.00">+</text>
<text text-anchor="start" x="276" y="-66.5" font-family="Helvetica,sans-Serif" font-size="10.00">alpha</text>
<text text-anchor="start" x="256.5" y="-51.5" font-family="Helvetica,sans-Serif" font-size="10.00">+</text>
<text text-anchor="start" x="276" y="-51.5" font-family="Helvetica,sans-Serif" font-size="10.00">RGBAPixel()</text>
<text text-anchor="start" x="256.5" y="-36.5" font-family="Helvetica,sans-Serif" font-size="10.00">+</text>
<text text-anchor="start" x="276" y="-36.5" font-family="Helvetica,sans-Serif" font-size="10.00">operator==()</text>
<text text-anchor="start" x="256.5" y="-21.5" font-family="Helvetica,sans-Serif" font-size="10.00">+</text>
<text text-anchor="start" x="276" y="-21.5" font-family="Helvetica,sans-Serif" font-size="10.00">operator!=()</text>
<text text-anchor="start" x="256.5" y="-6.5" font-family="Helvetica,sans-Serif" font-size="10.00">+</text>
<text text-anchor="start" x="276" y="-6.5" font-family="Helvetica,sans-Serif" font-size="10.00">setGray()</text>
<polygon fill="#bfbfbf" stroke="#bfbfbf" points="246,-76.5 246,-76.5 359,-76.5 359,-76.5 246,-76.5"/>
<polygon fill="#bfbfbf" stroke="#bfbfbf" points="246,-61.5 246,-61.5 274,-61.5 274,-61.5 246,-61.5"/>
<polygon fill="#bfbfbf" stroke="#bfbfbf" points="274,-61.5 274,-61.5 359,-61.5 359,-61.5 274,-61.5"/>
<polygon fill="none" stroke="#bfbfbf" points="245.5,0 245.5,-105 358.5,-105 358.5,0 245.5,0"/>
</a>
</g>
</g>
<!-- Node5&#45;&gt;Node6 -->
<g id="edge5_Node000005_Node000006" class="edge">
<title>Node5&#45;&gt;Node6</title>
<g id="a_edge5_Node000005_Node000006"><a xlink:title=" ">
<path fill="none" stroke="#63b8ff" d="M302,-130.63C302,-121.91 302,-113.25 302,-105.05"/>
<polygon fill="none" stroke="#63b8ff" points="298.5,-130.87 302,-140.87 305.5,-130.87 298.5,-130.87"/>
</a>
</g>
</g>
<!-- Node7 -->
<g id="Node000007" class="node">
<title>Node7</title>
<g id="a_Node000007"><a xlink:href="structImageLib_1_1RGBAPixel.html" target="_top" xlink:title=" ">
<polygon fill="white" stroke="transparent" points="489.5,-105 376.5,-105 376.5,0 489.5,0 489.5,-105"/>
<text text-anchor="start" x="382" y="-92.5" font-family="Helvetica,sans-Serif" font-size="10.00">ImageLib::RGBAPixel</text>
<text text-anchor="start" x="399.5" y="-81.5" font-family="Helvetica,sans-Serif" font-size="10.00">&lt; NumberT &gt;</text>
<text text-anchor="start" x="387.5" y="-66.5" font-family="Helvetica,sans-Serif" font-size="10.00">+</text>
<text text-anchor="start" x="407" y="-66.5" font-family="Helvetica,sans-Serif" font-size="10.00">alpha</text>
<text text-anchor="start" x="387.5" y="-51.5" font-family="Helvetica,sans-Serif" font-size="10.00">+</text>
<text text-anchor="start" x="407" y="-51.5" font-family="Helvetica,sans-Serif" font-size="10.00">RGBAPixel()</text>
<text text-anchor="start" x="387.5" y="-36.5" font-family="Helvetica,sans-Serif" font-size="10.00">+</text>
<text text-anchor="start" x="407" y="-36.5" font-family="Helvetica,sans-Serif" font-size="10.00">operator==()</text>
<text text-anchor="start" x="387.5" y="-21.5" font-family="Helvetica,sans-Serif" font-size="10.00">+</text>
<text text-anchor="start" x="407" y="-21.5" font-family="Helvetica,sans-Serif" font-size="10.00">operator!=()</text>
<text text-anchor="start" x="387.5" y="-6.5" font-family="Helvetica,sans-Serif" font-size="10.00">+</text>
<text text-anchor="start" x="407" y="-6.5" font-family="Helvetica,sans-Serif" font-size="10.00">setGray()</text>
<polygon fill="#bfbfbf" stroke="#bfbfbf" points="377,-76.5 377,-76.5 490,-76.5 490,-76.5 377,-76.5"/>
<polygon fill="#bfbfbf" stroke="#bfbfbf" points="377,-61.5 377,-61.5 405,-61.5 405,-61.5 377,-61.5"/>
<polygon fill="#bfbfbf" stroke="#bfbfbf" points="405,-61.5 405,-61.5 490,-61.5 490,-61.5 405,-61.5"/>
<polygon fill="none" stroke="#bfbfbf" points="376.5,0 376.5,-105 489.5,-105 489.5,0 376.5,0"/>
</a>
</g>
</g>
<!-- Node5&#45;&gt;Node7 -->
<g id="edge6_Node000005_Node000007" class="edge">
<title>Node5&#45;&gt;Node7</title>
<g id="a_edge6_Node000005_Node000007"><a xlink:title=" ">
<path fill="none" stroke="#63b8ff" d="M361.74,-141.35C371.63,-129.16 381.68,-116.76 391.01,-105.27"/>
<polygon fill="none" stroke="#63b8ff" points="358.86,-139.34 355.28,-149.31 364.3,-143.75 358.86,-139.34"/>
</a>
</g>
</g>
</g>
</svg>
</svg>

<style type='text/css'>
<![CDATA[
[data-mouse-over-selected='false'] { opacity: 0.7; }
[data-mouse-over-selected='true']  { opacity: 1.0; }
]]>
</style>
<script type="application/ecmascript"><![CDATA[
document.addEventListener('DOMContentLoaded', (event) => {
  highlightEdges();
  highlightAdjacentNodes();
});
]]></script>
</svg>
