<?xml version="1.0" encoding="UTF-8" standalone="no"?>
<!DOCTYPE svg PUBLIC "-//W3C//DTD SVG 1.1//EN"
 "http://www.w3.org/Graphics/SVG/1.1/DTD/svg11.dtd">
<!-- Generated by graphviz version 2.42.4 (0)
 -->
<!-- Title: ContoursResult Pages: 1 -->
<svg width="539pt" height="260pt"
 viewBox="0.00 0.00 538.50 260.00" xmlns="http://www.w3.org/2000/svg" xmlns:xlink="http://www.w3.org/1999/xlink">
<g id="graph0" class="graph" transform="scale(1 1) rotate(0) translate(4 256)">
<title>ContoursResult</title>
<!-- Node1 -->
<g id="Node000001" class="node">
<title>Node1</title>
<g id="a_Node000001"><a xlink:title=" ">
<polygon fill="#999999" stroke="transparent" points="300,-49 215,-49 215,0 300,0 300,-49"/>
<text text-anchor="start" x="220.5" y="-36.5" font-family="Helvetica,sans-Serif" font-size="10.00">ContoursResult</text>
<text text-anchor="start" x="256" y="-21.5" font-family="Helvetica,sans-Serif" font-size="10.00"> </text>
<text text-anchor="start" x="256" y="-6.5" font-family="Helvetica,sans-Serif" font-size="10.00"> </text>
<polygon fill="#666666" stroke="#666666" points="215.5,-31.5 215.5,-31.5 300.5,-31.5 300.5,-31.5 215.5,-31.5"/>
<polygon fill="#666666" stroke="#666666" points="215.5,-16.5 215.5,-16.5 300.5,-16.5 300.5,-16.5 215.5,-16.5"/>
<polygon fill="none" stroke="#666666" points="215,0 215,-49 300,-49 300,0 215,0"/>
</a>
</g>
</g>
<!-- Node2 -->
<g id="Node000002" class="node">
<title>Node2</title>
<g id="a_Node000002"><a xlink:title=" ">
<polygon fill="white" stroke="transparent" points="125,-156 0,-156 0,-96 125,-96 125,-156"/>
<text text-anchor="start" x="5.5" y="-144" font-family="Helvetica,sans-Serif" font-size="10.00">std::vector&lt; std::vector</text>
<text text-anchor="start" x="33.5" y="-133" font-family="Helvetica,sans-Serif" font-size="10.00">&lt; Point &gt; &gt;</text>
<text text-anchor="start" x="19" y="-118" font-family="Helvetica,sans-Serif" font-size="10.00">+</text>
<text text-anchor="start" x="46.5" y="-118" font-family="Helvetica,sans-Serif" font-size="10.00">elements</text>
<text text-anchor="start" x="61" y="-103" font-family="Helvetica,sans-Serif" font-size="10.00"> </text>
<polygon fill="#666666" stroke="#666666" points="0.5,-128 0.5,-128 125.5,-128 125.5,-128 0.5,-128"/>
<polygon fill="#666666" stroke="#666666" points="0.5,-113 0.5,-113 44.5,-113 44.5,-113 0.5,-113"/>
<polygon fill="#666666" stroke="#666666" points="44.5,-113 44.5,-113 125.5,-113 125.5,-113 44.5,-113"/>
<polygon fill="none" stroke="#666666" points="0,-96 0,-156 125,-156 125,-96 0,-96"/>
</a>
</g>
</g>
<!-- Node2&#45;&gt;Node1 -->
<g id="edge1_Node000001_Node000002" class="edge">
<title>Node2&#45;&gt;Node1</title>
<g id="a_edge1_Node000001_Node000002"><a xlink:title=" ">
<path fill="none" stroke="#63b8ff" d="M117.42,-95.99C135.26,-86.65 155.18,-76.31 173.5,-67 183.3,-62.02 193.77,-56.78 203.89,-51.76"/>
<polygon fill="none" stroke="#63b8ff" points="203.92,-51.75 207.52,-45.5 214.67,-46.43 211.07,-52.67 203.92,-51.75"/>
</a>
</g>
<text text-anchor="middle" x="200.5" y="-70" font-family="Helvetica,sans-Serif" font-size="10.00" fill="grey"> +contours</text>
</g>
<!-- Node3 -->
<g id="Node000003" class="node">
<title>Node3</title>
<g id="a_Node000003"><a xlink:title=" ">
<polygon fill="white" stroke="transparent" points="268,-156 143,-156 143,-96 268,-96 268,-156"/>
<text text-anchor="start" x="148.5" y="-144" font-family="Helvetica,sans-Serif" font-size="10.00">std::vector&lt; std::vector</text>
<text text-anchor="start" x="160.5" y="-133" font-family="Helvetica,sans-Serif" font-size="10.00">&lt; QuadBezier &gt; &gt;</text>
<text text-anchor="start" x="162" y="-118" font-family="Helvetica,sans-Serif" font-size="10.00">+</text>
<text text-anchor="start" x="189.5" y="-118" font-family="Helvetica,sans-Serif" font-size="10.00">elements</text>
<text text-anchor="start" x="204" y="-103" font-family="Helvetica,sans-Serif" font-size="10.00"> </text>
<polygon fill="#666666" stroke="#666666" points="143.5,-128 143.5,-128 268.5,-128 268.5,-128 143.5,-128"/>
<polygon fill="#666666" stroke="#666666" points="143.5,-113 143.5,-113 187.5,-113 187.5,-113 143.5,-113"/>
<polygon fill="#666666" stroke="#666666" points="187.5,-113 187.5,-113 268.5,-113 268.5,-113 187.5,-113"/>
<polygon fill="none" stroke="#666666" points="143,-96 143,-156 268,-156 268,-96 143,-96"/>
</a>
</g>
</g>
<!-- Node3&#45;&gt;Node1 -->
<g id="edge2_Node000001_Node000003" class="edge">
<title>Node3&#45;&gt;Node1</title>
<g id="a_edge2_Node000001_Node000003"><a xlink:title=" ">
<path fill="none" stroke="#63b8ff" d="M220.68,-95.95C226.59,-84.65 233.4,-71.61 239.55,-59.85"/>
<polygon fill="none" stroke="#63b8ff" points="239.63,-59.7 238.86,-52.53 245.19,-49.06 245.95,-56.23 239.63,-59.7"/>
</a>
</g>
<text text-anchor="middle" x="257.5" y="-70" font-family="Helvetica,sans-Serif" font-size="10.00" fill="grey"> +curves</text>
</g>
<!-- Node4 -->
<g id="Node000004" class="node">
<title>Node4</title>
<g id="a_Node000004"><a xlink:title=" ">
<polygon fill="white" stroke="transparent" points="406.5,-156 286.5,-156 286.5,-96 406.5,-96 406.5,-156"/>
<text text-anchor="start" x="291.5" y="-144" font-family="Helvetica,sans-Serif" font-size="10.00">std::vector&lt; std::array</text>
<text text-anchor="start" x="317" y="-133" font-family="Helvetica,sans-Serif" font-size="10.00">&lt; int, 4 &gt; &gt;</text>
<text text-anchor="start" x="344.5" y="-118" font-family="Helvetica,sans-Serif" font-size="10.00"> </text>
<text text-anchor="start" x="344.5" y="-103" font-family="Helvetica,sans-Serif" font-size="10.00"> </text>
<polygon fill="#666666" stroke="#666666" points="286.5,-128 286.5,-128 406.5,-128 406.5,-128 286.5,-128"/>
<polygon fill="#666666" stroke="#666666" points="286.5,-113 286.5,-113 406.5,-113 406.5,-113 286.5,-113"/>
<polygon fill="none" stroke="#666666" points="286.5,-96 286.5,-156 406.5,-156 406.5,-96 286.5,-96"/>
</a>
</g>
</g>
<!-- Node4&#45;&gt;Node1 -->
<g id="edge3_Node000001_Node000004" class="edge">
<title>Node4&#45;&gt;Node1</title>
<g id="a_edge3_Node000001_Node000004"><a xlink:title=" ">
<path fill="none" stroke="#63b8ff" d="M320.52,-95.95C309.89,-84.07 297.54,-70.27 286.61,-58.04"/>
<polygon fill="none" stroke="#63b8ff" points="286.58,-58.01 279.59,-56.2 278.58,-49.06 285.56,-50.87 286.58,-58.01"/>
</a>
</g>
<text text-anchor="middle" x="330.5" y="-70" font-family="Helvetica,sans-Serif" font-size="10.00" fill="grey"> +hierarchy</text>
</g>
<!-- Node5 -->
<g id="Node000005" class="node">
<title>Node5</title>
<g id="a_Node000005"><a xlink:title=" ">
<polygon fill="white" stroke="transparent" points="398.5,-252 294.5,-252 294.5,-203 398.5,-203 398.5,-252"/>
<text text-anchor="start" x="299.5" y="-239.5" font-family="Helvetica,sans-Serif" font-size="10.00">std::array&lt; int, 4 &gt;</text>
<text text-anchor="start" x="307.5" y="-224.5" font-family="Helvetica,sans-Serif" font-size="10.00">+</text>
<text text-anchor="start" x="329.5" y="-224.5" font-family="Helvetica,sans-Serif" font-size="10.00">elements</text>
<text text-anchor="start" x="344.5" y="-209.5" font-family="Helvetica,sans-Serif" font-size="10.00"> </text>
<polygon fill="#666666" stroke="#666666" points="294.5,-234.5 294.5,-234.5 398.5,-234.5 398.5,-234.5 294.5,-234.5"/>
<polygon fill="#666666" stroke="#666666" points="294.5,-219.5 294.5,-219.5 327.5,-219.5 327.5,-219.5 294.5,-219.5"/>
<polygon fill="#666666" stroke="#666666" points="327.5,-219.5 327.5,-219.5 398.5,-219.5 398.5,-219.5 327.5,-219.5"/>
<polygon fill="none" stroke="#666666" points="294.5,-203 294.5,-252 398.5,-252 398.5,-203 294.5,-203"/>
</a>
</g>
</g>
<!-- Node5&#45;&gt;Node4 -->
<g id="edge4_Node000004_Node000005" class="edge">
<title>Node5&#45;&gt;Node4</title>
<g id="a_edge4_Node000004_Node000005"><a xlink:title=" ">
<path fill="none" stroke="#63b8ff" d="M346.5,-202.92C346.5,-192.51 346.5,-179.97 346.5,-168.1"/>
<polygon fill="none" stroke="#63b8ff" points="346.5,-168.1 342.5,-162.1 346.5,-156.1 350.5,-162.1 346.5,-168.1"/>
</a>
</g>
<text text-anchor="middle" x="375.5" y="-177" font-family="Helvetica,sans-Serif" font-size="10.00" fill="grey"> +elements</text>
</g>
<!-- Node6 -->
<g id="Node000006" class="node">
<title>Node6</title>
<g id="a_Node000006"><a xlink:title=" ">
<polygon fill="white" stroke="transparent" points="530.5,-150.5 424.5,-150.5 424.5,-101.5 530.5,-101.5 530.5,-150.5"/>
<text text-anchor="start" x="429.5" y="-138" font-family="Helvetica,sans-Serif" font-size="10.00">std::vector&lt; bool &gt;</text>
<text text-anchor="start" x="438" y="-123" font-family="Helvetica,sans-Serif" font-size="10.00">+</text>
<text text-anchor="start" x="460.5" y="-123" font-family="Helvetica,sans-Serif" font-size="10.00">elements</text>
<text text-anchor="start" x="475.5" y="-108" font-family="Helvetica,sans-Serif" font-size="10.00"> </text>
<polygon fill="#666666" stroke="#666666" points="424.5,-133 424.5,-133 530.5,-133 530.5,-133 424.5,-133"/>
<polygon fill="#666666" stroke="#666666" points="424.5,-118 424.5,-118 458.5,-118 458.5,-118 424.5,-118"/>
<polygon fill="#666666" stroke="#666666" points="458.5,-118 458.5,-118 530.5,-118 530.5,-118 458.5,-118"/>
<polygon fill="none" stroke="#666666" points="424.5,-101.5 424.5,-150.5 530.5,-150.5 530.5,-101.5 424.5,-101.5"/>
</a>
</g>
</g>
<!-- Node6&#45;&gt;Node1 -->
<g id="edge5_Node000001_Node000006" class="edge">
<title>Node6&#45;&gt;Node1</title>
<g id="a_edge5_Node000001_Node000006"><a xlink:title=" ">
<path fill="none" stroke="#63b8ff" d="M433.59,-101.4C412.61,-90.45 387,-77.55 363.5,-67 346.8,-59.5 328.31,-52 311.51,-45.47"/>
<polygon fill="none" stroke="#63b8ff" points="311.39,-45.43 304.35,-47.01 300.19,-41.12 307.22,-39.54 311.39,-45.43"/>
</a>
</g>
<text text-anchor="middle" x="408.5" y="-70" font-family="Helvetica,sans-Serif" font-size="10.00" fill="grey"> +is_hole</text>
</g>
</g>
</svg>
