<?xml version="1.0" encoding="UTF-8" standalone="no"?>
<!DOCTYPE svg PUBLIC "-//W3C//DTD SVG 1.1//EN"
 "http://www.w3.org/Graphics/SVG/1.1/DTD/svg11.dtd">
<!-- Generated by graphviz version 2.42.4 (0)
 -->
<!-- Title: ClusterAccumulator Pages: 1 -->
<svg width="115pt" height="102pt"
 viewBox="0.00 0.00 115.00 102.00" xmlns="http://www.w3.org/2000/svg" xmlns:xlink="http://www.w3.org/1999/xlink">
<g id="graph0" class="graph" transform="scale(1 1) rotate(0) translate(4 98)">
<title>ClusterAccumulator</title>
<!-- Node1 -->
<g id="Node000001" class="node">
<title>Node1</title>
<g id="a_Node000001"><a xlink:title=" ">
<polygon fill="#999999" stroke="transparent" points="107,-94 0,-94 0,0 107,0 107,-94"/>
<text text-anchor="start" x="5.5" y="-82" font-family="Helvetica,sans-Serif" font-size="10.00">ClusterAccumulator</text>
<text text-anchor="start" x="18.5" y="-67" font-family="Helvetica,sans-Serif" font-size="10.00">+</text>
<text text-anchor="start" x="45.5" y="-67" font-family="Helvetica,sans-Serif" font-size="10.00">sumR</text>
<text text-anchor="start" x="18.5" y="-52" font-family="Helvetica,sans-Serif" font-size="10.00">+</text>
<text text-anchor="start" x="45.5" y="-52" font-family="Helvetica,sans-Serif" font-size="10.00">sumG</text>
<text text-anchor="start" x="18.5" y="-37" font-family="Helvetica,sans-Serif" font-size="10.00">+</text>
<text text-anchor="start" x="45.5" y="-37" font-family="Helvetica,sans-Serif" font-size="10.00">sumB</text>
<text text-anchor="start" x="18.5" y="-22" font-family="Helvetica,sans-Serif" font-size="10.00">+</text>
<text text-anchor="start" x="45.5" y="-22" font-family="Helvetica,sans-Serif" font-size="10.00">count</text>
<text text-anchor="start" x="52" y="-7" font-family="Helvetica,sans-Serif" font-size="10.00"> </text>
<polygon fill="#666666" stroke="#666666" points="0.5,-77 0.5,-77 107.5,-77 107.5,-77 0.5,-77"/>
<polygon fill="#666666" stroke="#666666" points="0.5,-17 0.5,-17 43.5,-17 43.5,-17 0.5,-17"/>
<polygon fill="#666666" stroke="#666666" points="43.5,-17 43.5,-17 107.5,-17 107.5,-17 43.5,-17"/>
<polygon fill="none" stroke="#666666" points="0,0 0,-94 107,-94 107,0 0,0"/>
</a>
</g>
</g>
</g>
</svg>
