<?xml version="1.0" encoding="UTF-8" standalone="no"?>
<!DOCTYPE svg PUBLIC "-//W3C//DTD SVG 1.1//EN"
 "http://www.w3.org/Graphics/SVG/1.1/DTD/svg11.dtd">
<!-- Generated by graphviz version 2.42.4 (0)
 -->
<!-- Title: ImageLib::LABAPixel&lt; NumberT &gt; Pages: 1 -->
<svg width="160pt" height="384pt"
 viewBox="0.00 0.00 160.00 384.00" xmlns="http://www.w3.org/2000/svg" xmlns:xlink="http://www.w3.org/1999/xlink">

<svg id="main" version="1.1" xmlns="http://www.w3.org/2000/svg" xmlns:xlink="http://www.w3.org/1999/xlink" xml:space="preserve" onload="init(evt)">
<style type="text/css"><![CDATA[
.node, .edge {opacity: 0.7;}
.node.selected, .edge.selected {opacity: 1;}
.edge:hover path { stroke: red; }
.edge:hover polygon { stroke: red; fill: red; }
]]></style>
<script type="application/ecmascript" xlink:href="svg.min.js"/>
<svg id="graph" class="graph">
<g id="graph0" class="graph" transform="scale(1 1) rotate(0) translate(4 380)">
<title>ImageLib::LABAPixel&lt; NumberT &gt;</title>
<!-- Node1 -->
<g id="Node000001" class="node">
<title>Node1</title>
<g id="a_Node000001"><a xlink:title=" ">
<polygon fill="#999999" stroke="transparent" points="131.5,-105 20.5,-105 20.5,0 131.5,0 131.5,-105"/>
<text text-anchor="start" x="26" y="-92.5" font-family="Helvetica,sans-Serif" font-size="10.00">ImageLib::LABAPixel</text>
<text text-anchor="start" x="42.5" y="-81.5" font-family="Helvetica,sans-Serif" font-size="10.00">&lt; NumberT &gt;</text>
<text text-anchor="start" x="31" y="-66.5" font-family="Helvetica,sans-Serif" font-size="10.00">+</text>
<text text-anchor="start" x="50" y="-66.5" font-family="Helvetica,sans-Serif" font-size="10.00">alpha</text>
<text text-anchor="start" x="31" y="-51.5" font-family="Helvetica,sans-Serif" font-size="10.00">+</text>
<text text-anchor="start" x="50" y="-51.5" font-family="Helvetica,sans-Serif" font-size="10.00">LABAPixel()</text>
<text text-anchor="start" x="31" y="-36.5" font-family="Helvetica,sans-Serif" font-size="10.00">+</text>
<text text-anchor="start" x="50" y="-36.5" font-family="Helvetica,sans-Serif" font-size="10.00">operator==()</text>
<text text-anchor="start" x="31" y="-21.5" font-family="Helvetica,sans-Serif" font-size="10.00">+</text>
<text text-anchor="start" x="50" y="-21.5" font-family="Helvetica,sans-Serif" font-size="10.00">operator!=()</text>
<text text-anchor="start" x="31" y="-6.5" font-family="Helvetica,sans-Serif" font-size="10.00">+</text>
<text text-anchor="start" x="50" y="-6.5" font-family="Helvetica,sans-Serif" font-size="10.00">setGray()</text>
<polygon fill="#666666" stroke="#666666" points="21,-76.5 21,-76.5 132,-76.5 132,-76.5 21,-76.5"/>
<polygon fill="#666666" stroke="#666666" points="21,-61.5 21,-61.5 48,-61.5 48,-61.5 21,-61.5"/>
<polygon fill="#666666" stroke="#666666" points="48,-61.5 48,-61.5 132,-61.5 132,-61.5 48,-61.5"/>
<polygon fill="none" stroke="#666666" points="20.5,0 20.5,-105 131.5,-105 131.5,0 20.5,0"/>
</a>
</g>
</g>
<!-- Node2 -->
<g id="Node000002" class="node">
<title>Node2</title>
<g id="a_Node000002"><a xlink:href="structImageLib_1_1LABPixel.html" target="_top" xlink:title=" ">
<polygon fill="white" stroke="transparent" points="128,-291 24,-291 24,-141 128,-141 128,-291"/>
<text text-anchor="start" x="29" y="-279" font-family="Helvetica,sans-Serif" font-size="10.00">ImageLib::LABPixel</text>
<text text-anchor="start" x="42" y="-268" font-family="Helvetica,sans-Serif" font-size="10.00">&lt; NumberT &gt;</text>
<text text-anchor="start" x="30" y="-253" font-family="Helvetica,sans-Serif" font-size="10.00">+</text>
<text text-anchor="start" x="45" y="-253" font-family="Helvetica,sans-Serif" font-size="10.00">l</text>
<text text-anchor="start" x="30" y="-238" font-family="Helvetica,sans-Serif" font-size="10.00">+</text>
<text text-anchor="start" x="45" y="-238" font-family="Helvetica,sans-Serif" font-size="10.00">a</text>
<text text-anchor="start" x="30" y="-223" font-family="Helvetica,sans-Serif" font-size="10.00">+</text>
<text text-anchor="start" x="45" y="-223" font-family="Helvetica,sans-Serif" font-size="10.00">b</text>
<text text-anchor="start" x="30" y="-208" font-family="Helvetica,sans-Serif" font-size="10.00">+</text>
<text text-anchor="start" x="45" y="-208" font-family="Helvetica,sans-Serif" font-size="10.00">LABPixel()</text>
<text text-anchor="start" x="30" y="-193" font-family="Helvetica,sans-Serif" font-size="10.00">+</text>
<text text-anchor="start" x="45" y="-193" font-family="Helvetica,sans-Serif" font-size="10.00">operator==()</text>
<text text-anchor="start" x="30" y="-178" font-family="Helvetica,sans-Serif" font-size="10.00">+</text>
<text text-anchor="start" x="45" y="-178" font-family="Helvetica,sans-Serif" font-size="10.00">operator!=()</text>
<text text-anchor="start" x="30" y="-163" font-family="Helvetica,sans-Serif" font-size="10.00">+</text>
<text text-anchor="start" x="45" y="-163" font-family="Helvetica,sans-Serif" font-size="10.00">setGray()</text>
<text text-anchor="start" x="30" y="-148" font-family="Helvetica,sans-Serif" font-size="10.00">+</text>
<text text-anchor="start" x="45" y="-148" font-family="Helvetica,sans-Serif" font-size="10.00">colorDistance()</text>
<polygon fill="#bfbfbf" stroke="#bfbfbf" points="24,-263 24,-263 128,-263 128,-263 24,-263"/>
<polygon fill="#bfbfbf" stroke="#bfbfbf" points="24,-218 24,-218 43,-218 43,-218 24,-218"/>
<polygon fill="#bfbfbf" stroke="#bfbfbf" points="43,-218 43,-218 128,-218 128,-218 43,-218"/>
<polygon fill="none" stroke="#bfbfbf" points="24,-141 24,-291 128,-291 128,-141 24,-141"/>
</a>
</g>
</g>
<!-- Node2&#45;&gt;Node1 -->
<g id="edge1_Node000001_Node000002" class="edge">
<title>Node2&#45;&gt;Node1</title>
<g id="a_edge1_Node000001_Node000002"><a xlink:title=" ">
<path fill="none" stroke="#63b8ff" d="M76,-130.63C76,-121.91 76,-113.25 76,-105.05"/>
<polygon fill="none" stroke="#63b8ff" points="72.5,-130.87 76,-140.87 79.5,-130.87 72.5,-130.87"/>
</a>
</g>
</g>
<!-- Node3 -->
<g id="Node000003" class="node">
<title>Node3</title>
<g id="a_Node000003"><a xlink:href="structImageLib_1_1Pixel.html" target="_top" xlink:title=" ">
<polygon fill="white" stroke="transparent" points="152,-376 0,-376 0,-327 152,-327 152,-376"/>
<text text-anchor="start" x="5" y="-363.5" font-family="Helvetica,sans-Serif" font-size="10.00">ImageLib::Pixel&lt; NumberT &gt;</text>
<text text-anchor="start" x="74" y="-348.5" font-family="Helvetica,sans-Serif" font-size="10.00"> </text>
<text text-anchor="start" x="26.5" y="-333.5" font-family="Helvetica,sans-Serif" font-size="10.00">+</text>
<text text-anchor="start" x="62" y="-333.5" font-family="Helvetica,sans-Serif" font-size="10.00">~Pixel()</text>
<polygon fill="#bfbfbf" stroke="#bfbfbf" points="0,-358.5 0,-358.5 152,-358.5 152,-358.5 0,-358.5"/>
<polygon fill="#bfbfbf" stroke="#bfbfbf" points="0,-343.5 0,-343.5 152,-343.5 152,-343.5 0,-343.5"/>
<polygon fill="none" stroke="#bfbfbf" points="0,-327 0,-376 152,-376 152,-327 0,-327"/>
</a>
</g>
</g>
<!-- Node3&#45;&gt;Node2 -->
<g id="edge2_Node000002_Node000003" class="edge">
<title>Node3&#45;&gt;Node2</title>
<g id="a_edge2_Node000002_Node000003"><a xlink:title=" ">
<path fill="none" stroke="#63b8ff" d="M76,-316.69C76,-308.75 76,-299.98 76,-291.03"/>
<polygon fill="none" stroke="#63b8ff" points="72.5,-316.94 76,-326.94 79.5,-316.94 72.5,-316.94"/>
</a>
</g>
</g>
</g>
</svg>
</svg>

<style type='text/css'>
<![CDATA[
[data-mouse-over-selected='false'] { opacity: 0.7; }
[data-mouse-over-selected='true']  { opacity: 1.0; }
]]>
</style>
<script type="application/ecmascript"><![CDATA[
document.addEventListener('DOMContentLoaded', (event) => {
  highlightEdges();
  highlightAdjacentNodes();
});
]]></script>
</svg>
