<?xml version="1.0" encoding="UTF-8" standalone="no"?>
<!DOCTYPE svg PUBLIC "-//W3C//DTD SVG 1.1//EN"
 "http://www.w3.org/Graphics/SVG/1.1/DTD/svg11.dtd">
<!-- Generated by graphviz version 2.42.4 (0)
 -->
<!-- Title: ContoursResult Pages: 1 -->
<!--zoomable 260 -->

<svg id="main" version="1.1" xmlns="http://www.w3.org/2000/svg" xmlns:xlink="http://www.w3.org/1999/xlink" xml:space="preserve" onload="init(evt)">
<style type="text/css"><![CDATA[
.node, .edge {opacity: 0.7;}
.node.selected, .edge.selected {opacity: 1;}
.edge:hover path { stroke: red; }
.edge:hover polygon { stroke: red; fill: red; }
]]></style>

<defs>
  <circle id="rim" cx="0" cy="0" r="7"/>
  <circle id="rim2" cx="0" cy="0" r="3.5"/>
  <g id="zoomPlus">
    <use xlink:href="#rim" fill="#404040"><set attributeName="fill" to="#808080" begin="zoomplus.mouseover" end="zoomplus.mouseout"/></use>
    <path d="M-4,0h8M0,-4v8" fill="none" stroke="white" stroke-width="1.5" pointer-events="none"/>
  </g>
  <g id="zoomMin">
    <use xlink:href="#rim" fill="#404040"><set attributeName="fill" to="#808080" begin="zoomminus.mouseover" end="zoomminus.mouseout"/></use>
    <path d="M-4,0h8" fill="none" stroke="white" stroke-width="1.5" pointer-events="none"/>
  </g>
  <g id="arrowUp" transform="translate(30 24)">
    <use xlink:href="#rim"/>
    <path pointer-events="none" fill="none" stroke="white" stroke-width="1.5" d="M0,-3.0v7 M-2.5,-0.5L0,-3.0L2.5,-0.5"/>
  </g>
  <g id="arrowRight" transform="rotate(90) translate(36 -43)">
    <use xlink:href="#rim"/>
    <path pointer-events="none" fill="none" stroke="white" stroke-width="1.5" d="M0,-3.0v7 M-2.5,-0.5L0,-3.0L2.5,-0.5"/>
  </g>
  <g id="arrowDown" transform="rotate(180) translate(-30 -48)">
    <use xlink:href="#rim"/>
    <path pointer-events="none" fill="none" stroke="white" stroke-width="1.5" d="M0,-3.0v7 M-2.5,-0.5L0,-3.0L2.5,-0.5"/>
  </g>
  <g id="arrowLeft" transform="rotate(270) translate(-36 17)">
    <use xlink:href="#rim"/>
    <path pointer-events="none" fill="none" stroke="white" stroke-width="1.5" d="M0,-3.0v7 M-2.5,-0.5L0,-3.0L2.5,-0.5"/>
  </g>
  <g id="resetDef">
    <use xlink:href="#rim2" fill="#404040"><set attributeName="fill" to="#808080" begin="reset.mouseover" end="reset.mouseout"/></use>
  </g>
</defs>
<script type="application/ecmascript">
var viewWidth = 539;
var viewHeight = 260;
var sectionId = 'dynsection-1';
</script>
<script type="application/ecmascript" xlink:href="svg.min.js"/>
<svg id="graph" class="graph">
<g id="viewport">
<title>ContoursResult</title>
<!-- Node1 -->
<g id="Node000001" class="node">
<title>Node1</title>
<g id="a_Node000001"><a xlink:title=" ">
<polygon fill="#999999" stroke="transparent" points="300,-49 215,-49 215,0 300,0 300,-49"/>
<text text-anchor="start" x="220.5" y="-36.5" font-family="Helvetica,sans-Serif" font-size="10.00">ContoursResult</text>
<text text-anchor="start" x="256" y="-21.5" font-family="Helvetica,sans-Serif" font-size="10.00"> </text>
<text text-anchor="start" x="256" y="-6.5" font-family="Helvetica,sans-Serif" font-size="10.00"> </text>
<polygon fill="#666666" stroke="#666666" points="215.5,-31.5 215.5,-31.5 300.5,-31.5 300.5,-31.5 215.5,-31.5"/>
<polygon fill="#666666" stroke="#666666" points="215.5,-16.5 215.5,-16.5 300.5,-16.5 300.5,-16.5 215.5,-16.5"/>
<polygon fill="none" stroke="#666666" points="215,0 215,-49 300,-49 300,0 215,0"/>
</a>
</g>
</g>
<!-- Node2 -->
<g id="Node000002" class="node">
<title>Node2</title>
<g id="a_Node000002"><a xlink:title=" ">
<polygon fill="white" stroke="transparent" points="125,-156 0,-156 0,-96 125,-96 125,-156"/>
<text text-anchor="start" x="5.5" y="-144" font-family="Helvetica,sans-Serif" font-size="10.00">std::vector&lt; std::vector</text>
<text text-anchor="start" x="33.5" y="-133" font-family="Helvetica,sans-Serif" font-size="10.00">&lt; Point &gt; &gt;</text>
<text text-anchor="start" x="19" y="-118" font-family="Helvetica,sans-Serif" font-size="10.00">+</text>
<text text-anchor="start" x="46.5" y="-118" font-family="Helvetica,sans-Serif" font-size="10.00">elements</text>
<text text-anchor="start" x="61" y="-103" font-family="Helvetica,sans-Serif" font-size="10.00"> </text>
<polygon fill="#666666" stroke="#666666" points="0.5,-128 0.5,-128 125.5,-128 125.5,-128 0.5,-128"/>
<polygon fill="#666666" stroke="#666666" points="0.5,-113 0.5,-113 44.5,-113 44.5,-113 0.5,-113"/>
<polygon fill="#666666" stroke="#666666" points="44.5,-113 44.5,-113 125.5,-113 125.5,-113 44.5,-113"/>
<polygon fill="none" stroke="#666666" points="0,-96 0,-156 125,-156 125,-96 0,-96"/>
</a>
</g>
</g>
<!-- Node2&#45;&gt;Node1 -->
<g id="edge1_Node000001_Node000002" class="edge">
<title>Node2&#45;&gt;Node1</title>
<g id="a_edge1_Node000001_Node000002"><a xlink:title=" ">
<path fill="none" stroke="#63b8ff" d="M117.42,-95.99C135.26,-86.65 155.18,-76.31 173.5,-67 183.3,-62.02 193.77,-56.78 203.89,-51.76"/>
<polygon fill="none" stroke="#63b8ff" points="203.92,-51.75 207.52,-45.5 214.67,-46.43 211.07,-52.67 203.92,-51.75"/>
</a>
</g>
<text text-anchor="middle" x="200.5" y="-70" font-family="Helvetica,sans-Serif" font-size="10.00" fill="grey"> +contours</text>
</g>
<!-- Node3 -->
<g id="Node000003" class="node">
<title>Node3</title>
<g id="a_Node000003"><a xlink:title=" ">
<polygon fill="white" stroke="transparent" points="268,-156 143,-156 143,-96 268,-96 268,-156"/>
<text text-anchor="start" x="148.5" y="-144" font-family="Helvetica,sans-Serif" font-size="10.00">std::vector&lt; std::vector</text>
<text text-anchor="start" x="160.5" y="-133" font-family="Helvetica,sans-Serif" font-size="10.00">&lt; QuadBezier &gt; &gt;</text>
<text text-anchor="start" x="162" y="-118" font-family="Helvetica,sans-Serif" font-size="10.00">+</text>
<text text-anchor="start" x="189.5" y="-118" font-family="Helvetica,sans-Serif" font-size="10.00">elements</text>
<text text-anchor="start" x="204" y="-103" font-family="Helvetica,sans-Serif" font-size="10.00"> </text>
<polygon fill="#666666" stroke="#666666" points="143.5,-128 143.5,-128 268.5,-128 268.5,-128 143.5,-128"/>
<polygon fill="#666666" stroke="#666666" points="143.5,-113 143.5,-113 187.5,-113 187.5,-113 143.5,-113"/>
<polygon fill="#666666" stroke="#666666" points="187.5,-113 187.5,-113 268.5,-113 268.5,-113 187.5,-113"/>
<polygon fill="none" stroke="#666666" points="143,-96 143,-156 268,-156 268,-96 143,-96"/>
</a>
</g>
</g>
<!-- Node3&#45;&gt;Node1 -->
<g id="edge2_Node000001_Node000003" class="edge">
<title>Node3&#45;&gt;Node1</title>
<g id="a_edge2_Node000001_Node000003"><a xlink:title=" ">
<path fill="none" stroke="#63b8ff" d="M220.68,-95.95C226.59,-84.65 233.4,-71.61 239.55,-59.85"/>
<polygon fill="none" stroke="#63b8ff" points="239.63,-59.7 238.86,-52.53 245.19,-49.06 245.95,-56.23 239.63,-59.7"/>
</a>
</g>
<text text-anchor="middle" x="257.5" y="-70" font-family="Helvetica,sans-Serif" font-size="10.00" fill="grey"> +curves</text>
</g>
<!-- Node4 -->
<g id="Node000004" class="node">
<title>Node4</title>
<g id="a_Node000004"><a xlink:title=" ">
<polygon fill="white" stroke="transparent" points="406.5,-156 286.5,-156 286.5,-96 406.5,-96 406.5,-156"/>
<text text-anchor="start" x="291.5" y="-144" font-family="Helvetica,sans-Serif" font-size="10.00">std::vector&lt; std::array</text>
<text text-anchor="start" x="317" y="-133" font-family="Helvetica,sans-Serif" font-size="10.00">&lt; int, 4 &gt; &gt;</text>
<text text-anchor="start" x="344.5" y="-118" font-family="Helvetica,sans-Serif" font-size="10.00"> </text>
<text text-anchor="start" x="344.5" y="-103" font-family="Helvetica,sans-Serif" font-size="10.00"> </text>
<polygon fill="#666666" stroke="#666666" points="286.5,-128 286.5,-128 406.5,-128 406.5,-128 286.5,-128"/>
<polygon fill="#666666" stroke="#666666" points="286.5,-113 286.5,-113 406.5,-113 406.5,-113 286.5,-113"/>
<polygon fill="none" stroke="#666666" points="286.5,-96 286.5,-156 406.5,-156 406.5,-96 286.5,-96"/>
</a>
</g>
</g>
<!-- Node4&#45;&gt;Node1 -->
<g id="edge3_Node000001_Node000004" class="edge">
<title>Node4&#45;&gt;Node1</title>
<g id="a_edge3_Node000001_Node000004"><a xlink:title=" ">
<path fill="none" stroke="#63b8ff" d="M320.52,-95.95C309.89,-84.07 297.54,-70.27 286.61,-58.04"/>
<polygon fill="none" stroke="#63b8ff" points="286.58,-58.01 279.59,-56.2 278.58,-49.06 285.56,-50.87 286.58,-58.01"/>
</a>
</g>
<text text-anchor="middle" x="330.5" y="-70" font-family="Helvetica,sans-Serif" font-size="10.00" fill="grey"> +hierarchy</text>
</g>
<!-- Node5 -->
<g id="Node000005" class="node">
<title>Node5</title>
<g id="a_Node000005"><a xlink:title=" ">
<polygon fill="white" stroke="transparent" points="398.5,-252 294.5,-252 294.5,-203 398.5,-203 398.5,-252"/>
<text text-anchor="start" x="299.5" y="-239.5" font-family="Helvetica,sans-Serif" font-size="10.00">std::array&lt; int, 4 &gt;</text>
<text text-anchor="start" x="307.5" y="-224.5" font-family="Helvetica,sans-Serif" font-size="10.00">+</text>
<text text-anchor="start" x="329.5" y="-224.5" font-family="Helvetica,sans-Serif" font-size="10.00">elements</text>
<text text-anchor="start" x="344.5" y="-209.5" font-family="Helvetica,sans-Serif" font-size="10.00"> </text>
<polygon fill="#666666" stroke="#666666" points="294.5,-234.5 294.5,-234.5 398.5,-234.5 398.5,-234.5 294.5,-234.5"/>
<polygon fill="#666666" stroke="#666666" points="294.5,-219.5 294.5,-219.5 327.5,-219.5 327.5,-219.5 294.5,-219.5"/>
<polygon fill="#666666" stroke="#666666" points="327.5,-219.5 327.5,-219.5 398.5,-219.5 398.5,-219.5 327.5,-219.5"/>
<polygon fill="none" stroke="#666666" points="294.5,-203 294.5,-252 398.5,-252 398.5,-203 294.5,-203"/>
</a>
</g>
</g>
<!-- Node5&#45;&gt;Node4 -->
<g id="edge4_Node000004_Node000005" class="edge">
<title>Node5&#45;&gt;Node4</title>
<g id="a_edge4_Node000004_Node000005"><a xlink:title=" ">
<path fill="none" stroke="#63b8ff" d="M346.5,-202.92C346.5,-192.51 346.5,-179.97 346.5,-168.1"/>
<polygon fill="none" stroke="#63b8ff" points="346.5,-168.1 342.5,-162.1 346.5,-156.1 350.5,-162.1 346.5,-168.1"/>
</a>
</g>
<text text-anchor="middle" x="375.5" y="-177" font-family="Helvetica,sans-Serif" font-size="10.00" fill="grey"> +elements</text>
</g>
<!-- Node6 -->
<g id="Node000006" class="node">
<title>Node6</title>
<g id="a_Node000006"><a xlink:title=" ">
<polygon fill="white" stroke="transparent" points="530.5,-150.5 424.5,-150.5 424.5,-101.5 530.5,-101.5 530.5,-150.5"/>
<text text-anchor="start" x="429.5" y="-138" font-family="Helvetica,sans-Serif" font-size="10.00">std::vector&lt; bool &gt;</text>
<text text-anchor="start" x="438" y="-123" font-family="Helvetica,sans-Serif" font-size="10.00">+</text>
<text text-anchor="start" x="460.5" y="-123" font-family="Helvetica,sans-Serif" font-size="10.00">elements</text>
<text text-anchor="start" x="475.5" y="-108" font-family="Helvetica,sans-Serif" font-size="10.00"> </text>
<polygon fill="#666666" stroke="#666666" points="424.5,-133 424.5,-133 530.5,-133 530.5,-133 424.5,-133"/>
<polygon fill="#666666" stroke="#666666" points="424.5,-118 424.5,-118 458.5,-118 458.5,-118 424.5,-118"/>
<polygon fill="#666666" stroke="#666666" points="458.5,-118 458.5,-118 530.5,-118 530.5,-118 458.5,-118"/>
<polygon fill="none" stroke="#666666" points="424.5,-101.5 424.5,-150.5 530.5,-150.5 530.5,-101.5 424.5,-101.5"/>
</a>
</g>
</g>
<!-- Node6&#45;&gt;Node1 -->
<g id="edge5_Node000001_Node000006" class="edge">
<title>Node6&#45;&gt;Node1</title>
<g id="a_edge5_Node000001_Node000006"><a xlink:title=" ">
<path fill="none" stroke="#63b8ff" d="M433.59,-101.4C412.61,-90.45 387,-77.55 363.5,-67 346.8,-59.5 328.31,-52 311.51,-45.47"/>
<polygon fill="none" stroke="#63b8ff" points="311.39,-45.43 304.35,-47.01 300.19,-41.12 307.22,-39.54 311.39,-45.43"/>
</a>
</g>
<text text-anchor="middle" x="408.5" y="-70" font-family="Helvetica,sans-Serif" font-size="10.00" fill="grey"> +is_hole</text>
</g>
</g>
</svg>

<g id="navigator" transform="translate(0 0)" fill="#404254">
  <rect fill="#f2f5e9" fill-opacity="0.5" stroke="#606060" stroke-width=".5" x="0" y="0" width="60" height="60"/>
  <use id="zoomplus" xlink:href="#zoomPlus" x="17" y="9" onmousedown="handleZoom(evt,'in')"/>
  <use id="zoomminus" xlink:href="#zoomMin" x="42" y="9" onmousedown="handleZoom(evt,'out')"/>
  <use id="reset" xlink:href="#resetDef" x="30" y="36" onmousedown="handleReset()"/>
   <use id="arrowup" xlink:href="#arrowUp" x="0" y="0" onmousedown="handlePan(0,-1)"/>
  <use id="arrowright" xlink:href="#arrowRight" x="0" y="0" onmousedown="handlePan(1,0)"/>
  <use id="arrowdown" xlink:href="#arrowDown" x="0" y="0" onmousedown="handlePan(0,1)"/>
  <use id="arrowleft" xlink:href="#arrowLeft" x="0" y="0" onmousedown="handlePan(-1,0)"/>
</g>
<svg viewBox="0 0 15 15" width="100%" height="30px" preserveAspectRatio="xMaxYMin meet">
 <g id="arrow_out" transform="scale(0.3 0.3)">
  <a xlink:href="structContoursResult__coll__graph_org.svg" target="_base">
   <rect id="button" ry="5" rx="5" y="6" x="6" height="38" width="38"
        fill="#f2f5e9" fill-opacity="0.5" stroke="#606060" stroke-width="1.0"/>
   <path id="arrow"
     d="M 11.500037,31.436501 C 11.940474,20.09759 22.043105,11.32322 32.158766,21.979434 L 37.068811,17.246167 C 37.068811,17.246167 37.088388,32 37.088388,32 L 22.160133,31.978069 C 22.160133,31.978069 26.997745,27.140456 26.997745,27.140456 C 18.528582,18.264221 13.291696,25.230495 11.500037,31.436501 z"
     style="fill:#404040;"/>
  </a>
 </g>
</svg>

<style type='text/css'>
<![CDATA[
[data-mouse-over-selected='false'] { opacity: 0.7; }
[data-mouse-over-selected='true']  { opacity: 1.0; }
]]>
</style>
<script type="application/ecmascript"><![CDATA[
document.addEventListener('DOMContentLoaded', (event) => {
  highlightEdges();
  highlightAdjacentNodes();
});
]]></script>
</svg>
