<?xml version="1.0" encoding="UTF-8" standalone="no"?>
<!DOCTYPE svg PUBLIC "-//W3C//DTD SVG 1.1//EN"
 "http://www.w3.org/Graphics/SVG/1.1/DTD/svg11.dtd">
<!-- Generated by graphviz version 2.42.4 (0)
 -->
<!-- Title: RGBXY Pages: 1 -->
<svg width="235pt" height="340pt"
 viewBox="0.00 0.00 234.50 340.00" xmlns="http://www.w3.org/2000/svg" xmlns:xlink="http://www.w3.org/1999/xlink">

<svg id="main" version="1.1" xmlns="http://www.w3.org/2000/svg" xmlns:xlink="http://www.w3.org/1999/xlink" xml:space="preserve" onload="init(evt)">
<style type="text/css"><![CDATA[
.node, .edge {opacity: 0.7;}
.node.selected, .edge.selected {opacity: 1;}
.edge:hover path { stroke: red; }
.edge:hover polygon { stroke: red; fill: red; }
]]></style>
<script type="application/ecmascript" xlink:href="svg.min.js"/>
<svg id="graph" class="graph">
<g id="graph0" class="graph" transform="scale(1 1) rotate(0) translate(4 336)">
<title>RGBXY</title>
<!-- Node1 -->
<g id="Node000001" class="node">
<title>Node1</title>
<g id="a_Node000001"><a xlink:title=" ">
<polygon fill="#999999" stroke="transparent" points="162.5,-49 99.5,-49 99.5,0 162.5,0 162.5,-49"/>
<text text-anchor="start" x="114.5" y="-36.5" font-family="Helvetica,sans-Serif" font-size="10.00">RGBXY</text>
<text text-anchor="start" x="129.5" y="-21.5" font-family="Helvetica,sans-Serif" font-size="10.00"> </text>
<text text-anchor="start" x="104" y="-6.5" font-family="Helvetica,sans-Serif" font-size="10.00">+</text>
<text text-anchor="start" x="117" y="-6.5" font-family="Helvetica,sans-Serif" font-size="10.00">RGBXY()</text>
<polygon fill="#666666" stroke="#666666" points="100,-31.5 100,-31.5 163,-31.5 163,-31.5 100,-31.5"/>
<polygon fill="#666666" stroke="#666666" points="100,-16.5 100,-16.5 163,-16.5 163,-16.5 100,-16.5"/>
<polygon fill="none" stroke="#666666" points="99.5,0 99.5,-49 162.5,-49 162.5,0 99.5,0"/>
</a>
</g>
</g>
<!-- Node2 -->
<g id="Node000002" class="node">
<title>Node2</title>
<g id="a_Node000002"><a xlink:href="structImageLib_1_1RGBPixel.html" target="_top" xlink:title=" ">
<polygon fill="white" stroke="transparent" points="129,-246 23,-246 23,-96 129,-96 129,-246"/>
<text text-anchor="start" x="28" y="-234" font-family="Helvetica,sans-Serif" font-size="10.00">ImageLib::RGBPixel</text>
<text text-anchor="start" x="47.5" y="-223" font-family="Helvetica,sans-Serif" font-size="10.00">&lt; uint8_t &gt;</text>
<text text-anchor="start" x="29.5" y="-208" font-family="Helvetica,sans-Serif" font-size="10.00">+</text>
<text text-anchor="start" x="45" y="-208" font-family="Helvetica,sans-Serif" font-size="10.00">red</text>
<text text-anchor="start" x="29.5" y="-193" font-family="Helvetica,sans-Serif" font-size="10.00">+</text>
<text text-anchor="start" x="45" y="-193" font-family="Helvetica,sans-Serif" font-size="10.00">green</text>
<text text-anchor="start" x="29.5" y="-178" font-family="Helvetica,sans-Serif" font-size="10.00">+</text>
<text text-anchor="start" x="45" y="-178" font-family="Helvetica,sans-Serif" font-size="10.00">blue</text>
<text text-anchor="start" x="29.5" y="-163" font-family="Helvetica,sans-Serif" font-size="10.00">+</text>
<text text-anchor="start" x="45" y="-163" font-family="Helvetica,sans-Serif" font-size="10.00">RGBPixel()</text>
<text text-anchor="start" x="29.5" y="-148" font-family="Helvetica,sans-Serif" font-size="10.00">+</text>
<text text-anchor="start" x="45" y="-148" font-family="Helvetica,sans-Serif" font-size="10.00">operator==()</text>
<text text-anchor="start" x="29.5" y="-133" font-family="Helvetica,sans-Serif" font-size="10.00">+</text>
<text text-anchor="start" x="45" y="-133" font-family="Helvetica,sans-Serif" font-size="10.00">operator!=()</text>
<text text-anchor="start" x="29.5" y="-118" font-family="Helvetica,sans-Serif" font-size="10.00">+</text>
<text text-anchor="start" x="45" y="-118" font-family="Helvetica,sans-Serif" font-size="10.00">setGray()</text>
<text text-anchor="start" x="29.5" y="-103" font-family="Helvetica,sans-Serif" font-size="10.00">+</text>
<text text-anchor="start" x="45" y="-103" font-family="Helvetica,sans-Serif" font-size="10.00">colorDistance()</text>
<polygon fill="#bfbfbf" stroke="#bfbfbf" points="23,-218 23,-218 129,-218 129,-218 23,-218"/>
<polygon fill="#bfbfbf" stroke="#bfbfbf" points="23,-173 23,-173 43,-173 43,-173 23,-173"/>
<polygon fill="#bfbfbf" stroke="#bfbfbf" points="43,-173 43,-173 129,-173 129,-173 43,-173"/>
<polygon fill="none" stroke="#bfbfbf" points="23,-96 23,-246 129,-246 129,-96 23,-96"/>
</a>
</g>
</g>
<!-- Node2&#45;&gt;Node1 -->
<g id="edge1_Node000001_Node000002" class="edge">
<title>Node2&#45;&gt;Node1</title>
<g id="a_edge1_Node000001_Node000002"><a xlink:title=" ">
<path fill="none" stroke="#63b8ff" d="M104.31,-95.63C108.97,-83.37 113.61,-71.2 117.67,-60.51"/>
<polygon fill="none" stroke="#63b8ff" points="117.73,-60.38 116.12,-53.35 121.99,-49.16 123.6,-56.19 117.73,-60.38"/>
</a>
</g>
<text text-anchor="middle" x="133" y="-70" font-family="Helvetica,sans-Serif" font-size="10.00" fill="grey"> +color</text>
</g>
<!-- Node3 -->
<g id="Node000003" class="node">
<title>Node3</title>
<g id="a_Node000003"><a xlink:href="structImageLib_1_1Pixel.html" target="_top" xlink:title=" ">
<polygon fill="white" stroke="transparent" points="152,-332 0,-332 0,-283 152,-283 152,-332"/>
<text text-anchor="start" x="5" y="-319.5" font-family="Helvetica,sans-Serif" font-size="10.00">ImageLib::Pixel&lt; NumberT &gt;</text>
<text text-anchor="start" x="74" y="-304.5" font-family="Helvetica,sans-Serif" font-size="10.00"> </text>
<text text-anchor="start" x="26.5" y="-289.5" font-family="Helvetica,sans-Serif" font-size="10.00">+</text>
<text text-anchor="start" x="62" y="-289.5" font-family="Helvetica,sans-Serif" font-size="10.00">~Pixel()</text>
<polygon fill="#bfbfbf" stroke="#bfbfbf" points="0,-314.5 0,-314.5 152,-314.5 152,-314.5 0,-314.5"/>
<polygon fill="#bfbfbf" stroke="#bfbfbf" points="0,-299.5 0,-299.5 152,-299.5 152,-299.5 0,-299.5"/>
<polygon fill="none" stroke="#bfbfbf" points="0,-283 0,-332 152,-332 152,-283 0,-283"/>
</a>
</g>
</g>
<!-- Node3&#45;&gt;Node2 -->
<g id="edge2_Node000002_Node000003" class="edge">
<title>Node3&#45;&gt;Node2</title>
<g id="a_edge2_Node000002_Node000003"><a xlink:title=" ">
<path fill="none" stroke="#63b8ff" d="M76,-272.55C76,-264.35 76,-255.27 76,-246.01"/>
<polygon fill="none" stroke="#63b8ff" points="72.5,-272.76 76,-282.76 79.5,-272.76 72.5,-272.76"/>
</a>
</g>
</g>
<!-- Node4 -->
<g id="Node000004" class="node">
<title>Node4</title>
<g id="a_Node000004"><a xlink:href="structXY.html" target="_top" xlink:title=" ">
<polygon fill="white" stroke="transparent" points="226.5,-218 147.5,-218 147.5,-124 226.5,-124 226.5,-218"/>
<text text-anchor="start" x="181" y="-206" font-family="Helvetica,sans-Serif" font-size="10.00">XY</text>
<text text-anchor="start" x="152" y="-191" font-family="Helvetica,sans-Serif" font-size="10.00">+</text>
<text text-anchor="start" x="165" y="-191" font-family="Helvetica,sans-Serif" font-size="10.00">x</text>
<text text-anchor="start" x="152" y="-176" font-family="Helvetica,sans-Serif" font-size="10.00">+</text>
<text text-anchor="start" x="165" y="-176" font-family="Helvetica,sans-Serif" font-size="10.00">y</text>
<text text-anchor="start" x="152" y="-161" font-family="Helvetica,sans-Serif" font-size="10.00">+</text>
<text text-anchor="start" x="165" y="-161" font-family="Helvetica,sans-Serif" font-size="10.00">xy</text>
<text text-anchor="start" x="152" y="-146" font-family="Helvetica,sans-Serif" font-size="10.00">+</text>
<text text-anchor="start" x="165" y="-146" font-family="Helvetica,sans-Serif" font-size="10.00">XY()</text>
<text text-anchor="start" x="152" y="-131" font-family="Helvetica,sans-Serif" font-size="10.00">+</text>
<text text-anchor="start" x="165" y="-131" font-family="Helvetica,sans-Serif" font-size="10.00">operator&lt;()</text>
<polygon fill="#bfbfbf" stroke="#bfbfbf" points="148,-201 148,-201 227,-201 227,-201 148,-201"/>
<polygon fill="#bfbfbf" stroke="#bfbfbf" points="148,-156 148,-156 163,-156 163,-156 148,-156"/>
<polygon fill="#bfbfbf" stroke="#bfbfbf" points="163,-156 163,-156 227,-156 227,-156 163,-156"/>
<polygon fill="none" stroke="#bfbfbf" points="147.5,-124 147.5,-218 226.5,-218 226.5,-124 147.5,-124"/>
</a>
</g>
</g>
<!-- Node4&#45;&gt;Node1 -->
<g id="edge3_Node000001_Node000004" class="edge">
<title>Node4&#45;&gt;Node1</title>
<g id="a_edge3_Node000001_Node000004"><a xlink:title=" ">
<path fill="none" stroke="#63b8ff" d="M175.04,-123.82C169.75,-105.77 162.92,-85.1 155,-67 153.98,-64.68 152.87,-62.32 151.69,-59.97"/>
<polygon fill="none" stroke="#63b8ff" points="151.57,-59.74 145.21,-56.34 145.9,-49.16 152.26,-52.56 151.57,-59.74"/>
</a>
</g>
<text text-anchor="middle" x="184.5" y="-70" font-family="Helvetica,sans-Serif" font-size="10.00" fill="grey"> +position</text>
</g>
</g>
</svg>
</svg>

<style type='text/css'>
<![CDATA[
[data-mouse-over-selected='false'] { opacity: 0.7; }
[data-mouse-over-selected='true']  { opacity: 1.0; }
]]>
</style>
<script type="application/ecmascript"><![CDATA[
document.addEventListener('DOMContentLoaded', (event) => {
  highlightEdges();
  highlightAdjacentNodes();
});
]]></script>
</svg>
