<?xml version="1.0" encoding="UTF-8" standalone="no"?>
<!DOCTYPE svg PUBLIC "-//W3C//DTD SVG 1.1//EN"
 "http://www.w3.org/Graphics/SVG/1.1/DTD/svg11.dtd">
<!-- Generated by graphviz version 2.42.4 (0)
 -->
<!-- Title: img2num::ImageToSvgConfig Pages: 1 -->
<svg width="332pt" height="194pt"
 viewBox="0.00 0.00 332.00 194.00" xmlns="http://www.w3.org/2000/svg" xmlns:xlink="http://www.w3.org/1999/xlink">

<svg id="main" version="1.1" xmlns="http://www.w3.org/2000/svg" xmlns:xlink="http://www.w3.org/1999/xlink" xml:space="preserve" onload="init(evt)">
<style type="text/css"><![CDATA[
.node, .edge {opacity: 0.7;}
.node.selected, .edge.selected {opacity: 1;}
.edge:hover path { stroke: red; }
.edge:hover polygon { stroke: red; fill: red; }
]]></style>
<script type="application/ecmascript" xlink:href="svg.min.js"/>
<svg id="graph" class="graph">
<g id="graph0" class="graph" transform="scale(1 1) rotate(0) translate(4 190)">
<title>img2num::ImageToSvgConfig</title>
<!-- Node1 -->
<g id="Node000001" class="node">
<title>Node1</title>
<g id="a_Node000001"><a xlink:title="Configuration options for image_to_svg.">
<polygon fill="#999999" stroke="transparent" points="238,-64 85,-64 85,0 238,0 238,-64"/>
<text text-anchor="start" x="90.5" y="-52" font-family="Helvetica,sans-Serif" font-size="10.00">img2num::ImageToSvgConfig</text>
<text text-anchor="start" x="101" y="-37" font-family="Helvetica,sans-Serif" font-size="10.00">+</text>
<text text-anchor="start" x="125.5" y="-37" font-family="Helvetica,sans-Serif" font-size="10.00">min_cluster_area</text>
<text text-anchor="start" x="101" y="-22" font-family="Helvetica,sans-Serif" font-size="10.00">+</text>
<text text-anchor="start" x="125.5" y="-22" font-family="Helvetica,sans-Serif" font-size="10.00">color_space</text>
<text text-anchor="start" x="160" y="-7" font-family="Helvetica,sans-Serif" font-size="10.00"> </text>
<polygon fill="#666666" stroke="#666666" points="85.5,-47 85.5,-47 238.5,-47 238.5,-47 85.5,-47"/>
<polygon fill="#666666" stroke="#666666" points="85.5,-17 85.5,-17 123.5,-17 123.5,-17 85.5,-17"/>
<polygon fill="#666666" stroke="#666666" points="123.5,-17 123.5,-17 238.5,-17 238.5,-17 123.5,-17"/>
<polygon fill="none" stroke="#666666" points="85,0 85,-64 238,-64 238,0 85,0"/>
</a>
</g>
</g>
<!-- Node2 -->
<g id="Node000002" class="node">
<title>Node2</title>
<g id="a_Node000002"><a xlink:href="structimg2num_1_1ImageToSvgConfig_1_1BilateralFilterConfig.html" target="_top" xlink:title="Configuration settings for the bilateral filter in image_to_svg.">
<polygon fill="white" stroke="transparent" points="153,-186 0,-186 0,-111 153,-111 153,-186"/>
<text text-anchor="start" x="5.5" y="-173.5" font-family="Helvetica,sans-Serif" font-size="10.00">img2num::ImageToSvgConfig</text>
<text text-anchor="start" x="25.5" y="-162.5" font-family="Helvetica,sans-Serif" font-size="10.00">::BilateralFilterConfig</text>
<text text-anchor="start" x="20" y="-147.5" font-family="Helvetica,sans-Serif" font-size="10.00">+</text>
<text text-anchor="start" x="48.5" y="-147.5" font-family="Helvetica,sans-Serif" font-size="10.00">sigma_spatial</text>
<text text-anchor="start" x="20" y="-132.5" font-family="Helvetica,sans-Serif" font-size="10.00">+</text>
<text text-anchor="start" x="48.5" y="-132.5" font-family="Helvetica,sans-Serif" font-size="10.00">sigma_range</text>
<text text-anchor="start" x="75" y="-117.5" font-family="Helvetica,sans-Serif" font-size="10.00"> </text>
<polygon fill="#666666" stroke="#666666" points="0.5,-157.5 0.5,-157.5 153.5,-157.5 153.5,-157.5 0.5,-157.5"/>
<polygon fill="#666666" stroke="#666666" points="0.5,-127.5 0.5,-127.5 46.5,-127.5 46.5,-127.5 0.5,-127.5"/>
<polygon fill="#666666" stroke="#666666" points="46.5,-127.5 46.5,-127.5 153.5,-127.5 153.5,-127.5 46.5,-127.5"/>
<polygon fill="none" stroke="#666666" points="0,-111 0,-186 153,-186 153,-111 0,-111"/>
</a>
</g>
</g>
<!-- Node2&#45;&gt;Node1 -->
<g id="edge1_Node000001_Node000002" class="edge">
<title>Node2&#45;&gt;Node1</title>
<g id="a_edge1_Node000001_Node000002"><a xlink:title=" ">
<path fill="none" stroke="#63b8ff" d="M103.63,-110.96C112.36,-99.2 122.09,-86.09 131.04,-74.03"/>
<polygon fill="none" stroke="#63b8ff" points="131.19,-73.83 131.55,-66.63 138.34,-64.2 137.98,-71.4 131.19,-73.83"/>
</a>
</g>
<text text-anchor="middle" x="164.5" y="-85" font-family="Helvetica,sans-Serif" font-size="10.00" fill="grey"> +bilateral_filter</text>
</g>
<!-- Node3 -->
<g id="Node000003" class="node">
<title>Node3</title>
<g id="a_Node000003"><a xlink:href="structimg2num_1_1ImageToSvgConfig_1_1KMeansConfig.html" target="_top" xlink:title="Configuration settings for K&#45;Means in image_to_svg.">
<polygon fill="white" stroke="transparent" points="324,-186 171,-186 171,-111 324,-111 324,-186"/>
<text text-anchor="start" x="176.5" y="-173.5" font-family="Helvetica,sans-Serif" font-size="10.00">img2num::ImageToSvgConfig</text>
<text text-anchor="start" x="210" y="-162.5" font-family="Helvetica,sans-Serif" font-size="10.00">::KMeansConfig</text>
<text text-anchor="start" x="197.5" y="-147.5" font-family="Helvetica,sans-Serif" font-size="10.00">+</text>
<text text-anchor="start" x="232.5" y="-147.5" font-family="Helvetica,sans-Serif" font-size="10.00">k</text>
<text text-anchor="start" x="197.5" y="-132.5" font-family="Helvetica,sans-Serif" font-size="10.00">+</text>
<text text-anchor="start" x="232.5" y="-132.5" font-family="Helvetica,sans-Serif" font-size="10.00">max_iter</text>
<text text-anchor="start" x="246" y="-117.5" font-family="Helvetica,sans-Serif" font-size="10.00"> </text>
<polygon fill="#666666" stroke="#666666" points="171.5,-157.5 171.5,-157.5 324.5,-157.5 324.5,-157.5 171.5,-157.5"/>
<polygon fill="#666666" stroke="#666666" points="171.5,-127.5 171.5,-127.5 230.5,-127.5 230.5,-127.5 171.5,-127.5"/>
<polygon fill="#666666" stroke="#666666" points="230.5,-127.5 230.5,-127.5 324.5,-127.5 324.5,-127.5 230.5,-127.5"/>
<polygon fill="none" stroke="#666666" points="171,-111 171,-186 324,-186 324,-111 171,-111"/>
</a>
</g>
</g>
<!-- Node3&#45;&gt;Node1 -->
<g id="edge2_Node000001_Node000003" class="edge">
<title>Node3&#45;&gt;Node1</title>
<g id="a_edge2_Node000001_Node000003"><a xlink:title=" ">
<path fill="none" stroke="#63b8ff" d="M227.67,-110.85C221.9,-101.18 215.32,-90.95 208.5,-82 206.29,-79.09 203.92,-76.17 201.47,-73.28"/>
<polygon fill="none" stroke="#63b8ff" points="201.4,-73.2 194.43,-71.36 193.44,-64.22 200.42,-66.06 201.4,-73.2"/>
</a>
</g>
<text text-anchor="middle" x="241" y="-85" font-family="Helvetica,sans-Serif" font-size="10.00" fill="grey"> +kmeans</text>
</g>
</g>
</svg>
</svg>

<style type='text/css'>
<![CDATA[
[data-mouse-over-selected='false'] { opacity: 0.7; }
[data-mouse-over-selected='true']  { opacity: 1.0; }
]]>
</style>
<script type="application/ecmascript"><![CDATA[
document.addEventListener('DOMContentLoaded', (event) => {
  highlightEdges();
  highlightAdjacentNodes();
});
]]></script>
</svg>
