<?xml version="1.0" encoding="UTF-8"?>
<!DOCTYPE svg PUBLIC "-//W3C//DTD SVG 1.1//EN" "http://www.w3.org/Graphics/SVG/1.1/DTD/svg11.dtd">
<svg version="1.1" xmlns="http://www.w3.org/2000/svg" xmlns:xlink="http://www.w3.org/1999/xlink" x="0" y="0" width="402.59" height="331.46" viewBox="0, 0, 402.59, 331.46">
  <g id="Layer_1">
    <g>
      <path d="M110.46,31.06 C110.46,31.06 113.26,5.66 147.06,2.86 C180.86,0.06 213.76,21.66 213.76,21.66 L233.46,36.66 L215.66,31.06 C215.66,31.06 240.06,46.06 254.16,58.26 C268.26,70.46 273.86,77.06 273.86,77.06 L244.76,61.06 C244.76,61.06 274.86,89.26 287.06,107.06 L271.06,100.46 C271.06,100.46 295.46,131.46 299.26,139.86 L278.56,125.76 C278.56,125.76 302.06,161.46 307.66,175.56 C307.66,175.56 292.66,157.76 285.16,151.16 C277.66,144.56 311.46,190.56 314.26,204.66 L285.16,184 C285.16,184 307.66,205.6 312.36,224.4 L289.86,210.3 C289.86,210.3 304.86,234.7 301.16,246.9 L281.46,228.1 C281.46,228.1 283.36,232.8 278.66,247.8 L257.06,230" fill="#BEAC83"/>
      <path d="M279.86,252.36 L255.36,232.06 L258.66,228.16 L277.26,243.56 C280.16,232.96 279.06,229.16 279.06,229.16 L276.06,219.66 L299.16,241.66 C298.66,231.86 291.06,217.36 287.66,211.76 L281.96,202.46 L307.56,218.46 C300.46,202.46 283.56,186.16 283.36,185.96 L286.66,182.06 L308.96,197.86 C304.56,188.76 296.26,175.66 290.26,166.16 C280.86,151.46 280.36,150.56 282.46,148.66 C283.66,147.56 285.16,147.86 286.86,149.26 C289.943,152.04 292.88,154.977 295.66,158.06 C287.16,143.46 276.66,127.46 276.46,127.26 L269.36,116.46 L290.76,131.06 C284.36,121.86 274.86,109.36 269.16,102.16 L263.16,94.46 L279.56,101.16 C265.86,84.26 243.46,63.16 243.26,62.96 L228.46,49.06 L259.16,65.86 C257.26,64.16 255.06,62.16 252.66,60.16 C238.86,48.26 214.76,33.36 214.46,33.16 L196.76,22.26 L220.36,29.76 L212.36,23.66 C212.16,23.56 179.96,2.66 147.46,5.36 C116.26,7.96 113.26,30.36 113.16,31.26 L108.06,30.66 C108.06,30.36 111.56,3.16 147.06,0.26 C181.36,-2.54 213.96,18.56 215.36,19.46 L246.96,43.46 L233.06,39.06 C241.032,44.373 248.71,50.115 256.06,56.26 C270.16,68.46 275.86,75.06 276.06,75.36 L285.16,86.06 L260.16,72.36 C269.86,82.16 282.36,95.46 289.36,105.66 L294.16,112.76 L279.16,106.56 C286.66,116.36 299.06,132.86 301.76,138.96 L305.46,147.16 L287.76,135.06 C295.16,146.76 306.46,165.26 310.26,174.66 L316.16,189.46 L306,177.26 C305.9,177.16 302,172.46 297.1,167.06 C305.4,180.16 315.4,196.36 317,204.26 L318.3,210.56 L301.8,198.86 C307.4,206.26 313,215.26 315.1,223.86 L316.6,230.06 L296.9,217.76 C301.1,226.36 306.3,239.36 303.7,247.76 L302.5,251.76 L284.3,234.46 C283.73,239.324 282.658,244.117 281.1,248.76 z" fill="#63300F"/>
    </g>
    <g>
      <path d="M270,207.76 C269.2,176.06 253.2,139.06 243.9,108.56 C235.4,80.86 221.3,53.96 201.5,36.36 C207.5,27.56 206.3,7.66 206.3,7.66 L200.7,13.26 C196.9,17.06 185.4,19.96 178.4,21.56 C161.8,14.56 142.3,13.36 120,20.86 C111.7,23.66 105.4,29.56 100.5,37.26 L84.3,21.76 C81,42.16 87.9,51.46 92.3,55.26 C85.4,76.46 84,101.96 83.1,117.16 C81.6,142.86 84.6,167.26 89.3,192.56 C91.1,202.46 93.1,215.16 96.5,227.56 L96.4,227.46 C96.4,235.96 100.2,241.56 103,249.06 C106.605,259.24 112.37,268.519 119.9,276.26 C126.5,284.76 136.8,290.36 140.6,300.66 C141.5,304.46 142.5,310.06 141.5,314.76 C140.5,319.46 135.9,324.16 134.9,329.76 C136.8,329.76 140.5,329.76 142.4,328.86 C146.2,327.96 145.2,326.96 146.2,324.16 C148.1,317.56 148.1,312.86 150.9,306.36 C154.7,300.76 157.5,295.06 161.2,289.46 C164,286.66 166.8,283.86 166.8,279.16 L166.8,279.16 C179.047,279.289 191.275,278.184 203.3,275.86 C204.5,276.66 205.8,277.46 207,278.26 C213.547,281.153 220.258,283.657 227.1,285.76 C236.2,288.56 238.1,297.06 240.8,305.46 C241.7,310.16 242,321.16 246.6,323.06 C249.3,323.96 255.1,327.26 257.8,326.26 C257.8,320.66 250.7,315.86 249.8,310.16 C248.9,306.36 249.1,294.16 250,290.36 C250.9,284.76 255.5,280.06 257.3,275.36 C259.1,270.66 261,265.96 262.8,262.26 C267.4,251.96 270.1,241.56 270.1,230.36 L270.1,207.86 z" fill="#F9EBCE"/>
      <path d="M271.56,207.76 C270.76,187.66 265.26,168.26 259.06,149.26 C252.36,128.76 246.16,107.56 237.96,87.66 C230.76,70.36 220.96,54.06 207.96,40.36 C204.46,36.66 203.36,36.66 205.16,32.06 C206.25,28.924 206.955,25.666 207.26,22.36 C207.826,17.448 207.993,12.499 207.76,7.56 C207.775,6.913 207.388,6.324 206.789,6.08 C206.19,5.836 205.502,5.987 205.06,6.46 C199.16,12.36 194.06,15.66 185.86,17.96 C179.56,19.76 175.86,18.66 169.66,16.86 C164.817,15.542 159.863,14.671 154.86,14.26 C133.76,12.36 110.96,18.06 98.86,36.36 L101.36,36.06 C95.96,30.86 90.56,25.76 85.16,20.56 C84.36,19.86 82.66,19.96 82.46,21.26 C80.86,32.76 80.96,45.06 88.86,54.36 C90.96,56.86 89.06,59.46 88.16,62.56 C86.76,67.86 85.76,73.26 84.86,78.66 C83.46,87.26 82.66,95.86 81.96,104.56 C78.86,145.76 84.06,187.96 94.76,227.86 L97.16,226.06 C97.105,226.06 97.06,226.015 97.06,225.96 C96.565,225.659 95.944,225.653 95.443,225.945 C94.942,226.237 94.642,226.78 94.66,227.36 C95.06,236.26 99.16,243.76 102.26,251.96 C105.661,260.591 110.571,268.549 116.76,275.46 C123.26,282.86 131.66,289.06 137.06,297.36 C140.76,303.06 141.26,311.96 138.46,318.06 C136.66,321.96 134.36,325.16 133.26,329.46 C133.13,329.932 133.226,330.437 133.519,330.828 C133.813,331.22 134.271,331.453 134.76,331.46 C137.66,331.46 144.66,331.66 146.36,328.46 C149.26,322.76 149.36,315.56 151.26,309.46 C153.86,300.96 161.16,292.76 166.36,285.76 C167.56,284.06 169.66,279.26 167.56,277.66 C167.26,278.66 167.06,279.66 166.76,280.66 C172.96,280.76 179.16,280.46 185.26,279.96 C189.76,279.56 200.56,275.96 204.26,278.36 C215.06,285.26 230.96,284.56 236.46,297.66 C239.66,305.26 239.26,313.46 242.46,320.96 C244.46,325.56 253.36,328.36 257.76,327.86 C258.56,327.76 259.46,327.16 259.36,326.26 C258.946,323.359 257.812,320.609 256.06,318.26 C252.96,313.56 250.96,309.96 250.76,304.26 C250.593,300.489 250.727,296.71 251.16,292.96 C251.76,286.66 256.06,281.76 258.66,276.26 C263.36,266.16 267.86,255.36 270.26,244.46 C272.86,232.56 271.66,219.86 271.66,207.86 C271.654,207.223 271.266,206.652 270.676,206.411 C270.086,206.171 269.409,206.308 268.96,206.76 L268.86,206.86 C267.36,208.26 269.66,210.56 271.16,209.16 L271.26,209.06 C270.36,208.66 269.46,208.26 268.56,207.96 C268.56,220.76 269.46,233.76 266.66,246.36 C263.776,258.521 259.019,270.16 252.56,280.86 C248.26,287.86 247.66,294.46 247.56,302.46 C247.459,305.9 247.863,309.337 248.76,312.66 C250.26,317.86 255.46,320.76 256.26,326.46 L257.86,324.86 C254.16,325.36 247.36,322.96 245.26,319.56 C243.16,315.96 243.16,310.56 242.56,306.56 C241.76,300.56 238.56,291.56 233.46,287.66 C225.06,281.26 213.06,280.46 204.06,274.66 C201.76,273.16 190.76,276.46 188.36,276.76 C181.19,277.575 173.976,277.943 166.76,277.86 C165.06,277.86 164.76,279.96 165.96,280.86 C165.36,280.36 150.06,304.46 149.26,306.26 C147.53,311.18 146.193,316.229 145.26,321.36 C143.86,327.56 140.96,328.46 134.86,328.56 C135.36,329.26 135.86,329.96 136.36,330.56 C137.56,325.76 140.96,322.16 142.36,317.56 C143.56,313.46 143.46,309.56 142.96,305.26 C141.96,297.66 137.66,292.16 132.36,286.96 C124.76,279.46 117.16,272.36 111.36,263.26 C105.26,253.76 98.56,239.26 97.96,227.76 C97.16,228.26 96.36,228.66 95.56,229.16 C95.615,229.16 95.66,229.205 95.66,229.26 C96.86,230.16 98.36,228.66 98.06,227.46 C90.313,198.507 85.72,168.801 84.36,138.86 C83.36,111.66 85.56,82.16 93.66,56.06 C93.831,55.494 93.677,54.879 93.26,54.46 C84.36,46.46 84.16,33.56 85.76,22.56 C84.86,22.76 83.96,23.06 83.06,23.26 C88.46,28.46 93.86,33.56 99.26,38.76 C99.62,39.08 100.099,39.231 100.578,39.174 C101.056,39.116 101.486,38.856 101.76,38.46 C116.26,16.66 147.86,14.16 171.26,21.06 C174.66,22.06 177.06,23.86 180.66,23.06 C185.638,21.99 190.52,20.519 195.26,18.66 C200.36,16.66 203.66,12.96 207.56,9.16 C206.66,8.76 205.76,8.36 204.86,8.06 C205.36,17.26 205.06,27.96 200.26,35.96 C199.84,36.573 199.972,37.406 200.56,37.86 C223.86,59.06 235.46,87.46 244.96,116.76 C254.56,146.56 267.46,176.46 268.66,208.16 C268.46,209.76 271.66,209.76 271.56,207.76 z" fill="#63300F"/>
    </g>
    <path d="M118.66,68.36 C118.66,66.537 117.183,65.06 115.36,65.06 C113.537,65.06 112.06,66.537 112.06,68.36 C112.06,70.183 113.537,71.66 115.36,71.66 C116.238,71.668 117.082,71.323 117.702,70.702 C118.323,70.082 118.668,69.238 118.66,68.36 z" fill="#63300F"/>
    <path d="M170.86,65.76 C170.86,63.937 169.383,62.46 167.56,62.46 C165.737,62.46 164.26,63.937 164.26,65.76 C164.26,67.583 165.737,69.06 167.56,69.06 C168.438,69.068 169.282,68.723 169.902,68.102 C170.523,67.482 170.868,66.638 170.86,65.76 z" fill="#63300F"/>
    <path d="M139.86,74.26 C139.86,72.16 137.56,70.46 134.66,70.46 C131.76,70.46 129.46,72.16 129.46,74.26 C129.46,76.36 131.76,78.06 134.66,78.06 C137.56,78.06 139.86,76.36 139.86,74.26 z" fill="#63300F"/>
    <g>
      <path d="M191.56,88.76 C195.56,80.56 201.96,81.56 202.26,62.96 C204.219,64.346 205.913,66.074 207.26,68.06 C208.607,70.046 213.86,63.56 216.86,63.86 C220.86,64.26 213.66,69.86 222.86,72.26 C222.46,77.46 217.46,82.06 216.46,85.06 C214.46,90.16 214.46,98.46 214.46,103.56 C213.46,109.66 212.86,113.96 208.26,120.16 L208.26,119.16" fill="#F9EBCE"/>
      <path d="M193,89.56 C194.9,86.06 197.8,83.36 200.1,80.06 C203.5,75.16 203.7,68.66 203.9,62.96 C203,63.36 202.1,63.76 201.2,64.06 C203.017,65.427 204.633,67.043 206,68.86 C206.448,69.625 207.426,69.892 208.2,69.46 C211.4,67.36 215.9,63.56 216.5,68.76 C216.9,71.86 220.1,72.96 222.6,73.76 C222.2,73.06 221.9,72.46 221.5,71.76 C220,79.26 214.3,83.86 213.5,91.76 C212.5,101.86 213.1,110.56 207.1,119.26 C208.1,119.56 209.1,119.76 210.1,120.06 L210.1,119.06 C210.1,118.176 209.384,117.46 208.5,117.46 C207.616,117.46 206.9,118.176 206.9,119.06 L206.9,120.06 C206.906,120.785 207.395,121.417 208.095,121.603 C208.795,121.79 209.534,121.486 209.9,120.86 C214.5,114.16 216.2,107.16 216.3,99.06 C216.4,93.46 216.6,87.56 219.7,82.76 C221.9,79.26 223.8,76.56 224.6,72.46 C224.845,71.604 224.354,70.711 223.5,70.46 C217.5,68.36 222.4,63.36 218.3,62.26 C214.2,61.16 209.8,64.26 206.6,66.36 L208.8,66.96 C207.322,64.898 205.534,63.077 203.5,61.56 C202.4,60.76 200.8,61.16 200.8,62.66 C200.6,68.76 200.1,74.76 196.3,79.76 C194.2,82.46 192,84.66 190.3,87.66 C189.3,89.76 192,91.46 193,89.56 z" fill="#63300F"/>
    </g>
    <path d="M88.16,39.46 C88.188,41.759 88.845,44.007 90.06,45.96 C90.56,46.86 91.16,48.26 92.16,48.56 C92.588,48.647 93.024,48.681 93.46,48.66 C94.344,48.66 95.06,47.944 95.06,47.06 C95.06,46.176 94.344,45.46 93.46,45.46 L92.66,45.46 C91.776,45.46 91.06,46.176 91.06,47.06 C91.06,47.944 91.776,48.66 92.66,48.66 L93.46,48.66 C94.344,48.66 95.06,47.944 95.06,47.06 C95.06,46.176 94.344,45.46 93.46,45.46 L92.66,45.46 C93.16,45.76 93.56,45.96 94.06,46.26 C92.562,44.326 91.659,41.998 91.46,39.56 C91.36,37.46 88.16,37.46 88.16,39.46 z" fill="#63300F"/>
    <path d="M195.26,23.56 L195.26,23.56 C195.275,23.701 195.24,23.843 195.16,23.96 C195.06,24.26 195.06,24.46 194.96,24.76 C194.788,25.318 194.553,25.855 194.26,26.36 C194.054,26.859 193.785,27.329 193.46,27.76 C193.46,27.86 192.96,28.26 193.16,28.06 C192.86,28.16 193.06,28.16 193.56,27.96 C193.902,27.967 194.226,28.111 194.46,28.36 C193.46,26.56 190.66,28.16 191.66,29.96 C192.126,30.874 193.171,31.334 194.16,31.06 C195.054,30.682 195.795,30.012 196.26,29.16 C197.436,27.508 198.16,25.578 198.36,23.56 C198.56,21.46 195.36,21.46 195.26,23.56 z" fill="#63300F"/>
    <g>
      <path d="M91.26,97.56 C87.86,87.56 68.26,91.56 69.16,79.16 C69.76,71.76 62.26,81.56 61.26,82.06 C56.56,84.86 50.36,84.86 47.56,90.16 C57.86,90.16 62.36,99.66 69.66,106.16 C73.36,109.46 76.46,113.26 79.96,116.76 C84.56,121.46 90.76,124.16 95.46,128.76 C94.784,128.862 94.113,128.546 93.76,127.96" fill="#F9EBCE"/>
      <path d="M92.56,96.66 C90.56,92.06 86.26,90.26 81.76,88.56 C78.46,87.36 74.96,86.46 72.26,84.16 C69.36,81.66 72.06,77.76 69.86,75.46 C67.46,73.06 64.26,76.46 62.56,78.16 C57.56,83.06 50.16,83.16 46.06,89.26 C45.798,89.76 45.812,90.36 46.096,90.847 C46.381,91.335 46.896,91.642 47.46,91.66 C57.56,92.36 63.76,102.86 70.56,109.26 C74.66,113.06 78.06,117.56 82.36,121.06 C86.16,124.16 90.46,126.46 94.16,129.86 C94.86,129.06 95.46,128.16 96.06,127.36 C95.46,127.06 94.96,126.86 94.36,126.56 C92.46,125.66 90.86,128.46 92.76,129.36 C93.307,129.667 93.875,129.935 94.46,130.16 C96.06,130.96 97.86,128.96 96.36,127.66 C92.06,123.86 87.16,120.96 82.66,117.36 C77.26,113.06 72.46,107.06 67.56,102.16 C61.36,95.76 56.76,89.26 47.26,88.66 C47.76,89.46 48.16,90.26 48.66,91.06 C52.26,85.66 58.96,86.66 63.06,82.36 C63.86,81.56 67.26,77.26 67.26,79.26 C67.11,81.009 67.42,82.768 68.16,84.36 C72.96,92.46 85.76,89.86 89.56,98.56 C90.66,100.26 93.46,98.56 92.56,96.66 z" fill="#63300F"/>
    </g>
    <path d="M115.16,19.76 C115.16,19.76 132.96,22.56 138.66,31.06 C138.66,31.06 163.06,16.96 173.46,16.06 C183.86,15.16 152.76,7.56 138.66,8.56 C124.56,9.56 115.16,19.76 115.16,19.76 z" fill="#BEAC83"/>
    <path d="M138.36,34.06 L137.06,33.06 C124.26,23.26 115.06,22.36 114.96,22.36 L115.36,17.26 C115.76,17.26 125.46,18.16 138.86,28.06 C143.96,25.56 161.16,17.26 170.46,16.36 L170.96,21.46 C161.26,22.36 140.06,33.16 139.86,33.26 z" fill="#63300F"/>
    <g>
      <path d="M60.86,19.76 C54.06,6.96 42.66,15.36 41.06,26.56 C33.86,16.16 20.26,13.66 18.96,28.16 C17.66,42.86 46.96,59.76 46.96,59.76 C46.96,59.76 67.86,32.76 60.86,19.76 z" fill="#FCC0C2"/>
      <path d="M47.56,63.16 L45.66,62.06 C42.56,60.26 14.96,43.96 16.36,28.06 C17.06,20.16 21.26,15.56 27.56,15.56 C31.76,15.56 36.16,17.66 39.86,21.26 C42.26,15.16 47.26,10.86 52.46,10.86 C54.86,10.86 59.46,11.86 63.16,18.66 C70.66,32.76 51.26,58.66 48.96,61.56 z M27.46,20.56 C23.06,20.56 21.76,24.86 21.36,28.46 C20.46,38.36 37.46,51.06 46.16,56.46 C52.26,48.06 63.26,29.76 58.56,20.96 C57.36,18.66 55.26,15.86 52.46,15.86 C48.46,15.86 44.46,20.96 43.56,26.96 L42.66,33.46 L39,28.06 C35.86,23.56 31.26,20.56 27.46,20.56 z" fill="#63300F"/>
    </g>
    <path d="M118.06,76.76 C118.06,74.36 114.06,72.36 109.26,72.36 C104.46,72.36 100.46,74.36 100.46,76.76 C100.46,79.16 104.46,81.16 109.26,81.16 C114.06,81.16 118.06,79.16 118.06,76.76 z" fill="#FCC0C2"/>
    <path d="M184,74.76 C184,72.36 180,70.36 175.2,70.36 C170.4,70.36 166.4,72.36 166.4,74.76 C166.4,77.16 170.4,79.16 175.2,79.16 C180,79.16 184,77.16 184,74.76 z" fill="#FCC0C2"/>
    <g>
      <path d="M25.86,56.56 C17.46,51.26 13.46,60.06 16.26,67.36 C8.36,63.56 -0.64,66.66 3.56,75.86 C7.76,85.06 31.06,85.36 31.06,85.36 C31.06,85.36 34.46,62 25.86,56.56 z" fill="#FCC0C2"/>
      <path d="M33.26,87.86 L31.06,87.86 C28.46,87.86 5.96,87.36 1.26,76.86 C-0.84,72.16 0.06,68.96 1.26,67.16 C2.86,64.66 5.96,63.16 9.76,63.16 C10.801,63.161 11.839,63.261 12.86,63.46 C12.628,60.754 13.296,58.047 14.76,55.76 C17.36,51.86 22.36,51.16 27.26,54.36 C36.96,60.56 33.96,83.16 33.66,85.66 z M9.66,68.26 C7.66,68.26 6.06,68.86 5.46,69.86 C4.86,70.86 4.96,72.66 5.86,74.66 C8.16,79.86 20.36,82.16 28.76,82.56 C29.66,74.06 29.26,61.66 24.46,58.56 C21.96,56.96 20.06,56.86 18.96,58.56 C17.86,60.26 17.56,63.56 18.66,66.26 L21.06,72.36 L15.16,69.46 C13.415,68.729 11.551,68.323 9.66,68.26 z" fill="#63300F"/>
    </g>
    <path d="M137,89.06 C138.1,89.36 142.1,85.96 142.1,85.96 L151,89.96 C151,89.96 145.6,100.76 142.4,99.06 C139.2,97.36 137,89.06 137,89.06 z" fill="#FD1A16"/>
    <path d="M124.86,85.06 C128.06,92.66 139.36,95.26 142.06,85.96 C141.16,86.16 140.26,86.46 139.36,86.66 C141.56,88.46 143.86,90.46 146.96,90.16 C149.86,89.86 152.06,86.66 153.86,84.76 C152.96,84.26 152.06,83.76 151.16,83.16 C150.76,84.86 143.66,101.36 140.96,97.26 C139.16,94.56 139.26,91.46 136.96,88.96 C135.56,87.46 133.26,89.76 134.66,91.26 C136.96,93.66 137.16,101.56 141.86,100.96 C148.86,99.96 152.86,89.86 154.26,83.96 C154.449,83.254 154.145,82.509 153.516,82.137 C152.888,81.765 152.088,81.856 151.56,82.36 C150.66,83.26 149.76,84.26 148.76,85.26 C146.06,88.06 144.06,86.26 141.56,84.26 C141.14,83.894 140.565,83.758 140.025,83.898 C139.486,84.038 139.049,84.435 138.86,84.96 C137.06,91.06 129.86,88.76 127.86,84.06 C127.16,82.26 124.06,83.06 124.86,85.06 z" fill="#63300F"/>
    <g>
      <path d="M399,259.76 C405.2,232.26 377.8,230.06 361.1,244.56 C363.8,219.96 346.9,198.96 326.4,218.76 C305.7,238.86 327.4,301.06 327.4,301.06 C327.4,301.06 392.66,287.86 399,259.76 z" fill="#FCC0C2"/>
      <path d="M325.66,304.06 L325,302 C324.1,299.4 303,238 324.7,217.1 C330.6,211.4 336.5,208.5 342.4,208.5 C347.5,208.5 352.1,210.7 355.9,214.9 C361,220.6 364,229.7 364.1,239.4 C369.794,235.591 376.452,233.476 383.3,233.3 C389.8,233.3 395.3,235.6 398.7,239.9 C401.4,243.3 404.1,249.6 401.7,260.5 C395.1,289.9 330.8,303.2 328.1,303.8 z M342.26,213.46 C337.86,213.46 332.96,215.96 328.16,220.66 C310.96,237.36 325.56,287.06 329.06,298.06 C340.36,295.46 391.26,282.56 396.56,259.16 C398.16,252.16 397.46,246.56 394.56,242.96 C392.16,239.96 388.06,238.26 383.16,238.26 C376.36,238.26 368.76,241.36 362.76,246.46 L357.86,250.76 L358.56,244.26 C359.66,233.96 357.16,223.96 351.96,218.16 C349.16,215.16 345.86,213.46 342.26,213.46 z" fill="#63300F"/>
    </g>
    <g>
      <path d="M369.46,150.76 C361.56,136.96 349.36,146.46 347.86,158.86 C339.66,147.56 324.56,145.26 323.56,161.26 C322.56,177.46 355.26,195.16 355.26,195.16 C355.26,195.16 377.56,164.86 369.46,150.76 z" fill="#FCC0C2"/>
      <path d="M356.06,198.56 L354.06,197.46 C352.66,196.66 319.96,178.76 321.06,161.16 C321.56,152.46 326.06,147.26 333.06,147.26 C337.56,147.26 342.46,149.56 346.56,153.46 C349.06,146.46 354.56,141.46 360.26,141.46 C363.36,141.46 367.86,142.86 371.66,149.56 C380.46,164.96 358.26,195.46 357.36,196.76 z M333.06,152.36 C327.86,152.36 326.46,157.26 326.16,161.46 C325.46,172.56 344.86,186.26 354.46,191.86 C360.86,182.56 372.66,161.76 367.16,152.06 C365.76,149.56 363.36,146.56 360.16,146.56 C355.76,146.56 351.16,152.46 350.36,159.16 L349.56,165.66 L345.66,160.36 C342.36,155.46 337.26,152.36 333.06,152.36 z" fill="#63300F"/>
    </g>
  </g>
</svg>
